<?xml version="1.0" encoding="UTF-8"?>
<!-- Generator: visioncortex VTracer 0.6.5 -->
<svg version="1.1" xmlns="http://www.w3.org/2000/svg" width="1080" height="1080">
<rect width="1080" height="1080" fill="#C0ADAD"/>
<path d="M0 0 C0.429 0.109 0.857 0.219 1.299 0.331 C23.836 6.104 47.233 13.433 67 26 C72.562 29.687 77.843 33.77 83 38 C83.61 38.499 84.221 38.997 84.85 39.511 C88.421 42.492 91.564 45.532 94.438 49.188 C94.813 49.657 95.189 50.127 95.576 50.612 C96.729 52.066 97.867 53.53 99 55 C99.352 55.456 99.705 55.911 100.068 56.381 C108.294 67.112 114.395 78.516 120.023 90.785 C121.23 93.399 122.484 95.963 123.852 98.496 C127.452 105.19 130.137 111.919 132.312 119.188 C132.436 119.596 132.559 120.004 132.686 120.424 C133.534 123.264 134.299 126.121 135 129 C135.05 129.204 135.05 129.204 135.305 130.237 C137.19 138.173 137.309 146.045 137.261 154.172 C137.25 156.327 137.261 158.48 137.273 160.635 C137.272 162.023 137.27 163.412 137.266 164.801 C137.27 165.435 137.274 166.07 137.278 166.723 C137.245 169.832 136.966 172.487 135.983 175.45 C135.665 176.304 135.341 177.155 135 178 C135.33 178 135.66 178 136 178 C136 180.97 136 183.94 136 187 C134.68 188.32 133.36 189.64 132 191 C132.66 191.33 133.32 191.66 134 192 C132.35 193.65 130.7 195.3 129 197 C128.01 197 127.02 197 126 197 C126 197.66 126 198.32 126 199 C126.99 199 127.98 199 129 199 C129 199.66 129 200.32 129 201 C128.34 201 127.68 201 127 201 C127.33 201.99 127.66 202.98 128 204 C127.34 204.33 127.34 204.33 124 206 C123.945 206.212 123.945 206.212 123.668 207.285 C122.472 211.71 120.901 215.831 119 220 C119.66 220.33 120.32 220.66 121 221 C120.67 222.65 120.34 224.3 120 226 C119.34 226 118.68 226 118 226 C118.33 226.99 118.66 227.98 119 229 C119.66 229.66 120.32 230.32 121 231 C118.03 235.62 115.06 240.24 112 245 C111.67 247.97 111.34 250.94 111 254 C109.68 254.99 108.36 255.98 107 257 C106.34 257 105.68 257 105 257 C104.34 258.98 103.68 260.96 103 263 C102.023 263.944 101.047 264.888 100.07 265.832 C98.878 267.133 97.946 268.513 97 270 C96.504 270.121 96.007 270.242 95.496 270.367 C94.817 270.535 94.137 270.702 93.438 270.875 C92.703 271.054 91.968 271.233 91.211 271.418 C89 272 89 272 87.227 272.613 C85.467 273.22 83.839 273.697 82 274 C78.96 273.878 75.999 273.503 73 273 C72.67 272.01 72.34 271.02 72 270 C71.01 269.34 70.02 268.68 69 268 C69.66 268 70.32 268 71 268 C70.67 266.35 70.34 264.7 70 263 C69.01 262.67 68.02 262.34 67 262 C67.66 261.67 68.32 261.34 69 261 C70.525 257.565 71.855 254.279 72.281 250.523 C72.333 249.691 72.384 248.858 72.438 248 C72.741 243.744 72.741 243.744 73.427 241.776 C74.451 239.425 75.681 237.197 77 235 C76.67 234.67 76.34 234.34 76 234 C75.608 234.722 75.216 235.444 74.812 236.188 C72.99 239.254 70.6 241.585 68 244 C67.34 244 66.68 244 66 244 C65.738 244.579 65.477 245.158 65.207 245.754 C63.948 248.097 62.46 249.981 60.688 251.938 C60.381 252.282 60.074 252.627 59.758 252.982 C57.271 255.755 54.689 258.423 52 261 C51.34 261 50.68 261 50 261 C50 261.66 50 262.32 50 263 C49.01 263 48.02 263 47 263 C46.34 264.32 45.68 265.64 45 267 C43.02 268.65 41.04 270.3 39 272 C38.34 272 37.68 272 37 272 C36.67 272.99 36.34 273.98 36 275 C17.951 286.34 17.951 286.34 8.875 288.5 C7.104 288.897 5.331 289.277 3.553 289.643 C1.323 290.156 -0.735 290.938 -2.875 291.75 C-5.194 292.567 -7.08 293.006 -9.543 293.184 C-11.705 293.187 -13.843 293.138 -16 293 C-15.67 292.34 -15.34 291.68 -15 291 C-16.834 291.144 -18.667 291.29 -20.5 291.438 C-21.05 291.481 -21.601 291.525 -22.167 291.57 C-25.178 291.817 -28.14 292.152 -31.125 292.625 C-34.539 293.083 -37.691 292.841 -41.101 292.394 C-44.109 292.017 -46.841 292.133 -49.875 292.375 C-52.829 292.506 -55.449 292.147 -58.311 291.382 C-60.962 290.577 -63.577 289.678 -66.188 288.75 C-66.613 288.6 -67.039 288.449 -67.477 288.294 C-79.59 283.963 -91.398 277.748 -101.543 269.79 C-103.668 267.98 -105.692 266.079 -107.707 264.148 C-110.031 261.924 -112.519 259.965 -115.062 258 C-118.902 255.005 -122.361 251.782 -125.742 248.281 C-127.774 246.185 -129.842 244.267 -132.118 242.439 C-135.284 239.88 -137.67 237.261 -139.9 233.837 C-141.308 231.581 -142.662 229.298 -144 227 C-144.565 226.054 -145.131 225.108 -145.699 224.164 C-146.128 223.45 -146.558 222.736 -147 222 C-146.67 221.34 -146.34 220.68 -146 220 C-146.99 219.67 -147.98 219.34 -149 219 C-156.865 192.896 -156.865 192.896 -156.496 182.883 C-156.371 180.917 -156.19 178.961 -156 177 C-155.923 176.099 -155.848 175.197 -155.773 174.295 C-155.264 168.188 -154.668 162.092 -154 156 C-154.66 156 -155.32 156 -156 156 C-156 152.04 -156 148.08 -156 144 C-155.34 143.01 -154.68 142.02 -154 141 C-153.951 140.432 -153.902 139.863 -153.852 139.277 C-153.371 134.316 -152.568 129.733 -151 125 C-151.99 125 -152.98 125 -154 125 C-153.67 126.32 -153.34 127.64 -153 129 C-156.96 128.34 -160.92 127.68 -165 127 C-164.67 126.01 -164.34 125.02 -164 124 C-164.99 124.165 -164.99 124.165 -170 125 C-171.32 123.68 -172.64 122.36 -174 121 C-174 120.34 -174 119.68 -174 119 C-175.32 118.67 -176.64 118.34 -178 118 C-179.32 116.68 -180.64 115.36 -182 114 C-181.505 113.67 -181.505 113.67 -179 112 C-180.98 111.67 -182.96 111.34 -185 111 C-185.99 113.97 -186.98 116.94 -188 120 C-188.495 120.165 -188.495 120.165 -191 121 C-190.856 121.447 -190.711 121.895 -190.562 122.355 C-190.47 122.658 -190.47 122.658 -190 124.188 C-189.907 124.483 -189.907 124.483 -189.438 125.98 C-188.913 128.403 -188.932 130.526 -189 133 C-188.215 132.916 -187.43 132.832 -186.621 132.746 C-180.938 132.181 -175.633 131.711 -170 133 C-170 133.66 -170 134.32 -170 135 C-169.34 135 -168.68 135 -168 135 C-167.67 133.35 -167.34 131.7 -167 130 C-166.01 130.33 -165.02 130.66 -164 131 C-164 130.34 -164 129.68 -164 129 C-161.69 129.33 -159.38 129.66 -157 130 C-156.34 130.99 -155.68 131.98 -155 133 C-155.66 137.95 -156.32 142.9 -157 148 C-157.33 148.33 -157.66 148.66 -158 149 C-158.66 152.96 -159.32 156.92 -160 161 C-160.66 161.66 -161.32 162.32 -162 163 C-162.133 163.41 -162.266 163.82 -162.402 164.242 C-162.579 164.781 -162.756 165.32 -162.938 165.875 C-163.112 166.409 -163.286 166.942 -163.465 167.492 C-164 169 -164 169 -165 171 C-165.66 171 -166.32 171 -167 171 C-167 171.66 -167 172.32 -167 173 C-166.34 173 -165.68 173 -165 173 C-165 173.66 -165 174.32 -165 175 C-165.99 175 -166.98 175 -168 175 C-168.33 175.99 -168.66 176.98 -169 178 C-169.99 178 -170.98 178 -172 178 C-172 178.66 -172 179.32 -172 180 C-171.34 180 -170.68 180 -170 180 C-170 180.66 -170 181.32 -170 182 C-173.63 182.33 -177.26 182.66 -181 183 C-181 182.01 -181 181.02 -181 180 C-183.31 179.67 -185.62 179.34 -188 179 C-188 177.68 -188 176.36 -188 175 C-189.32 174.67 -190.64 174.34 -192 174 C-192.33 172.35 -192.66 170.7 -193 169 C-193.66 169 -194.32 169 -195 169 C-195.33 166.36 -195.66 163.72 -196 161 C-196.66 161.33 -197.32 161.66 -198 162 C-198.133 162.771 -198.266 163.542 -198.402 164.336 C-198.581 165.349 -198.759 166.362 -198.938 167.375 C-199.025 167.883 -199.112 168.391 -199.201 168.914 C-199.245 169.159 -199.245 169.159 -199.465 170.398 C-199.543 170.849 -199.622 171.299 -199.703 171.763 C-200 173 -200 173 -201 175 C-201.147 176.081 -201.247 177.169 -201.316 178.258 C-201.358 178.883 -201.4 179.508 -201.443 180.152 C-201.463 180.478 -201.463 180.478 -201.562 182.125 C-201.606 182.784 -201.649 183.442 -201.693 184.121 C-201.799 185.747 -201.901 187.373 -202 189 C-202.33 189 -202.66 189 -203 189 C-205.133 182.335 -205.359 176.063 -205.312 169.125 C-205.311 168.577 -205.31 168.029 -205.308 167.465 C-205.24 153.429 -202.854 140.271 -199.027 126.777 C-198.09 123.431 -197.336 120.061 -196.601 116.666 C-193.979 104.729 -189.987 93.911 -183.75 83.375 C-177.005 72.358 -168.905 62.337 -160 53 C-159.56 52.538 -159.12 52.076 -158.667 51.601 C-153.703 46.428 -148.786 41.466 -142.852 37.414 C-140.802 35.849 -139.072 34.113 -137.268 32.276 C-128.289 23.242 -117.269 16.764 -106 11 C-91.697 3.983 -75.567 -0.018 -59.828 -2.175 C-40.479 -4.592 -18.949 -4.904 0 0 Z M-45 97 C-48.3 98.65 -51.115 100.138 -53.766 102.719 C-57.571 107.079 -57.571 107.079 -58.567 109.218 C-59.213 111.876 -59.122 114.474 -59.098 117.199 C-59.097 117.497 -59.097 117.497 -59.093 119.002 C-59.088 120.897 -59.075 122.792 -59.062 124.688 C-59.057 125.975 -59.053 127.262 -59.049 128.549 C-59.038 131.699 -59.021 134.85 -59 138 C-59.299 137.864 -59.299 137.864 -60.813 137.178 C-61.616 136.816 -62.419 136.455 -63.223 136.094 C-63.615 135.916 -64.007 135.737 -64.411 135.554 C-67.755 134.054 -71.17 132.905 -74.66 131.789 C-77.703 130.763 -80.668 129.574 -83.638 128.357 C-84.757 127.9 -85.878 127.449 -87 127 C-87.483 126.798 -87.967 126.595 -88.465 126.387 C-90.698 125.824 -92.902 125.895 -95.188 125.938 C-95.419 125.94 -95.419 125.94 -96.592 125.951 C-97.728 125.963 -98.864 125.981 -100 126 C-106.742 130.615 -106.742 130.615 -109.352 133.488 C-111.023 135.855 -112.27 138.338 -113.25 141.062 C-114.658 146.523 -114.164 152.407 -114 158 C-113.356 159.147 -112.71 160.293 -112.062 161.438 C-111.703 162.076 -111.343 162.714 -110.973 163.371 C-110 165 -110 165 -109 166 C-107.02 166 -105.04 166 -103 166 C-103 166.66 -103 167.32 -103 168 C-96.185 172.116 -96.185 172.116 -93.562 172.75 C-93.047 172.832 -92.531 172.915 -92 173 C-91.835 173.33 -91.835 173.33 -91 175 C-90.34 175 -89.68 175 -89 175 C-91.953 178.071 -95.092 180.769 -98.414 183.438 C-100 185 -100 185 -101.211 187.188 C-101.471 187.786 -101.732 188.384 -102 189 C-102.33 189.165 -102.33 189.165 -104 190 C-104.714 191.779 -105.026 193.279 -105.203 195.199 C-105.281 199.351 -105.226 203.134 -103.938 207.125 C-102.601 210.247 -100.826 212.759 -98.625 215.312 C-96.787 217.314 -94.911 219.301 -92.688 220.875 C-88.879 222.869 -84.196 223.307 -80 224 C-73.89 222.753 -68.585 220.614 -63 217.875 C-62.218 217.498 -61.435 217.122 -60.652 216.746 C-58.765 215.837 -56.881 214.922 -55 214 C-54.955 214.431 -54.91 214.862 -54.864 215.307 C-53.999 223.472 -53.014 231.603 -51.562 239.688 C-51.453 240.333 -51.343 240.979 -51.229 241.645 C-50.521 245.417 -49.423 248.562 -47.601 251.945 C-47.502 252.119 -47.502 252.119 -47 253 C-45.733 253.984 -44.462 254.962 -43.188 255.938 C-42.831 256.215 -42.475 256.493 -42.107 256.779 C-40.658 257.883 -39.285 258.882 -37.596 259.582 C-35.808 260.05 -34.273 260.113 -32.426 260.098 C-31.759 260.094 -31.092 260.091 -30.404 260.088 C-29.714 260.08 -29.024 260.071 -28.312 260.062 C-27.962 260.06 -27.962 260.06 -26.186 260.049 C-24.457 260.037 -22.729 260.021 -21 260 C-10.442 254.998 -10.442 254.998 -6 251 C-5.34 249.68 -4.68 248.36 -4 247 C-3.67 237.43 -3.34 227.86 -3 218 C4.865 219.124 4.865 219.124 7.395 220.305 C7.953 220.557 8.511 220.81 9.086 221.07 C9.656 221.336 10.225 221.601 10.812 221.875 C16.429 224.376 21.956 226.744 28 228 C30.363 228.192 32.639 228.211 35 228 C38.294 226.537 41.571 225.068 44.469 222.902 C48.075 219.492 50.519 215.255 53 211 C53.059 208.771 53.094 206.542 53.125 204.312 C53.133 204 53.133 204 53.176 202.416 C53.201 199.993 53.222 197.768 52.546 195.427 C52.08 194.264 51.548 193.127 51 192 C45.909 187.938 40.917 184.78 35 182 C33.536 181.269 32.077 180.528 30.617 179.788 C25.148 177.017 19.633 174.418 14 172 C14.33 170.68 14.66 169.36 15 168 C17.97 166.02 20.94 164.04 24 162 C24.66 159.69 25.32 157.38 26 155 C26.33 154.67 26.33 154.67 28 153 C30.31 152.34 32.62 151.68 35 151 C35.66 149.68 36.32 148.36 37 147 C37 143.7 37 140.4 37 137 C33.299 128.557 33.299 128.557 31.059 125.872 C28.517 123.259 25.703 121.076 22.621 119.129 C20.949 118.329 19.249 118.033 17.422 117.789 C14.845 117.638 12.589 117.846 10.09 118.5 C2.937 121.003 -3.567 125.057 -10 129 C-13.3 129 -16.6 129 -20 129 C-22.31 127.68 -24.62 126.36 -27 125 C-27.99 122.69 -28.98 120.38 -30 118 C-29.67 115.69 -29.34 113.38 -29 111 C-27.35 109.35 -25.7 107.7 -24 106 C-23.01 105.67 -22.02 105.34 -21 105 C-21.33 104.34 -21.33 104.34 -23 101 C-25.64 99.68 -28.28 98.36 -31 97 C-35.62 97 -40.24 97 -45 97 Z M-140 134 C-140.66 134.99 -140.66 134.99 -144 140 C-146.87 152.387 -148.064 164.637 -146.76 177.34 C-146.526 179.23 -146.276 181.116 -146 183 C-145.67 183 -145.34 183 -145 183 C-144.67 179.37 -144.34 175.74 -144 172 C-141.69 169.36 -139.38 166.72 -137 164 C-136.888 154.946 -137.302 146.026 -138 137 C-138.66 136.01 -139.32 135.02 -140 134 Z M72 217 C71.709 217.402 71.417 217.804 71.117 218.218 C65.254 226.296 59.336 234.284 53 242 C53 242.99 53 243.98 53 245 C58.834 239.571 64.377 234.352 68.161 227.262 C68.365 226.877 68.57 226.491 68.781 226.094 C69.982 224.031 71.24 222.596 73 221 C72.67 219.68 72.34 218.36 72 217 Z " fill="#C0ADAD" transform="translate(537,387)"/>
<path d="M0 0 C0.66 0.99 1.32 1.98 2 3 C1.67 4.65 1.34 6.3 1 8 C1.66 8 2.32 8 3 8 C2.97 8.552 2.939 9.105 2.908 9.674 C2.636 14.73 2.395 19.785 2.19 24.844 C2.075 27.583 1.907 30.31 1.688 33.043 C1.165 41.534 2.785 49.048 4.999 57.192 C6.279 61.81 7.617 66.411 9 71 C9.33 71.165 9.33 71.165 11 72 C11.046 72.265 11.046 72.265 11.277 73.605 C12.664 78.2 15.36 82.115 18.023 86.074 C23.021 93 29.574 98.536 35.985 104.115 C36.975 104.978 37.962 105.845 38.947 106.714 C42.916 110.203 46.936 113.622 51 117 C51.402 117.339 51.804 117.679 52.218 118.028 C54.731 120.141 57.316 122.109 60 124 C60.527 124.373 61.054 124.747 61.597 125.131 C73.13 133.156 85.547 138.689 99.039 142.59 C101.028 143.006 102.764 143.1 104.793 143.062 C105.501 143.054 106.209 143.046 106.939 143.038 C107.681 143.025 108.423 143.013 109.188 143 C113.794 142.949 118.258 142.902 122.812 143.625 C126.932 144.208 130.563 143.542 134.604 142.767 C138.768 141.977 142.76 141.776 147 142 C147 142.33 147 142.66 147 143 C145.35 143.33 143.7 143.66 142 144 C144.711 144.287 147.285 144.272 150 144 C152.493 143.37 154.896 142.499 157.309 141.618 C159.786 140.721 162.171 139.911 164.77 139.453 C170.388 138.446 175.108 136.592 180.083 133.835 C181.372 133.106 182.656 132.367 183.938 131.625 C184.144 131.507 184.144 131.507 185.189 130.907 C190.047 128.099 194.186 125.165 198 121 C198.919 120.208 199.852 119.429 200.812 118.688 C201.231 118.361 201.65 118.035 202.082 117.699 C202.385 117.468 202.688 117.238 203 117 C203.33 116.34 203.66 115.68 204 115 C204.99 115 205.98 115 207 115 C207 114.34 207 113.68 207 113 C207.66 112.505 207.66 112.505 211 110 C211.66 110 212.32 110 213 110 C214.192 107.696 215.214 105.47 216 103 C216.364 102.72 216.727 102.441 217.102 102.152 C221.294 98.809 224.623 95.156 228 91 C228.66 91 229.32 91 230 91 C230.66 89.35 231.32 87.7 232 86 C232.495 85.67 232.495 85.67 235 84 C234.482 86.591 233.644 88.765 232.5 91.125 C231.54 93.275 230.999 95.01 230.723 97.359 C230.642 98.621 230.562 99.883 230.487 101.145 C230.257 103.969 229.633 106.306 228.506 108.907 C227.705 110.623 226.873 112.319 226 114 C226.66 115.98 227.32 117.96 228 120 C228.99 120.66 229.98 121.32 231 122 C230.34 122 229.68 122 229 122 C229.33 122.66 229.66 123.32 230 124 C237.465 125.253 237.465 125.253 240.875 124.691 C242.603 124.176 244.296 123.589 246 123 C247.476 122.612 248.955 122.237 250.438 121.875 C251.117 121.707 251.796 121.54 252.496 121.367 C252.744 121.307 252.744 121.307 254 121 C255.32 119.02 256.64 117.04 258 115 C258.66 115 259.32 115 260 115 C260.66 113.02 261.32 111.04 262 109 C263.65 108.01 265.3 107.02 267 106 C267.33 103.03 267.66 100.06 268 97 C268.371 96.495 268.371 96.495 270.25 93.938 C272.766 90.426 274.937 86.792 277 83 C276.34 82.34 275.68 81.68 275 81 C275 80.01 275 79.02 275 78 C275.66 77.67 276.32 77.34 277 77 C276.67 74.36 276.34 71.72 276 69 C277.97 64.191 279.803 59.732 283.266 55.777 C283.508 55.521 283.75 55.264 284 55 C284 54.34 284 53.68 284 53 C284.66 53 285.32 53 286 53 C286 52.34 286 51.68 286 51 C285.01 51 284.02 51 283 51 C283 50.34 283 49.68 283 49 C283.338 48.807 283.675 48.613 284.023 48.414 C284.469 48.154 284.915 47.893 285.375 47.625 C285.595 47.497 285.595 47.497 286.711 46.852 C287.983 46.011 288.965 45.113 290 44 C290 42.68 290 41.36 290 40 C290.495 39.835 290.495 39.835 293 39 C292.859 37.708 292.712 36.416 292.562 35.125 C292.481 34.406 292.4 33.686 292.316 32.945 C292 31 292 31 291 29 C291.321 28.284 291.643 27.569 291.974 26.831 C292.704 25 293.164 23.379 293.319 21.413 C293.36 20.509 293.391 19.604 293.414 18.699 C293.424 18.459 293.424 18.459 293.473 17.241 C293.532 15.723 293.579 14.206 293.625 12.688 C293.663 11.65 293.702 10.613 293.742 9.576 C293.838 7.051 293.922 4.526 294 2 C294.33 2 294.66 2 295 2 C295.432 37.548 295.432 37.548 293 50 C292.892 50.621 292.785 51.243 292.674 51.883 C290.292 65.392 285.037 77.772 279.706 90.332 C278.992 92.02 278.284 93.71 277.577 95.402 C276.4 98.215 275.208 101.022 274.004 103.824 C273.552 104.878 273.104 105.934 272.658 106.99 C268.96 115.737 264.337 123.316 258.051 130.461 C257.144 131.438 256.232 132.41 255.312 133.375 C254.853 133.869 254.393 134.362 253.92 134.871 C251.335 137.637 248.693 140.339 246 143 C245.34 143 244.68 143 244 143 C244 143.66 244 144.32 244 145 C243.562 145.378 243.123 145.755 242.672 146.145 C238.907 149.412 235.202 152.727 231.552 156.123 C222.143 164.85 212.725 171.61 201 177 C186.964 182.885 171.761 185.799 156.678 187.212 C151.5 187.732 146.6 188.707 141.562 190 C129.144 193.126 116.354 194.675 103.544 193.794 C82.719 191.821 62.579 184.04 43.625 175.562 C30.067 169.403 17.379 162.637 6.439 152.376 C5.964 151.922 5.489 151.468 5 151 C4.78 150.79 4.78 150.79 3.667 149.729 C-8.879 137.492 -17.831 121.333 -26 106 C-26.291 105.462 -26.582 104.924 -26.882 104.369 C-32.225 94.437 -36.204 84.025 -38.764 73.036 C-39.563 69.64 -40.474 66.284 -41.445 62.934 C-41.577 62.479 -41.708 62.025 -41.844 61.557 C-42.378 59.718 -42.913 57.879 -43.457 56.043 C-45.32 49.745 -46.815 43.461 -48 37 C-47.67 35.68 -47.34 34.36 -47 33 C-46.67 33.99 -46.34 34.98 -46 36 C-45.951 35.455 -45.902 34.909 -45.852 34.348 C-45.085 26.616 -43.845 19.33 -40.586 12.215 C-40.393 11.814 -40.199 11.413 -40 11 C-39.34 11.66 -38.68 12.32 -38 13 C-38 15.64 -38 18.28 -38 21 C-37.34 21 -36.68 21 -36 21 C-35.67 22.65 -35.34 24.3 -35 26 C-33.68 26.33 -32.36 26.66 -31 27 C-31 28.32 -31 29.64 -31 31 C-28.69 31.33 -26.38 31.66 -24 32 C-24 32.99 -24 33.98 -24 35 C-23.742 34.918 -23.742 34.918 -22.438 34.5 C-19.267 33.85 -16.224 33.918 -13 34 C-13 33.34 -13 32.68 -13 32 C-13.66 32 -14.32 32 -15 32 C-15 31.34 -15 30.68 -15 30 C-14.01 30 -13.02 30 -12 30 C-11.67 28.68 -11.34 27.36 -11 26 C-10.01 26.33 -9.02 26.66 -8 27 C-8 26.34 -8 25.68 -8 25 C-8.66 25 -9.32 25 -10 25 C-10 24.34 -10 23.68 -10 23 C-9.34 23 -8.68 23 -8 23 C-7.807 22.42 -7.613 21.84 -7.414 21.242 C-7.284 20.852 -7.284 20.852 -6.625 18.875 C-6.488 18.463 -6.351 18.05 -6.209 17.625 C-5.619 15.853 -5.028 14.081 -4.426 12.312 C-3.157 8.576 -2.057 4.801 -1 1 C-0.67 0.67 -0.34 0.34 0 0 Z " fill="#7B4346" transform="translate(380,535)"/>
<path d="M0 0 C0.622 0.003 1.244 0.006 1.885 0.01 C2.206 0.014 2.206 0.014 3.832 0.035 C4.486 0.04 5.14 0.044 5.814 0.049 C7.425 0.061 9.035 0.079 10.645 0.098 C13.285 1.418 15.925 2.738 18.645 4.098 C18.975 4.758 18.975 4.758 20.645 8.098 C18.335 9.418 16.025 10.738 13.645 12.098 C12.985 13.418 12.325 14.738 11.645 16.098 C11.81 17.418 11.81 17.418 12.645 24.098 C13.635 25.748 14.625 27.398 15.645 29.098 C17.625 30.088 19.605 31.078 21.645 32.098 C24.945 32.098 28.245 32.098 31.645 32.098 C34.138 30.611 36.624 29.119 39.074 27.562 C43.209 24.961 47.168 22.476 51.973 21.332 C54.869 20.926 57.729 20.938 60.645 21.098 C63.85 22.363 67.015 23.718 69.662 25.959 C72.497 28.713 74.891 31.679 76.746 35.172 C77.447 36.786 78.057 38.439 78.645 40.098 C78.645 43.398 78.645 46.698 78.645 50.098 C77.655 51.748 76.665 53.398 75.645 55.098 C73.335 55.758 71.025 56.418 68.645 57.098 C68.315 57.428 68.315 57.428 66.645 59.098 C66.315 61.078 65.985 63.058 65.645 65.098 C62.345 67.408 59.045 69.718 55.645 72.098 C55.645 73.088 55.645 74.078 55.645 75.098 C55.929 75.219 55.929 75.219 57.367 75.832 C61.721 77.713 65.885 79.689 69.941 82.168 C71.66 83.106 73.413 83.8 75.235 84.508 C77.979 85.656 80.585 87.073 83.207 88.473 C83.771 88.764 84.335 89.055 84.916 89.355 C87.588 90.781 89.895 92.175 92.047 94.324 C92.574 94.909 93.101 95.495 93.645 96.098 C94.85 99.857 94.759 103.447 94.707 107.348 C94.703 107.997 94.698 108.647 94.693 109.316 C94.682 110.91 94.665 112.504 94.645 114.098 C89.659 122.648 89.659 122.648 86.113 126 C83.215 128.166 79.939 129.634 76.645 131.098 C73.507 131.347 70.586 131.317 67.508 130.6 C65.221 129.9 62.964 129.14 60.707 128.348 C59.947 128.095 59.187 127.842 58.404 127.582 C53.234 125.816 48.465 123.66 43.645 121.098 C41.995 121.098 40.345 121.098 38.645 121.098 C38.315 130.668 37.985 140.238 37.645 150.098 C36.325 152.078 35.005 154.058 33.645 156.098 C32.043 157.081 30.438 158.059 28.832 159.035 C28.38 159.313 27.928 159.591 27.463 159.877 C27.021 160.144 26.58 160.412 26.125 160.688 C25.923 160.811 25.923 160.811 24.903 161.433 C23.49 162.179 22.19 162.686 20.645 163.098 C18.927 163.211 18.927 163.211 17.07 163.195 C16.403 163.192 15.736 163.189 15.049 163.186 C14.359 163.177 13.668 163.169 12.957 163.16 C12.255 163.156 11.553 163.151 10.83 163.146 C9.102 163.135 7.373 163.117 5.645 163.098 C3.005 161.778 0.365 160.458 -2.355 159.098 C-6.066 154.996 -6.066 154.996 -7.355 153.098 C-9.059 149.001 -9.839 144.832 -10.426 140.457 C-10.512 139.849 -10.598 139.241 -10.686 138.614 C-10.956 136.692 -11.218 134.77 -11.48 132.848 C-11.664 131.543 -11.847 130.238 -12.031 128.934 C-12.205 127.691 -12.378 126.449 -12.551 125.207 C-12.591 124.915 -12.591 124.915 -12.797 123.439 C-12.871 122.898 -12.944 122.357 -13.02 121.8 C-13.085 121.325 -13.15 120.85 -13.217 120.361 C-13.355 119.098 -13.355 119.098 -13.355 117.098 C-13.894 117.365 -14.433 117.632 -14.989 117.908 C-17.018 118.909 -19.052 119.901 -21.089 120.888 C-21.964 121.314 -22.838 121.744 -23.71 122.177 C-31.864 126.224 -31.864 126.224 -36.477 126.883 C-37.427 126.954 -38.377 127.025 -39.355 127.098 C-42.985 126.108 -46.615 125.118 -50.355 124.098 C-57.493 118.269 -57.493 118.269 -59.742 115.215 C-61.083 112.913 -62.151 110.754 -62.945 108.207 C-63.414 105.798 -63.502 103.478 -63.48 101.035 C-63.484 100.601 -63.488 100.168 -63.492 99.721 C-63.486 97.808 -63.366 96.135 -62.848 94.289 C-62.685 93.896 -62.523 93.503 -62.355 93.098 C-61.86 92.768 -61.86 92.768 -59.355 91.098 C-59.025 90.396 -58.695 89.695 -58.355 88.973 C-57.52 87.55 -56.663 86.372 -55.428 85.272 C-53.144 83.445 -50.761 81.76 -48.355 80.098 C-48.025 79.438 -47.695 78.778 -47.355 78.098 C-48.015 78.098 -48.675 78.098 -49.355 78.098 C-49.52 77.768 -49.52 77.768 -50.355 76.098 C-50.814 75.904 -51.273 75.711 -51.746 75.512 C-55.002 74.13 -58.217 72.73 -61.355 71.098 C-61.355 70.438 -61.355 69.778 -61.355 69.098 C-63.335 69.098 -65.315 69.098 -67.355 69.098 C-68.007 68.331 -68.651 67.559 -69.293 66.785 C-69.653 66.356 -70.012 65.927 -70.383 65.484 C-71.355 64.098 -71.355 64.098 -71.969 62.816 C-73.033 58.087 -72.759 52.902 -72.355 48.098 C-71.774 45.129 -70.847 42.724 -69.355 40.098 C-67.546 37.228 -65.659 34.602 -63.355 32.098 C-61.708 30.815 -60.254 29.991 -58.355 29.098 C-54.523 28.798 -50.666 28.552 -46.899 29.442 C-42.017 30.931 -37.381 32.98 -32.883 35.379 C-30.217 36.633 -27.407 37.466 -24.602 38.352 C-22.15 39.166 -19.754 40.138 -17.355 41.098 C-17.355 32.188 -17.355 23.278 -17.355 14.098 C-13.355 7.098 -13.355 7.098 -11.539 5.137 C-11.251 4.903 -11.251 4.903 -9.793 3.723 C-9.504 3.482 -9.504 3.482 -8.039 2.262 C-6.355 1.098 -6.355 1.098 -4.96 0.531 C-3.232 0.064 -1.787 -0.016 0 0 Z " fill="#030203" transform="translate(495.35546875,483.90234375)"/>
<path d="M0 0 C0.66 0.99 1.32 1.98 2 3 C2.698 12.026 3.112 20.946 3 30 C0.69 32.64 -1.62 35.28 -4 38 C-4.33 41.63 -4.66 45.26 -5 49 C-5.33 49 -5.66 49 -6 49 C-7.648 37.746 -7.938 26.18 -5.925 14.959 C-5.331 11.96 -4.69 8.978 -4 6 C-2.68 4.02 -1.36 2.04 0 0 Z " fill="#837681" transform="translate(397,521)"/>
<path d="M0 0 C0.99 0.33 1.98 0.66 3 1 C2.505 1.495 2.505 1.495 0 4 C0.459 4.231 0.918 4.461 1.391 4.699 C6.343 7.331 6.343 7.331 8.355 9.379 C9.281 10.552 10.147 11.772 11 13 C12.98 13 14.96 13 17 13 C17 13.66 17 14.32 17 15 C17.626 15.133 18.253 15.266 18.898 15.402 C19.716 15.579 20.533 15.756 21.375 15.938 C22.187 16.112 22.999 16.286 23.836 16.465 C26 17 26 17 28 18 C27.835 17.34 27.835 17.34 27 14 C27.99 14 28.98 14 30 14 C30.33 13.34 30.66 12.68 31 12 C30.67 14.64 30.34 17.28 30 20 C29.835 20.165 29.835 20.165 29 21 C28.981 21.284 28.981 21.284 28.887 22.723 C28.542 26.769 28.065 30.317 26.438 34.062 C25.971 35.048 25.496 36.029 25 37 C24.67 37 24.34 37 24 37 C24.036 36.561 24.071 36.123 24.108 35.671 C24.266 33.677 24.414 31.682 24.562 29.688 C24.619 28.997 24.675 28.307 24.732 27.596 C24.781 26.929 24.829 26.262 24.879 25.574 C24.926 24.962 24.973 24.349 25.022 23.718 C25 22 25 22 24 19 C21.69 18.67 19.38 18.34 17 18 C17 18.66 17 19.32 17 20 C16.34 20 15.68 20 15 20 C14.34 21.32 13.68 22.64 13 24 C12.34 24 11.68 24 11 24 C11 23.34 11 22.68 11 22 C4.73 22 -1.54 22 -8 22 C-7.67 20.68 -7.34 19.36 -7 18 C-6.34 18.186 -5.68 18.371 -5 18.562 C-3.193 18.937 -1.741 18.981 0.113 18.844 C2.081 18.592 4.041 18.316 6 18 C5.67 16.68 5.34 15.36 5 14 C3.02 13.34 1.04 12.68 -1 12 C-1.66 11.01 -2.32 10.02 -3 9 C-2.67 8.67 -2.34 8.34 -2 8 C-2 6.02 -2 4.04 -2 2 C-1.34 2 -0.68 2 0 2 C0 1.34 0 0.68 0 0 Z " fill="#7B4346" transform="translate(356,498)"/>
<path d="M0 0 C1.32 0 2.64 0 4 0 C4 0.66 4 1.32 4 2 C3.34 2 2.68 2 2 2 C2 3.98 2 5.96 2 8 C2.66 8.33 3.32 8.66 4 9 C3.67 9.165 3.67 9.165 2 10 C3.155 10.495 3.155 10.495 9 13 C9.66 14.98 10.32 16.96 11 19 C8.855 19.165 8.855 19.165 -2 20 C-3.32 18.35 -4.64 16.7 -6 15 C-6 13.35 -6 11.7 -6 10 C-5.34 9.67 -4.68 9.34 -4 9 C-3.795 8.518 -3.59 8.036 -3.379 7.539 C-3.109 6.907 -2.84 6.276 -2.562 5.625 C-2.296 4.999 -2.029 4.372 -1.754 3.727 C-1.205 2.468 -0.614 1.228 0 0 Z " fill="#9F4944" transform="translate(352,498)"/>
<path d="M0 0 C0.33 1.32 0.66 2.64 1 4 C0.443 4.474 -0.114 4.949 -0.688 5.438 C-2.121 6.851 -3.049 8.092 -3.992 9.883 C-4.345 10.602 -4.699 11.321 -5.062 12.062 C-7.264 16.43 -10.336 19.657 -13.812 23.062 C-15.527 24.724 -17.253 26.372 -19 28 C-19 27.01 -19 26.02 -19 25 C-18.733 24.684 -18.733 24.684 -17.383 23.086 C-11.183 15.668 -5.532 7.925 0 0 Z " fill="#918182" transform="translate(609,604)"/>
</svg>
