<?xml version="1.0" encoding="UTF-8"?>
<!-- Generator: visioncortex VTracer 0.6.5 -->
<svg version="1.1" xmlns="http://www.w3.org/2000/svg" width="734" height="368">
<rect width="734" height="368" fill="#FEFEFE"/>
<rect x="0.00" y="0.00" width="734.00" height="368.00" fill="#FEFEFE" />
<path d="M428.38,106.31 C432.33,110.37 435.35,114.65 436.45,120.30 C436.73,125.91 435.26,130.51 432.00,135.00 C425.56,142.51 417.08,146.41 408.00,150.00 L406.00,150.00 L407.00,153.00 L412.38,155.19 C421.80,158.93 429.80,164.16 435.00,173.00 C436.91,178.73 436.54,183.48 434.56,189.06 C429.06,198.67 419.82,202.87 410.00,207.00 L406.00,209.00 C407.00,211.00 407.00,211.00 409.84,212.26 L413.50,213.69 C422.89,217.62 429.64,222.29 435.00,231.00 C436.93,236.78 436.54,241.52 434.50,247.12 C429.18,256.39 419.58,261.10 410.00,265.00 C384.49,272.82 355.39,273.06 330.38,263.25 C322.12,259.40 314.32,254.26 310.00,246.00 C308.72,240.86 307.99,236.62 309.95,231.54 C314.40,223.23 321.04,218.25 329.53,214.39 C338.13,211.00 338.13,211.00 341.00,211.00 C338.55,207.32 337.12,207.13 333.00,205.75 C322.89,202.01 315.89,197.06 310.00,188.00 C308.63,183.90 308.33,180.24 309.00,176.00 C311.91,168.84 316.33,163.81 323.00,160.00 C334.66,154.00 334.66,154.00 341.00,153.00 C337.96,149.96 336.29,149.16 332.38,147.69 C322.72,143.78 314.86,138.84 309.62,129.56 C308.31,124.17 308.57,120.12 310.56,114.94 C316.28,104.93 325.57,100.10 336.00,96.00 C366.10,86.52 401.87,88.15 428.38,106.31 Z" fill="#000000"/>
<rect x="59.96" y="89.82" width="207.04" height="101.79" rx="13.03" ry="13.03" fill="#FFFFFF" />
<ellipse cx="573.20" cy="140.12" rx="101.65" ry="51.20" fill="#000000" />
<path d="M81.00,91.00 L87.52,90.82 L91.82,90.78 L96.59,90.74 L101.58,90.70 L147.16,90.45 L180.87,90.24 L204.55,90.11 L218.70,90.02 L232.03,89.96 L236.91,89.91 C249.18,89.68 249.18,89.68 253.70,92.97 L259.00,100.00 L261.53,103.07 L263.50,105.56 L265.53,108.13 L267.00,110.00 L261.31,133.81 L252.35,169.24 L248.43,185.27 L247.74,187.96 L247.00,190.00 C244.11,191.44 241.61,191.14 238.38,191.15 L234.08,191.18 L229.34,191.19 L224.37,191.22 L208.01,191.27 L202.39,191.29 L178.99,191.34 L145.44,191.45 L121.86,191.51 L107.77,191.56 L94.51,191.58 L89.65,191.61 L83.00,191.61 L79.25,191.62 C75.08,190.82 73.70,189.19 71.00,186.00 L68.07,182.98 L65.12,179.75 L62.13,176.55 C60.00,173.00 60.00,173.00 59.96,168.92 L64.56,150.50 L74.30,112.00 C78.75,93.25 78.75,93.25 81.00,91.00 Z M85.00,96.00 C82.28,100.30 81.08,104.05 79.95,109.03 L79.41,111.38 L78.27,116.36 L75.30,129.27 L74.70,131.83 L68.68,154.67 C66.57,162.00 66.57,162.00 67.00,166.00 L68.00,167.00 L78.06,167.20 L81.12,167.22 L87.56,167.24 L97.43,167.31 L103.68,167.33 L106.67,167.37 L109.45,167.36 L111.90,167.37 C114.00,167.00 114.00,167.00 117.00,164.00 L118.69,158.81 L119.45,156.08 L120.00,154.00 L122.00,154.00 L125.00,166.00 C128.13,167.56 131.16,167.11 134.63,167.10 L136.91,167.09 L144.12,167.06 L149.01,167.05 L161.00,167.00 L162.64,164.92 L164.81,162.19 L166.96,159.48 L172.00,154.00 L171.93,156.34 L171.88,159.38 L171.81,162.40 L172.00,165.00 C174.00,167.00 174.00,167.00 176.16,167.26 L178.86,167.28 L181.93,167.30 L185.25,167.30 L188.65,167.31 L195.78,167.32 L206.70,167.36 L213.62,167.36 L216.94,167.39 L220.01,167.37 L222.72,167.37 C225.00,167.00 225.00,167.00 228.00,164.00 L230.27,155.29 L230.88,152.66 L232.81,144.19 L235.47,132.69 L236.13,129.86 L242.55,106.04 L244.00,100.00 L242.00,96.00 L214.44,95.79 L201.64,95.70 L189.28,95.62 L184.57,95.58 L177.97,95.55 L174.18,95.52 C171.00,96.00 171.00,96.00 168.64,97.89 L164.75,104.25 L163.00,108.00 L161.00,108.00 L160.82,105.63 L160.56,102.56 L160.32,99.50 C160.00,97.00 160.00,97.00 159.00,96.00 L152.09,95.89 L147.60,95.89 L142.72,95.90 L137.74,95.91 L124.63,95.93 L111.26,95.95 L85.00,96.00 Z" fill="#000000"/>
<ellipse cx="372.59" cy="238.77" rx="57.84" ry="26.21" fill="#FFFFFF" />
<rect x="-0.78" y="46.49" width="122.16" height="28.39" rx="4.12" ry="4.12" fill="#000000" />
<ellipse cx="632.61" cy="250.39" rx="41.61" ry="20.91" fill="#000000" />
<ellipse cx="516.58" cy="250.15" rx="41.58" ry="20.60" fill="#000000" />
<rect x="211.00" y="46.63" width="99.00" height="27.73" rx="4.07" ry="4.07" fill="#000000" />
<path d="M99.50,119.31 C102.00,120.00 102.00,120.00 104.00,122.00 L105.62,120.44 C108.00,119.00 108.00,119.00 111.25,119.31 L114.00,120.00 L115.00,122.00 L119.00,119.00 L123.00,121.00 C125.00,121.00 125.00,121.00 128.00,119.00 L135.00,119.00 L142.00,125.00 L144.38,122.56 C147.28,119.73 147.98,119.09 151.94,118.75 L155.00,119.00 C158.09,122.09 158.45,122.92 159.00,127.00 L161.00,127.00 L161.31,124.69 C162.00,122.00 162.00,122.00 165.00,119.00 C171.90,118.34 171.90,118.34 175.50,120.50 L177.00,122.00 L177.00,125.00 L179.00,125.00 L181.00,120.00 L184.00,119.00 L186.00,121.00 C184.83,128.21 183.22,135.04 181.00,142.00 L176.00,143.00 C174.79,138.15 175.35,134.93 176.00,130.00 C173.43,133.86 173.85,136.45 174.00,141.00 L169.00,144.00 L165.00,139.00 L160.00,144.00 C158.00,143.00 158.00,143.00 156.00,139.00 L154.44,140.94 C151.34,143.56 148.98,143.69 145.00,144.00 L138.00,137.00 L136.25,139.37 C134.00,142.00 134.00,142.00 130.00,144.00 L122.00,144.00 L119.00,141.00 L117.00,143.00 L112.00,142.00 L112.00,140.00 L110.30,141.45 C105.99,144.35 100.64,144.18 95.57,143.83 L90.00,143.00 C90.48,134.97 92.00,127.50 95.00,120.00 C97.00,119.00 97.00,119.00 99.50,119.31 Z" fill="#000000"/>
<rect x="129.56" y="46.58" width="73.59" height="27.89" rx="4.12" ry="4.12" fill="#000000" />
<path d="M522.00,130.00 C526.00,131.00 526.00,131.00 528.00,133.00 L532.00,130.00 L536.00,131.00 L538.00,134.00 L540.00,131.00 L544.00,131.00 L545.00,133.00 L546.62,131.50 C549.68,129.57 551.44,129.56 555.00,130.00 C558.53,131.96 559.11,133.22 561.00,137.00 L563.06,134.06 C566.00,131.00 566.00,131.00 569.81,130.12 L573.00,130.00 L578.00,135.00 L580.00,131.00 C582.81,129.59 584.89,129.75 588.00,130.00 L592.00,133.00 L593.00,137.00 L591.50,138.50 C589.40,142.00 589.93,144.99 590.00,149.00 L588.00,151.00 C584.00,150.00 584.00,150.00 581.00,147.00 L579.00,151.00 L576.00,151.00 L574.00,147.00 L568.00,152.00 L562.00,151.00 L558.00,145.00 L556.75,147.38 C555.00,150.00 555.00,150.00 551.00,152.00 L544.00,152.00 L541.00,149.00 L539.00,151.00 L535.00,150.00 L534.00,148.00 L532.00,151.00 L516.00,151.00 C516.56,144.16 517.59,137.47 520.00,131.00 L522.00,130.00 Z" fill="#FFFFFF"/>
<path d="M542.00,162.00 L544.00,162.00 L548.00,171.00 L562.69,171.31 L566.90,171.44 L570.95,171.49 L574.68,171.57 C578.00,171.00 578.00,171.00 580.83,168.61 L586.00,162.00 L589.00,163.00 L588.94,166.44 L589.00,170.00 L590.00,171.00 L597.10,171.32 L601.46,171.44 L606.06,171.56 L610.67,171.69 L622.00,172.00 L622.00,176.00 L615.00,177.88 L611.06,178.93 C598.80,181.75 586.35,182.36 573.81,182.31 L569.47,182.30 C553.93,182.14 538.96,180.37 524.00,176.00 L524.00,172.00 L539.00,171.00 L539.94,167.06 C541.00,163.00 541.00,163.00 542.00,162.00 Z" fill="#FFFFFF"/>
<rect x="331.00" y="229.68" width="63.68" height="17.32" rx="2.34" ry="2.34" fill="#020202" />
<path d="M504.00,114.00 L508.00,115.00 L504.97,132.47 L504.38,134.77 L503.13,139.52 L501.24,146.82 L497.00,161.00 L492.00,161.00 C486.88,156.87 482.84,151.32 481.00,145.00 C480.28,138.49 481.66,134.59 485.00,129.00 C489.76,122.14 496.62,117.69 504.00,114.00 Z" fill="#FFFFFF"/>
<path d="M650.00,121.00 C653.20,121.33 654.73,121.76 657.17,123.93 L659.19,126.31 L661.23,128.68 C665.13,133.79 665.50,137.77 665.38,143.97 C664.80,148.62 663.01,151.48 660.00,155.00 L658.46,156.83 C654.09,161.58 648.88,165.31 643.00,168.00 L639.00,168.00 C638.80,162.13 639.47,157.14 640.90,151.45 L641.49,149.08 L642.74,144.18 L644.62,136.67 C647.72,124.42 647.72,124.42 650.00,121.00 Z" fill="#FFFFFF"/>
<path d="M599.00,101.31 L601.91,101.67 C608.18,102.53 613.98,104.05 620.00,106.00 L620.00,109.00 L587.00,110.00 L581.00,119.00 L578.00,118.00 L577.56,114.56 C577.00,111.00 577.00,111.00 576.00,110.00 L571.42,109.83 L568.47,109.79 L565.25,109.75 L558.59,109.65 L548.03,109.52 L537.88,109.38 L534.67,109.35 L531.71,109.30 L529.09,109.27 C527.00,109.00 527.00,109.00 525.00,107.00 C530.06,104.63 534.74,103.30 540.25,102.37 L544.45,101.65 C562.45,98.92 580.97,99.08 599.00,101.31 Z" fill="#FFFFFF"/>
<rect x="76.00" y="244.77" width="46.00" height="11.17" rx="1.12" ry="1.12" fill="#000000" />
<path d="M353.00,135.00 C355.00,137.00 355.00,137.00 356.00,142.00 L375.00,142.00 L381.00,135.00 C383.00,137.00 383.00,137.00 384.00,142.00 L398.00,143.00 L398.00,146.00 C381.71,150.44 360.74,151.94 345.00,145.00 L347.31,143.38 C350.23,140.80 351.47,138.54 353.00,135.00 Z" fill="#FFFFFF"/>
<path d="M400.00,100.00 L401.00,102.00 C397.24,103.88 392.39,103.33 388.21,103.43 L382.00,104.00 L376.00,111.00 L374.00,104.00 L371.46,103.94 L360.12,103.62 L356.13,103.53 L352.32,103.41 L348.80,103.32 C346.00,103.00 346.00,103.00 344.00,101.00 C360.64,94.28 382.90,94.69 400.00,100.00 Z" fill="#FFFFFF"/>
<path d="M215.00,119.00 L217.00,121.00 L216.98,125.79 L216.82,128.64 L216.62,131.62 L216.45,134.63 L216.00,142.00 L212.00,144.00 L209.00,141.00 L201.00,144.00 L199.00,143.00 C199.63,138.12 201.01,133.89 202.81,129.31 L204.33,125.36 C206.83,120.32 209.28,118.25 215.00,119.00 Z" fill="#000000"/>
<path d="M328.00,106.00 L331.00,107.00 C330.44,115.91 328.64,124.47 326.00,133.00 L324.00,135.00 C320.00,134.00 320.00,134.00 317.25,130.38 C314.97,126.42 314.23,123.61 315.00,119.00 C317.78,113.54 322.48,108.76 328.00,106.00 Z" fill="#FFFFFF"/>
<path d="M420.00,111.00 C424.72,111.69 424.72,111.69 427.25,114.44 C430.26,118.84 430.40,121.60 430.00,127.00 C427.45,132.31 423.13,136.17 418.00,139.00 L414.00,139.00 C414.47,129.26 417.25,120.30 420.00,111.00 Z" fill="#FFFFFF"/>
<rect x="395.00" y="230.00" width="20.13" height="16.00" fill="#000000" />
<path d="M624.75,130.31 L627.00,131.00 C628.07,135.27 627.90,138.38 627.56,142.75 L627.25,146.86 L627.00,150.00 L622.00,151.00 L621.00,149.00 L617.00,150.00 L613.00,151.00 L612.00,149.00 L614.69,141.06 L615.47,138.85 C616.63,135.75 617.67,133.33 620.03,130.98 C622.00,130.00 622.00,130.00 624.75,130.31 Z" fill="#FFFFFF"/>
<path d="M191.00,120.00 C195.00,121.00 195.00,121.00 197.00,123.00 L200.00,120.00 L204.00,120.00 C203.43,124.94 201.11,128.87 198.69,133.12 L197.50,135.29 C195.44,138.96 193.67,141.83 190.00,144.00 L186.00,143.00 C186.75,138.25 186.75,138.25 189.00,136.00 L189.56,128.44 L190.00,121.00 L191.00,120.00 Z" fill="#000000"/>
<path d="M605.00,131.00 L609.00,133.00 C611.00,133.00 611.00,133.00 615.00,131.00 L616.00,134.00 L611.62,142.12 L610.34,144.37 L606.00,151.00 L601.00,151.00 L603.00,145.00 L603.72,134.87 C604.00,132.00 604.00,132.00 605.00,131.00 Z" fill="#FFFFFF"/>
<rect x="396.00" y="182.81" width="16.25" height="9.19" rx="1.45" ry="1.45" fill="#FFFFFF" />
<rect x="333.00" y="182.77" width="16.00" height="9.34" rx="1.33" ry="1.33" fill="#FFFFFF" />
<rect x="123.00" y="244.95" width="15.00" height="10.11" fill="#000000" />
<path d="M618.00,262.00 L629.06,261.88 L632.21,261.82 C637.85,261.79 642.62,262.06 648.00,264.00 C646.00,266.00 646.00,266.00 643.00,267.00 L632.69,267.19 L629.85,267.23 C624.82,267.24 620.70,266.99 616.00,265.00 L618.00,262.00 Z" fill="#FFFFFF"/>
<rect x="396.00" y="169.77" width="16.00" height="8.46" fill="#FFFFFF" />
<rect x="333.00" y="169.90" width="16.00" height="8.22" fill="#FFFFFF" />
<path d="M487.00,240.00 L489.00,241.00 C488.54,247.00 487.69,251.51 485.00,257.00 L481.00,256.00 C479.00,253.00 479.00,253.00 478.62,250.12 C479.09,246.23 480.25,244.75 483.00,242.00 L487.00,240.00 Z" fill="#FFFFFF"/>
<path d="M605.00,241.00 C605.39,247.07 604.08,251.38 602.00,257.00 L597.00,256.00 C595.00,252.00 595.00,252.00 595.06,249.06 C596.73,243.61 599.26,241.00 605.00,241.00 Z" fill="#FFFFFF"/>
<path d="M664.00,244.00 L669.00,245.00 C671.00,249.00 671.00,249.00 670.88,251.44 C669.77,254.67 668.41,256.59 666.00,259.00 L661.00,260.00 C660.61,253.93 661.92,249.62 664.00,244.00 Z" fill="#FFFFFF"/>
<path d="M549.00,243.00 C553.00,245.00 553.00,245.00 554.00,247.00 L554.00,253.00 L549.00,259.00 L545.00,260.00 C543.96,256.11 544.09,253.64 545.31,249.81 L546.11,247.21 C547.00,245.00 547.00,245.00 549.00,243.00 Z" fill="#FFFFFF"/>
<rect x="375.00" y="182.94" width="16.00" height="7.33" rx="1.15" ry="1.15" fill="#FFFFFF" />
<rect x="354.00" y="182.81" width="16.00" height="7.42" rx="1.14" ry="1.14" fill="#FFFFFF" />
<rect x="375.00" y="170.77" width="16.00" height="7.42" rx="1.14" ry="1.14" fill="#FFFFFF" />
<rect x="354.00" y="170.73" width="16.00" height="7.33" rx="1.15" ry="1.15" fill="#FFFFFF" />
<path d="M376.00,156.00 L382.00,157.00 L387.00,163.00 L385.00,167.00 L377.00,167.00 L375.00,165.00 L375.00,157.00 L376.00,156.00 Z" fill="#FFFFFF"/>
<path d="M370.00,157.00 L370.00,165.00 L368.00,167.00 L360.00,167.00 L358.00,163.00 C364.00,155.58 364.00,155.58 370.00,157.00 Z" fill="#FFFFFF"/>
<path d="M317.00,183.00 C324.46,182.64 324.46,182.64 328.00,185.00 L329.00,192.00 C328.00,193.00 328.00,193.00 325.25,193.38 C322.00,193.00 322.00,193.00 319.19,190.75 C317.00,188.00 317.00,188.00 316.00,184.00 L317.00,183.00 Z" fill="#FFFFFF"/>
<path d="M597.00,131.00 L600.00,131.00 C599.46,137.69 598.11,143.63 596.00,150.00 L592.00,151.00 C590.94,146.78 591.20,145.12 592.25,141.00 L593.02,137.88 C593.98,135.06 595.08,133.25 597.00,131.00 Z" fill="#FFFFFF"/>
<path d="M359.00,195.00 L368.00,195.00 L370.00,197.00 L370.00,205.00 L366.00,206.00 C359.12,200.50 359.12,200.50 358.00,196.00 L359.00,195.00 Z" fill="#FFFFFF"/>
<rect x="15.00" y="55.14" width="11.00" height="9.99" fill="#F9F9F9" />
<path d="M428.00,183.00 L429.00,186.00 L425.00,192.00 L418.00,193.00 L416.00,189.00 L418.00,184.00 C421.20,182.40 424.48,182.94 428.00,183.00 Z" fill="#FFFFFF"/>
<path d="M525.19,262.44 L529.00,264.00 C526.50,266.50 525.51,266.56 522.00,267.00 C515.02,267.41 508.80,266.55 502.00,265.00 L502.00,262.00 L505.39,262.04 L509.81,262.06 L514.21,262.10 C523.50,261.86 523.50,261.86 525.19,262.44 Z" fill="#FFFFFF"/>
<path d="M379.16,194.80 L386.00,195.00 L387.00,198.00 C381.50,204.87 381.50,204.87 377.00,206.00 L375.00,204.00 L375.00,197.00 C377.00,195.00 377.00,195.00 379.16,194.80 Z" fill="#FFFFFF"/>
<path d="M325.88,167.69 L328.00,168.00 L329.00,173.00 C327.00,177.00 327.00,177.00 325.00,178.00 L318.00,178.00 L317.00,173.00 C322.29,168.08 322.29,168.08 325.88,167.69 Z" fill="#FFFFFF"/>
<path d="M418.00,168.00 L424.00,169.00 L429.00,175.00 L428.00,178.00 L420.00,178.00 C416.91,174.91 416.55,174.08 416.00,170.00 L418.00,168.00 Z" fill="#FFFFFF"/>
<path d="M35.00,58.00 L43.19,58.94 L45.52,59.20 L57.00,61.00 L57.00,64.00 L54.38,63.44 C50.87,62.98 48.47,63.40 45.00,64.00 L35.00,64.00 L33.00,60.00 L35.00,58.00 Z" fill="#FFFFFF"/>
<path d="M247.00,59.00 L275.00,60.00 L275.00,63.00 L274.00,64.00 L269.00,64.00 L268.00,63.00 C262.83,62.85 258.09,62.96 253.00,64.00 L251.00,62.00 L247.00,61.00 L247.00,59.00 Z" fill="#FFFFFF"/>
<path d="M391.00,158.00 C395.39,158.51 398.34,159.52 402.00,162.00 L401.00,166.00 L395.00,166.00 L391.00,162.00 L391.00,158.00 Z" fill="#FFFFFF"/>
<path d="M352.00,196.00 C355.00,200.75 355.00,200.75 355.00,203.00 C350.22,202.53 346.95,201.76 343.00,199.00 L344.00,196.00 C346.86,194.57 348.93,195.40 352.00,196.00 Z" fill="#FFFFFF"/>
<path d="M507.00,234.00 L516.50,233.75 L519.17,233.73 L526.00,234.00 L528.00,236.00 C522.83,238.23 518.56,237.93 513.12,237.12 L510.75,236.81 L505.00,236.00 L507.00,234.00 Z" fill="#FFFFFF"/>
<path d="M354.00,158.00 L353.00,164.00 C349.56,166.29 348.01,166.18 344.00,166.00 L344.00,162.00 C349.50,158.00 349.50,158.00 354.00,158.00 Z" fill="#FFFFFF"/>
<path d="M155.00,57.00 L156.00,62.00 L154.00,64.00 L147.00,64.00 L146.00,59.00 C149.44,56.71 150.99,56.82 155.00,57.00 Z" fill="#FFFFFF"/>
<path d="M624.00,234.00 L633.00,233.75 L635.52,233.73 L642.00,234.00 L644.00,236.00 C635.72,239.21 635.72,239.21 632.44,238.25 L630.00,237.00 L622.00,236.00 L624.00,234.00 Z" fill="#FFFFFF"/>
<path d="M395.00,195.00 L401.00,196.00 L401.00,200.00 C397.49,202.41 395.27,203.37 391.00,203.00 C391.55,198.92 391.91,198.09 395.00,195.00 Z" fill="#FFFFFF"/>
<rect x="167.00" y="60.00" width="18.00" height="4.00" fill="#FFFFFF" />
<path d="M149.00,125.00 L152.00,125.00 C153.25,130.02 151.95,132.32 150.00,137.00 L146.00,136.00 L146.94,131.06 L147.47,128.28 L149.00,125.00 Z" fill="#FFFFFF"/>
<rect x="69.00" y="59.00" width="11.00" height="5.00" fill="#FFFFFF" />
<path d="M568.00,135.00 L571.00,136.00 L570.00,144.00 L566.00,146.00 L565.00,141.00 L568.00,135.00 Z" fill="#000000"/>
<path d="M131.00,125.00 L134.00,127.00 C133.67,130.66 133.38,132.56 130.94,135.38 L129.00,137.00 C127.77,133.29 128.02,131.95 129.44,128.19 L131.00,125.00 Z" fill="#FFFFFF"/>
<path d="M92.00,59.00 L103.00,60.00 L104.00,64.00 L93.00,63.00 L92.00,59.00 Z" fill="#FFFFFF"/>
<path d="M232.00,56.00 L236.00,57.00 C235.00,61.00 235.00,61.00 233.00,64.00 L229.00,63.00 C230.88,57.12 230.88,57.12 232.00,56.00 Z" fill="#FFFFFF"/>
<path d="M551.00,136.00 L554.00,136.00 L554.00,142.00 L550.00,146.00 C549.11,142.88 548.90,141.31 549.94,138.19 L551.00,136.00 Z" fill="#000000"/>
<path d="M114.00,263.00 L116.00,264.00 L117.00,269.00 L116.00,270.00 L111.00,270.00 L110.00,268.00 L114.00,263.00 Z" fill="#000000"/>
<path d="M225.00,264.00 L228.00,265.00 L227.00,270.00 L222.00,269.00 L225.00,264.00 Z" fill="#000000"/>
<path d="M201.00,264.00 L203.00,264.00 L205.00,269.00 L204.00,270.00 L199.00,270.00 L198.00,268.00 L201.00,264.00 Z" fill="#000000"/>
<path d="M110.00,230.00 L115.00,231.00 L113.00,236.00 L110.00,236.00 L109.00,231.00 L110.00,230.00 Z" fill="#000000"/>
<path d="M89.00,264.00 L92.00,265.00 L93.00,269.00 L88.00,270.00 L87.00,267.00 L89.00,264.00 Z" fill="#000000"/>
<path d="M222.00,230.00 L227.00,231.00 L224.00,236.00 L222.00,236.00 L221.00,231.00 L222.00,230.00 Z" fill="#000000"/>
<path d="M289.00,59.00 L292.00,60.00 L292.00,63.00 L289.00,64.00 L286.00,61.00 L289.00,59.00 Z" fill="#FFFFFF"/>
<path d="M168.00,125.00 L170.00,125.00 L169.00,130.00 L167.00,130.00 L168.00,125.00 Z" fill="#FFFFFF"/>
<path d="M62.00,263.00 C64.00,267.00 64.00,267.00 64.00,269.00 L61.00,269.00 L62.00,263.00 Z" fill="#000000"/>
<path d="M151.00,231.00 L154.00,231.00 L153.00,235.00 L151.00,231.00 Z" fill="#000000"/>
<path d="M584.00,136.00 L586.00,136.00 L586.00,139.00 L583.00,139.00 L584.00,136.00 Z" fill="#000000"/>
</svg>