<?xml version="1.0" encoding="UTF-8"?>
<!-- Generator: visioncortex VTracer 0.6.5 -->
<svg version="1.1" xmlns="http://www.w3.org/2000/svg" width="734" height="368">
<rect width="734" height="368" fill="#FEFEFE"/>
<rect x="0.00" y="0.00" width="734.00" height="368.00" fill="#fefefe" />
<rect x="57.00" y="89.00" width="211.75" height="104.00" fill="#fefefe" />
<rect x="58.00" y="227.00" width="99.00" height="46.00" fill="#c1c1c1" />
<rect x="0.00" y="45.00" width="123.92" height="32.23" rx="4.55" ry="4.55" fill="#6b6b6b" />
<rect x="88.00" y="116.00" width="132.00" height="30.00" fill="#8f8f8f" />
<rect x="209.00" y="44.89" width="103.00" height="31.24" rx="4.63" ry="4.63" fill="#6b6b6b" />
<rect x="127.00" y="44.89" width="78.06" height="31.21" rx="4.58" ry="4.58" fill="#6b6b6b" />
<rect x="11.00" y="53.00" width="18.00" height="15.00" rx="2.22" ry="2.22" fill="#979797" />
<rect x="334.00" y="169.00" width="16.00" height="10.00" rx="1.70" ry="1.70" fill="#a5a5a5" />
<rect x="396.00" y="169.00" width="16.00" height="10.00" rx="1.41" ry="1.41" fill="#a4a4a4" />
<rect x="375.00" y="171.00" width="16.00" height="8.00" fill="#a4a4a4" />
<rect x="416.00" y="169.00" width="13.00" height="9.00" fill="#9a9a9a" />
<rect x="355.00" y="171.00" width="14.00" height="8.00" fill="#a9a9a9" />
<rect x="318.00" y="168.00" width="11.00" height="11.00" rx="1.50" ry="1.50" fill="#9d9d9d" />
<rect x="334.00" y="233.00" width="11.00" height="10.00" rx="1.34" ry="1.34" fill="#595959" />
<rect x="146.00" y="126.00" width="7.00" height="11.00" fill="#838383" />
<rect x="334.00" y="184.00" width="14.00" height="6.00" fill="#ffffff" />
<rect x="564.00" y="136.00" width="7.00" height="10.00" fill="#9f9f9f" />
<rect x="397.00" y="184.00" width="14.00" height="6.00" fill="#ffffff" />
<rect x="127.00" y="127.00" width="7.00" height="9.00" fill="#888888" />
<rect x="392.00" y="196.00" width="8.00" height="6.00" fill="#a3a3a3" />
<rect x="147.00" y="58.00" width="8.00" height="6.00" fill="#c1c1c1" />
<rect x="220.00" y="230.00" width="7.00" height="5.00" fill="#909090" />
<rect x="370.00" y="177.00" width="6.00" height="6.00" fill="#626262" />
<rect x="230.00" y="57.00" width="6.00" height="6.00" fill="#c0c0c0" />
<rect x="388.00" y="191.00" width="6.00" height="5.00" fill="#656565" />
<path d="M370.2,88.8 L377.5,88.8 L382.3,89.2 L389.6,90.1 L394.6,90.8 L397.2,91.2 L400.8,92.1 L405.5,93.5 L409.0,94.5 L411.4,95.4 L415.0,96.8 L417.5,97.9 L419.2,98.6 L419.9,98.9 L421.1,99.4 L422.0,99.8 L422.4,99.9 L437.0,115.0 L437.8,121.6 L438.1,124.4 L438.0,125.4 L438.0,125.9 L438.0,128.0 L437.2,129.3 L436.7,130.1 L436.5,130.5 L434.9,133.0 L433.9,134.8 L433.5,135.3 L433.4,135.5 L430.1,139.6 L426.5,142.6 L423.3,144.9 L420.4,146.3 L419.6,146.7 L418.7,147.1 L418.4,147.3 L418.0,147.4 L417.7,147.6 L410.0,151.0 L409.0,153.0 L410.7,153.3 L414.1,154.5 L419.7,156.9 L425.7,160.8 L428.8,163.5 L430.9,165.4 L431.6,166.0 L431.9,166.3 L435.0,169.0 L439.0,179.0 L437.5,185.8 L434.6,190.8 L429.7,196.3 L427.0,199.3 L426.3,199.8 L425.6,200.3 L425.2,200.6 L424.8,200.9 L424.4,201.2 L410.0,209.0 L410.5,209.5 L411.0,210.0 L411.5,210.5 L413.0,211.4 L415.0,212.3 L419.3,214.8 L425.8,219.0 L430.3,222.6 L432.8,225.5 L434.3,227.4 L435.1,228.6 L438.0,233.0 L437.8,235.8 L437.5,238.5 L437.3,241.3 L435.3,246.7 L432.0,252.2 L427.9,256.6 L423.1,260.0 L418.4,262.6 L414.7,264.1 L414.0,264.4 L413.8,264.5 L412.2,265.1 L410.6,265.8 L410.0,266.1 L407.7,267.0 L401.2,268.7 L390.7,270.8 L388.1,271.4 L385.5,271.9 L367.0,273.0 L366.8,272.9 L366.5,272.8 L365.5,272.3 L364.6,272.0 L363.8,272.1 L359.0,271.6 L350.3,270.5 L344.5,269.4 L341.4,268.3 L338.5,267.3 L335.9,266.5 L331.2,264.6 L324.4,261.5 L317.8,256.6 L308.4,246.4 L307.0,244.0 L307.0,243.0 L307.0,242.0 L307.0,240.0 L307.0,238.0 L308.3,233.3 L310.8,227.8 L313.2,223.9 L315.2,222.1 L315.5,221.7 L315.6,221.7 L316.3,221.0 L317.0,220.4 L317.2,220.2 L317.8,219.7 L319.6,218.2 L322.6,216.0 L324.6,214.6 L331.3,211.7 L336.0,210.0 L338.0,211.0 L338.0,209.0 L337.7,208.9 L337.3,208.8 L336.2,208.5 L335.4,208.3 L334.8,208.1 L334.4,208.0 L334.2,208.0 L333.8,207.8 L333.5,207.8 L330.0,206.1 L324.0,203.2 L320.7,201.5 L320.0,201.0 L317.5,198.8 L313.2,194.9 L310.3,191.5 L309.0,189.0 L308.8,188.5 L308.7,188.4 L308.3,187.5 L307.8,186.6 L307.7,186.3 L307.3,185.5 L307.0,182.8 L307.0,178.3 L308.4,173.5 L311.2,168.5 L315.2,164.0 L320.5,159.9 L323.6,157.7 L324.5,157.2 L325.4,156.8 L326.2,156.4 L326.6,156.2 L327.6,155.7 L328.5,155.2 L329.5,154.7 L331.2,153.9 L331.8,153.6 L332.7,153.2 L333.0,153.0 L333.2,152.9 L337.0,151.0 L336.3,150.9 L335.5,150.8 L334.0,150.5 L332.5,150.3 L330.7,149.8 L330.2,149.4 L328.0,148.1 L324.1,145.9 L320.8,143.8 L318.0,141.8 L315.0,139.1 L311.7,135.7 L309.3,131.4 L308.0,126.2 L307.3,123.1 L307.2,122.2 L307.2,121.6 L307.0,120.4 L307.5,118.3 L308.0,116.5 L308.5,114.8 L308.8,113.9 L309.0,113.0 L315.0,106.0 L319.0,105.0 L321.0,101.0 L324.7,99.4 L325.4,99.1 L325.8,98.9 L329.8,97.1 L333.9,95.4 L334.3,95.2 L335.0,94.9 L339.2,93.1 L340.1,92.8 L344.3,91.9 L351.8,90.6 L356.1,90.0 L357.2,90.0 L360.9,90.0 L362.3,89.9 L363.0,89.6 L363.3,89.5 L369.8,88.8 Z M79.0,89.0 L252.0,89.0 L255.0,92.0 L255.0,95.0 L259.0,97.0 L259.3,97.6 L259.6,97.9 L259.7,98.1 L268.0,108.0 L268.1,108.8 L268.2,109.5 L268.5,111.0 L268.8,112.5 L268.7,115.0 L267.4,118.8 L265.9,123.3 L264.3,128.8 L263.2,133.0 L262.2,137.2 L260.4,143.7 L259.1,148.3 L257.9,153.2 L256.8,158.5 L255.5,163.7 L254.2,168.9 L253.0,173.6 L252.0,177.8 L251.0,182.0 L250.5,184.0 L250.0,186.0 L249.4,188.0 L248.0,191.0 L245.0,193.0 L76.0,193.0 L70.5,188.1 L68.4,186.1 L67.9,185.4 L67.4,184.8 L67.0,184.2 L66.3,183.4 L65.9,182.9 L65.5,182.4 L64.9,181.6 L64.6,181.3 L64.1,180.6 L63.9,180.3 L63.3,179.7 L62.2,178.3 L61.9,177.9 L61.0,176.8 L60.1,175.7 L59.8,175.3 L58.6,174.0 L58.2,173.4 L57.9,173.1 L57.0,172.0 L57.7,169.5 L58.4,167.1 L59.8,162.2 L61.2,157.3 L63.2,150.0 L64.1,146.0 L64.2,145.4 L64.3,145.1 L64.7,143.3 L65.1,141.4 L65.3,140.7 L65.7,138.8 L65.9,138.0 L66.0,137.7 L67.3,132.7 L69.1,126.2 L70.1,122.7 L70.3,122.0 L70.4,121.7 L77.0,91.0 L79.0,89.0 Z M82.0,92.0 L81.0,96.0 L81.4,95.8 L82.0,95.5 L82.5,95.3 L82.6,95.2 L83.0,95.0 L161.0,95.0 L162.0,96.0 L163.0,103.0 L164.7,101.3 L165.8,100.3 L170.0,95.0 L243.0,94.0 L241.8,111.2 L241.3,117.4 L241.0,118.2 L240.7,119.4 L240.5,120.3 L240.3,120.9 L239.7,123.4 L239.1,125.5 L239.0,126.0 L238.7,126.9 L238.5,127.9 L238.3,128.4 L237.7,130.9 L236.8,134.3 L236.6,134.9 L236.5,135.2 L235.9,137.5 L235.3,139.9 L235.0,141.1 L233.6,146.5 L232.8,149.5 L232.7,150.1 L232.7,150.2 L232.6,150.6 L232.5,151.1 L232.4,151.2 L232.3,151.6 L229.0,167.0 L228.0,168.0 L172.0,168.0 L170.0,164.0 L171.0,160.0 L168.0,160.0 L162.0,168.0 L125.0,168.0 L124.6,167.6 L124.0,167.0 L123.5,166.5 L123.4,166.4 L123.0,166.0 L121.0,159.0 L120.8,159.4 L120.6,159.8 L120.2,160.7 L116.0,168.0 L67.0,168.0 L63.0,165.0 L61.0,171.0 L66.9,177.8 L71.7,183.4 L75.0,188.0 L245.0,188.0 L245.3,187.0 L245.6,186.2 L245.7,185.9 L247.0,181.7 L247.8,179.2 L247.9,178.4 L248.0,177.8 L248.1,177.3 L248.1,177.1 L248.3,176.3 L249.6,170.3 L249.9,169.3 L250.0,168.6 L251.4,162.6 L252.8,156.6 L252.9,156.1 L252.9,155.9 L253.2,154.8 L254.2,150.8 L254.6,149.0 L254.7,148.3 L255.2,146.4 L255.5,145.5 L255.6,145.0 L256.8,140.6 L263.0,117.0 L264.0,116.0 L264.0,106.0 L261.0,103.0 L259.0,103.0 L258.9,102.7 L258.7,102.2 L258.5,101.8 L258.3,101.4 L252.0,92.0 L82.0,92.0 Z M84.4,99.7 L83.1,103.1 L82.4,105.1 L82.3,105.8 L82.2,106.3 L82.1,107.4 L81.4,110.7 L80.7,113.7 L80.1,116.6 L79.5,119.4 L78.9,122.2 L78.3,124.9 L77.9,126.8 L77.7,127.7 L76.4,132.9 L75.1,137.9 L74.1,142.0 L73.4,145.2 L72.2,149.9 L69.6,159.1 L69.0,164.0 L116.0,164.0 L118.0,155.0 L123.0,153.0 L123.9,155.5 L124.5,157.2 L126.0,164.0 L161.0,164.0 L166.5,157.4 L168.6,154.7 L168.8,154.3 L169.0,154.0 L169.1,153.8 L169.2,153.6 L169.3,153.4 L170.0,152.0 L175.0,153.0 L174.0,164.0 L226.0,164.0 L226.4,162.2 L226.8,160.5 L227.5,157.0 L228.2,153.5 L229.4,148.6 L230.1,145.9 L230.8,143.5 L230.9,143.1 L231.0,142.8 L231.4,141.2 L231.6,140.5 L231.7,140.3 L232.0,138.9 L232.4,137.6 L232.6,136.6 L233.0,134.9 L233.2,134.2 L233.6,132.7 L233.7,132.2 L233.7,132.0 L234.0,130.9 L234.2,130.3 L234.2,130.1 L235.3,125.8 L236.2,122.6 L236.8,120.4 L237.0,119.6 L237.0,119.3 L241.0,104.0 L242.0,103.0 L242.0,98.0 L171.0,98.0 L169.9,99.6 L168.4,101.9 L167.2,103.7 L166.9,104.2 L166.2,105.2 L165.9,105.6 L165.8,105.8 L165.0,108.0 L161.0,109.0 L160.6,108.4 L160.0,107.5 L159.5,106.8 L159.4,106.6 L159.0,106.0 L158.0,98.0 L85.0,98.0 Z M629.8,227.0 L633.2,227.0 L635.5,227.2 L636.5,227.8 L639.0,228.0 L643.0,228.0 L645.5,228.2 L646.5,228.8 L647.9,229.1 L649.7,229.2 L653.4,230.2 L659.2,232.0 L663.3,233.9 L665.8,236.0 L667.6,237.4 L668.2,237.8 L668.9,238.1 L669.2,238.3 L669.5,238.5 L675.0,243.0 L675.1,243.4 L675.2,243.8 L675.5,244.5 L675.8,245.2 L676.0,247.3 L676.0,249.9 L676.1,250.7 L676.1,251.5 L676.1,252.1 L676.1,252.4 L676.0,256.0 L666.8,264.6 L659.5,268.6 L650.9,270.7 L642.2,272.1 L637.8,272.4 L633.4,272.7 L631.0,272.9 L629.4,273.0 L628.8,273.0 L628.6,273.0 L627.9,273.1 L623.6,272.6 L615.9,271.5 L607.5,268.5 L603.0,266.0 L598.5,263.5 L596.2,262.2 L594.0,261.0 L591.0,258.0 L589.0,250.0 L594.0,240.0 L597.6,237.7 L601.2,235.4 L603.7,233.8 L604.9,233.1 L612.1,230.1 L615.7,229.4 L618.2,228.9 L619.4,228.7 L621.2,228.4 L623.0,228.0 L626.0,229.0 L628.0,227.0 Z M366.2,155.0 L370.0,155.0 L375.0,157.0 L375.0,155.0 L381.0,155.0 L381.8,156.1 L383.0,157.5 L383.9,158.6 L384.2,158.9 L385.0,160.0 L387.0,161.0 L387.0,166.0 L385.0,169.0 L386.3,169.4 L388.0,170.0 L389.4,170.5 L389.7,170.6 L391.0,171.0 L397.0,170.0 L398.0,167.0 L394.0,166.0 L390.0,162.0 L390.0,157.0 L396.0,157.0 L403.0,162.0 L404.0,167.0 L410.0,169.0 L413.0,173.0 L413.0,178.0 L410.0,180.0 L410.5,180.8 L410.7,181.3 L410.9,181.7 L413.0,189.0 L409.0,192.0 L399.0,192.0 L396.0,190.0 L396.1,188.0 L396.2,185.3 L396.4,183.1 L396.4,182.6 L396.5,180.6 L397.0,179.0 L392.0,178.0 L389.0,180.0 L389.5,180.8 L389.7,181.3 L389.9,181.7 L392.0,189.0 L389.0,192.0 L388.0,196.0 L400.0,196.0 L400.0,200.0 L396.0,203.0 L385.0,203.0 L380.0,206.0 L364.0,206.0 L359.0,200.0 L358.0,192.0 L354.0,189.0 L354.0,188.5 L354.0,187.5 L354.0,186.4 L354.0,186.0 L354.0,185.3 L354.1,184.6 L354.1,184.2 L354.1,183.5 L354.1,183.3 L354.1,182.9 L354.1,182.7 L354.1,182.3 L353.0,173.0 L356.0,170.0 L358.0,170.0 L358.0,165.0 L347.0,167.0 L350.0,173.0 L349.9,173.4 L349.8,173.8 L349.7,174.3 L349.6,174.7 L348.0,182.0 L350.0,185.0 L349.0,195.0 L352.0,196.0 L353.0,202.0 L343.0,198.0 L343.0,193.0 L341.8,193.0 L339.2,192.9 L332.5,192.5 L331.0,192.0 L329.0,194.0 L320.0,194.0 L315.0,190.0 L315.0,185.0 L317.0,182.0 L316.0,172.0 L318.0,168.0 L318.4,167.8 L319.0,167.5 L319.5,167.3 L319.6,167.2 L320.0,167.0 L327.0,167.0 L329.0,170.0 L329.0,175.0 L325.0,180.0 L325.0,184.0 L332.0,185.0 L332.0,182.0 L332.0,181.5 L332.0,181.2 L332.0,178.0 L332.0,174.8 L332.0,174.0 L332.0,171.0 L333.0,169.0 L342.0,167.0 L345.0,160.0 L348.3,159.2 L349.8,158.9 L351.4,158.9 L352.1,158.9 L352.4,158.9 L353.4,158.9 L354.3,158.9 L355.3,158.9 L360.0,159.0 L365.0,155.0 Z M336.2,228.1 L342.6,228.4 L347.8,228.6 L351.9,228.9 L354.8,228.8 L356.2,228.2 L358.2,228.2 L359.5,228.5 L360.4,228.7 L360.8,228.8 L362.0,229.0 L365.0,231.0 L368.0,228.0 L368.3,228.0 L368.8,228.1 L370.2,228.3 L371.1,228.4 L371.8,228.5 L372.3,228.6 L372.5,228.6 L373.4,228.7 L375.2,228.8 L377.7,228.9 L379.6,228.9 L380.7,228.6 L382.4,228.4 L384.6,228.2 L386.7,228.4 L388.9,228.8 L390.4,228.9 L391.3,228.6 L393.8,228.4 L398.0,228.3 L400.5,228.3 L401.6,228.4 L404.1,228.6 L408.3,228.7 L410.7,228.7 L411.3,228.6 L411.5,228.5 L414.0,228.0 L418.0,232.0 L416.0,245.0 L412.0,248.0 L409.0,246.0 L405.0,249.0 L403.9,248.8 L402.5,248.5 L401.4,248.3 L401.1,248.2 L400.0,248.0 L396.0,249.0 L393.0,247.0 L391.0,249.0 L377.0,249.0 L374.0,247.0 L371.0,249.0 L369.7,248.8 L368.0,248.5 L366.6,248.3 L366.3,248.2 L365.0,248.0 L362.0,246.0 L359.0,249.0 L357.5,248.7 L355.4,248.2 L353.7,247.9 L353.2,247.8 L352.3,247.6 L351.9,247.5 L351.7,247.5 L349.0,246.0 L348.7,246.1 L348.5,246.2 L348.2,246.3 L344.5,247.1 L334.2,249.1 L330.0,249.0 L328.0,246.0 L328.1,245.3 L328.2,244.6 L328.7,241.7 L328.9,239.9 L329.0,239.5 L329.1,239.1 L329.8,236.3 L332.0,229.0 L333.0,228.0 Z M520.0,227.2 L522.0,227.8 L524.5,228.2 L527.6,228.5 L530.1,229.0 L532.0,229.7 L534.5,230.0 L537.5,230.0 L542.8,232.1 L550.5,236.3 L555.7,240.3 L557.1,242.2 L558.6,244.1 L559.3,245.1 L560.0,246.0 L561.0,253.0 L554.7,260.5 L550.2,264.5 L545.4,267.4 L541.8,269.1 L539.3,269.7 L537.6,270.1 L536.9,270.2 L533.6,270.6 L532.0,270.9 L531.0,271.0 L528.3,271.4 L526.9,271.7 L525.5,271.9 L522.8,272.3 L512.0,273.0 L511.8,272.9 L511.5,272.8 L511.0,272.5 L510.5,272.2 L508.2,272.0 L503.0,272.0 L497.0,269.0 L494.0,270.0 L493.7,269.8 L493.4,269.6 L493.2,269.3 L491.7,268.6 L489.4,267.7 L487.0,266.6 L484.6,265.5 L481.3,262.9 L479.2,261.0 L477.8,259.6 L477.3,259.1 L477.1,259.0 L475.0,257.0 L473.0,252.0 L475.0,243.0 L477.1,241.1 L477.5,240.8 L477.7,240.6 L480.0,238.5 L482.3,236.4 L482.9,235.9 L485.0,234.0 L491.0,232.0 L490.3,233.5 L489.7,235.2 L489.1,237.7 L488.8,240.7 L488.9,247.0 L489.0,254.0 L485.0,258.0 L486.0,262.0 L489.0,265.0 L500.0,265.0 L505.0,262.0 L505.9,262.4 L507.8,262.6 L511.1,262.9 L513.3,263.1 L514.3,263.0 L514.8,263.0 L517.0,263.0 L518.0,262.0 L522.5,262.0 L525.8,262.8 L527.5,263.5 L529.2,264.2 L530.1,264.6 L531.0,265.0 L543.0,265.0 L543.0,264.3 L543.1,263.6 L543.1,262.9 L543.5,258.8 L544.3,252.1 L545.1,247.9 L546.3,245.4 L548.0,239.0 L547.5,238.6 L547.1,238.3 L546.8,238.0 L546.6,237.9 L546.3,237.6 L545.9,237.4 L545.7,237.2 L545.4,237.0 L544.1,236.3 L542.0,235.4 L540.0,235.0 L537.9,235.0 L536.3,234.9 L535.7,235.0 L535.4,235.0 L535.2,235.0 L534.2,235.0 L533.4,235.0 L533.0,235.0 L527.0,238.0 L506.0,235.0 L505.0,234.0 L492.0,233.0 L494.0,231.0 L500.6,229.6 L502.7,229.2 L503.4,229.1 L505.2,228.7 L507.5,228.2 L508.1,228.1 L508.3,228.1 L509.5,227.8 L511.6,227.4 L519.0,227.0 Z M429.1,107.0 L433.3,111.0 L436.0,114.2 L438.0,118.0 L438.0,128.0 L436.2,130.8 L432.7,136.3 L429.1,140.5 L425.5,143.3 L422.5,145.3 L421.3,145.9 L420.2,146.4 L419.4,146.8 L418.7,147.1 L417.7,147.6 L410.0,151.0 L409.0,153.0 L410.7,153.3 L414.1,154.5 L422.6,158.1 L435.0,169.0 L434.0,171.0 L432.6,169.8 L431.2,168.5 L428.5,166.0 L425.8,163.5 L422.5,160.8 L421.1,160.2 L406.0,154.0 L405.0,150.0 L409.1,146.4 L411.7,144.6 L414.1,143.5 L414.8,143.3 L415.4,143.0 L428.0,136.0 L428.8,134.5 L430.0,132.5 L430.9,130.9 L431.2,130.5 L432.0,129.0 L432.0,126.0 L431.4,127.5 L430.5,129.5 L429.8,131.1 L429.6,131.5 L429.0,133.0 L421.0,140.0 L415.0,140.0 L414.0,139.0 L415.1,122.4 L416.1,114.9 L418.0,109.0 L420.0,107.0 L424.0,108.0 L431.0,115.0 L430.0,110.0 L427.0,107.0 L427.0,105.0 Z M247.4,54.2 L248.1,54.7 L249.6,55.3 L251.8,56.0 L255.4,56.5 L260.5,56.8 L263.0,57.0 L267.0,56.0 L271.0,58.0 L278.0,54.0 L282.0,56.0 L284.2,55.6 L285.6,55.3 L290.0,54.0 L296.0,59.0 L296.0,64.0 L293.0,67.0 L287.0,65.0 L286.5,65.2 L286.0,65.5 L285.0,66.0 L284.0,66.5 L280.7,67.0 L276.4,67.0 L273.6,67.1 L273.1,67.1 L273.0,67.1 L272.0,67.1 L271.7,67.1 L271.5,67.1 L270.6,67.1 L269.7,67.1 L268.9,67.1 L267.6,67.1 L267.2,67.1 L266.3,67.1 L265.9,67.1 L265.3,67.1 L262.7,66.8 L256.0,66.0 L252.0,67.0 L249.0,64.0 L245.0,67.0 L242.0,64.0 L242.0,58.0 L247.0,54.0 Z M34.9,55.2 L36.7,55.6 L38.3,55.8 L39.7,55.9 L41.4,56.1 L41.9,56.1 L43.1,56.2 L44.3,56.4 L44.6,56.4 L45.8,56.5 L57.0,57.0 L60.0,59.0 L69.0,56.0 L83.0,59.0 L84.0,63.0 L79.0,68.0 L76.0,66.0 L75.5,66.1 L74.8,66.1 L74.2,66.2 L73.9,66.2 L73.2,66.3 L72.7,66.3 L71.4,66.5 L70.5,66.5 L70.0,66.6 L69.8,66.6 L69.4,66.7 L69.1,66.7 L66.8,66.7 L63.0,66.6 L60.6,66.4 L59.0,66.0 L55.0,67.0 L52.0,65.0 L50.0,67.0 L48.3,67.0 L46.0,67.0 L44.2,67.0 L43.6,67.0 L41.5,67.0 L39.9,67.0 L33.0,66.0 L31.0,64.0 L31.0,58.0 L34.0,55.0 Z M357.0,171.0 L368.0,171.0 L369.0,172.0 L369.0,177.0 L363.0,180.0 L362.0,182.0 L370.0,183.0 L371.0,188.0 L369.0,191.0 L369.0,196.0 L371.0,198.0 L371.0,204.0 L370.0,205.0 L362.0,204.0 L361.4,203.2 L360.5,202.0 L359.8,201.1 L359.6,200.8 L359.0,200.0 L358.0,192.0 L354.0,189.0 L354.0,184.0 L356.0,182.0 L355.0,173.0 L357.0,173.0 L357.0,171.0 Z M143.7,46.9 L166.2,46.9 L197.0,48.0 L203.0,54.0 L203.0,67.0 L201.0,67.0 L201.0,69.0 L196.0,73.0 L188.6,73.9 L185.8,74.2 L153.6,74.4 L150.0,74.2 L141.5,73.6 L133.0,70.0 L131.0,67.0 L131.0,53.0 L136.0,48.0 L143.4,46.9 Z M139.5,49.7 L135.0,52.0 L132.0,56.0 L132.3,62.4 L132.8,65.4 L133.6,67.1 L134.4,68.4 L135.2,69.0 L135.7,69.4 L136.5,70.0 L137.5,70.6 L139.0,71.2 L141.5,71.7 L145.0,72.0 L147.1,72.1 L179.7,72.2 L183.9,71.9 L194.2,71.0 L197.0,70.0 L201.0,65.0 L201.0,56.0 L197.0,51.0 L194.5,50.7 L192.7,50.5 L192.2,50.5 L192.0,50.5 L186.9,49.9 L181.9,49.4 L176.1,48.8 L174.6,48.8 L172.1,48.8 L171.3,48.8 L168.9,48.8 L167.9,48.8 L167.6,48.9 L165.6,48.9 L163.6,48.9 L162.2,48.9 L159.7,48.9 L159.0,48.9 L157.8,48.9 L157.3,48.9 L156.6,48.9 L141.0,49.0 Z M168.0,55.5 L174.0,56.5 L175.6,56.8 L177.1,57.1 L179.0,58.0 L180.3,57.7 L180.8,57.6 L187.0,56.0 L190.0,60.0 L189.0,64.0 L186.0,67.0 L164.0,67.0 L162.0,65.0 L162.0,58.0 L165.0,55.0 Z M361.1,95.8 L361.8,95.8 L362.8,95.8 L363.6,95.8 L364.1,95.8 L366.4,95.8 L367.9,95.7 L368.7,95.7 L369.6,95.7 L397.0,99.0 L396.0,102.0 L381.0,103.0 L380.0,104.0 L379.7,103.9 L379.4,103.9 L379.1,103.8 L375.3,103.5 L374.7,103.5 L374.3,103.4 L370.5,103.1 L366.7,102.8 L365.6,102.7 L362.1,102.4 L351.0,101.0 L352.0,97.0 L360.7,95.8 Z M214.2,53.8 L214.5,54.5 L214.8,55.2 L214.9,55.6 L215.0,56.0 L214.0,61.0 L217.0,68.0 L217.9,68.4 L218.8,68.8 L220.5,69.5 L222.2,70.2 L231.3,71.0 L243.5,71.0 L245.6,71.0 L246.3,71.0 L251.1,71.0 L256.0,71.1 L256.4,71.1 L256.5,71.1 L257.5,71.1 L263.2,71.1 L268.8,71.1 L269.8,71.1 L270.1,71.1 L273.1,71.1 L276.1,71.1 L277.1,71.1 L280.9,71.1 L283.0,71.1 L283.3,71.1 L283.5,71.1 L284.8,71.1 L286.2,71.1 L286.9,71.1 L289.8,71.1 L291.7,71.1 L292.6,71.1 L293.1,71.1 L293.2,71.1 L293.6,71.1 L304.0,70.0 L301.0,73.0 L299.9,73.3 L298.7,73.6 L297.6,73.8 L296.0,74.1 L284.8,74.1 L229.1,74.0 L220.2,73.2 L218.5,72.5 L216.8,71.8 L215.9,71.4 L215.0,71.0 L212.0,67.0 L212.0,55.0 L214.0,53.0 Z M520.0,131.0 L557.0,131.0 L559.0,133.0 L560.1,133.0 L561.5,133.0 L562.6,133.0 L562.9,133.0 L564.0,133.0 L566.0,132.0 L565.0,135.0 L559.0,136.0 L556.0,133.0 L549.0,133.0 L549.0,134.0 L547.1,134.0 L544.5,134.0 L542.4,134.0 L541.8,134.0 L539.1,134.0 L537.3,134.1 L535.6,133.9 L534.0,133.6 L531.4,133.4 L528.0,133.1 L525.6,132.9 L524.6,133.0 L524.1,133.0 L522.0,133.0 L520.2,137.6 L519.5,139.7 L519.4,140.7 L519.3,141.8 L519.1,143.4 L519.0,145.0 L520.0,147.0 L524.0,149.0 L525.0,148.0 L530.0,148.0 L533.0,146.0 L542.0,147.0 L542.0,149.0 L555.0,149.0 L553.0,151.0 L518.0,151.0 L517.0,150.0 L517.0,147.5 L517.0,144.0 L517.0,141.3 L517.0,140.5 L517.0,138.0 L520.0,131.0 Z M380.5,139.3 L381.1,139.7 L381.6,140.0 L381.9,140.2 L382.1,140.4 L391.0,144.0 L391.0,147.0 L388.0,147.0 L388.0,149.0 L351.0,149.0 L351.0,147.0 L356.0,146.0 L350.0,146.0 L350.0,143.0 L352.0,140.0 L354.0,140.0 L358.0,144.0 L375.0,144.0 L380.0,139.0 Z M87.4,55.1 L88.1,55.4 L90.1,55.6 L93.2,55.8 L97.3,56.3 L104.8,57.6 L106.0,58.0 L107.0,61.0 L104.0,66.0 L103.1,66.0 L101.3,66.1 L98.3,66.4 L96.3,66.6 L95.4,66.7 L94.9,66.7 L93.0,67.0 L92.0,66.3 L90.9,65.7 L89.4,64.9 L88.3,64.5 L87.7,64.4 L87.5,64.4 L85.0,64.0 L84.0,58.0 L87.0,55.0 Z M671.0,126.0 L673.0,127.0 L673.4,128.2 L673.7,129.0 L673.9,129.3 L674.7,131.6 L675.6,133.9 L676.6,137.7 L676.9,140.6 L676.9,142.3 L676.7,142.9 L676.2,144.8 L675.8,146.4 L675.3,148.1 L675.1,149.2 L674.8,150.3 L674.6,151.3 L674.4,152.1 L674.3,152.6 L674.3,152.7 L674.1,153.5 L670.8,157.8 L664.3,165.5 L657.8,171.4 L651.4,175.4 L647.2,177.9 L645.4,178.8 L640.4,181.0 L628.0,186.0 L622.0,186.0 L623.1,185.4 L624.3,184.8 L625.0,184.3 L625.4,184.1 L626.9,183.4 L627.8,183.2 L632.9,181.2 L642.3,177.4 L647.9,174.8 L649.4,173.8 L650.3,173.3 L650.8,172.9 L650.9,172.8 L651.4,172.5 L653.5,170.8 L655.5,169.2 L659.3,166.0 L662.0,163.8 L663.2,162.9 L667.4,158.9 L668.4,157.1 L669.6,154.9 L670.4,153.6 L671.0,152.6 L671.3,152.2 L672.1,150.9 L673.0,150.0 L672.7,145.2 L672.6,144.4 L672.6,143.8 L672.2,138.6 L671.9,133.4 L671.8,132.0 L671.4,127.2 L671.0,126.0 Z M150.0,54.0 L156.0,55.0 L159.0,59.0 L157.0,65.0 L155.7,65.4 L154.0,66.0 L152.6,66.5 L152.3,66.6 L151.0,67.0 L145.0,66.0 L143.0,64.0 L143.0,58.0 L144.2,57.2 L145.9,56.2 L147.2,55.3 L147.5,55.1 L148.3,54.6 L148.6,54.4 L148.8,54.3 L150.0,54.0 Z M574.1,99.7 L577.9,99.7 L586.6,100.3 L593.4,100.8 L600.2,101.4 L607.0,102.0 L612.0,104.0 L610.0,106.0 L609.6,105.9 L609.3,105.8 L608.9,105.7 L603.3,105.0 L592.6,103.7 L585.5,103.0 L578.5,102.6 L576.7,102.5 L575.9,102.4 L574.1,102.3 L572.8,102.2 L572.3,102.2 L571.5,102.1 L569.3,102.0 L567.4,102.2 L564.5,102.7 L561.9,103.0 L560.7,103.0 L559.6,103.0 L559.1,102.9 L558.5,102.9 L541.0,105.0 L539.0,103.0 L572.2,99.7 Z M334.0,184.0 L347.0,184.0 L348.0,189.0 L346.0,190.0 L349.0,190.0 L349.0,195.0 L352.0,196.0 L353.0,202.0 L343.0,198.0 L343.0,193.0 L336.0,192.0 L335.6,190.7 L335.0,189.0 L334.5,187.6 L334.4,187.3 L334.0,186.0 L334.0,184.0 Z M232.0,53.0 L237.0,54.0 L240.0,57.0 L239.0,61.0 L236.0,62.0 L235.9,62.2 L235.8,62.5 L235.6,62.9 L235.3,63.4 L234.6,64.7 L234.0,65.6 L233.4,66.4 L233.2,66.8 L232.9,67.2 L232.0,68.0 L227.0,67.0 L224.0,64.0 L225.0,60.0 L232.0,53.0 Z M622.0,186.0 L621.0,188.0 L616.9,188.8 L615.7,189.0 L615.3,189.0 L613.5,189.4 L609.1,190.1 L607.8,190.3 L607.4,190.4 L604.9,190.8 L601.3,191.5 L554.0,193.0 L552.0,191.0 L552.3,191.0 L552.7,191.0 L557.7,190.9 L565.1,190.8 L566.3,190.8 L566.6,190.8 L568.8,190.8 L570.9,190.7 L571.2,190.7 L571.8,190.7 L579.7,189.9 L581.0,189.8 L581.9,189.7 L590.1,188.8 L598.3,187.9 L599.0,187.8 L599.2,187.8 L600.5,187.7 L608.1,186.8 L622.0,186.0 Z M601.0,136.0 L604.0,138.0 L604.0,146.0 L601.0,150.0 L602.0,139.0 L595.0,151.0 L593.9,151.0 L592.0,151.0 L591.4,151.0 L590.1,151.0 L589.5,151.0 L589.4,151.0 L588.3,151.0 L587.2,151.0 L586.6,150.9 L585.5,150.9 L585.1,150.9 L584.2,150.9 L583.8,150.9 L583.1,150.9 L564.0,152.0 L565.0,150.0 L566.1,149.6 L567.5,149.0 L568.6,148.5 L568.9,148.4 L570.0,148.0 L571.0,147.0 L579.0,147.0 L579.0,146.0 L586.0,146.0 L587.0,149.0 L594.0,148.0 L598.0,138.0 L601.0,136.0 Z M429.1,107.0 L433.3,111.0 L436.0,114.2 L438.0,118.0 L438.0,128.0 L432.7,136.3 L428.5,140.8 L421.2,146.1 L414.0,148.0 L419.0,143.0 L427.0,141.0 L427.3,140.2 L427.5,139.8 L427.7,139.4 L434.0,130.0 L434.0,128.5 L434.0,127.0 L434.0,124.0 L434.0,121.0 L433.5,117.0 L433.1,116.1 L432.6,115.1 L432.3,114.4 L431.9,113.7 L431.2,112.0 L427.0,107.0 L427.0,105.0 Z M483.0,132.0 L485.0,135.0 L484.8,135.6 L484.5,136.2 L484.0,137.5 L483.5,138.8 L483.2,141.8 L483.8,145.2 L484.3,147.3 L485.0,148.4 L491.0,158.0 L496.0,160.0 L495.9,158.5 L496.4,155.5 L498.0,148.0 L500.0,143.0 L501.0,143.0 L499.0,160.0 L497.0,162.0 L492.0,162.0 L480.0,146.0 L480.0,144.3 L480.0,142.0 L480.0,140.2 L480.0,139.7 L480.0,138.0 L483.0,132.0 Z M435.0,173.0 L438.0,175.0 L439.0,182.0 L438.1,183.6 L437.2,185.2 L435.5,188.5 L433.8,191.8 L430.5,196.2 L429.0,197.5 L427.5,198.8 L425.6,200.3 L425.2,200.6 L424.8,201.0 L424.4,201.3 L410.0,209.0 L406.0,208.0 L407.0,206.0 L407.8,205.8 L409.9,204.8 L412.1,203.8 L416.2,201.8 L420.3,199.9 L424.7,197.8 L425.2,197.3 L425.6,197.0 L426.5,196.3 L428.1,194.6 L431.8,190.2 L433.0,188.0 L435.0,187.0 L435.0,173.0 Z M318.0,183.0 L325.0,183.0 L330.0,187.0 L329.0,192.0 L328.0,193.0 L321.0,193.0 L317.0,186.0 L318.0,183.0 Z M658.0,127.0 L663.0,130.0 L663.6,131.3 L664.5,133.0 L665.2,134.4 L665.4,134.7 L666.0,136.0 L666.0,147.0 L657.3,157.0 L654.1,160.6 L653.0,161.6 L644.0,168.0 L641.0,167.0 L641.3,166.8 L641.6,166.5 L642.1,166.1 L642.7,165.6 L644.2,164.3 L645.4,163.6 L647.0,162.6 L649.7,160.8 L653.3,158.1 L655.4,156.5 L656.0,155.9 L657.5,154.3 L659.8,151.7 L661.5,149.3 L662.5,147.1 L663.0,143.8 L663.0,139.2 L662.7,136.3 L662.1,135.2 L661.8,134.6 L661.1,133.1 L658.0,127.0 Z M649.2,123.8 L649.8,125.2 L649.5,128.5 L648.5,133.4 L647.6,137.8 L646.6,141.8 L645.2,146.8 L644.4,149.8 L643.8,151.8 L643.6,152.8 L643.1,154.3 L642.9,155.3 L642.7,155.8 L640.0,167.0 L639.0,167.0 L639.2,165.0 L639.4,163.0 L639.8,158.9 L640.1,156.2 L640.2,155.3 L640.3,154.9 L640.9,150.3 L643.2,142.0 L643.9,139.0 L644.4,136.7 L645.0,134.4 L645.5,132.0 L649.0,123.0 Z M264.0,121.0 L266.0,124.0 L265.8,124.5 L265.3,125.5 L264.1,129.9 L262.1,137.6 L261.2,140.6 L260.7,142.8 L260.4,143.7 L259.8,146.0 L259.3,147.6 L259.1,148.3 L258.8,149.4 L258.5,150.2 L258.4,150.6 L256.0,163.0 L254.0,164.0 L254.3,155.9 L255.4,149.4 L257.1,142.9 L257.4,141.8 L257.5,141.5 L258.1,139.3 L258.8,137.0 L258.9,136.4 L259.3,135.2 L259.4,134.7 L259.5,134.5 L260.4,131.1 L260.6,130.5 L260.7,130.2 L261.4,127.6 L262.1,125.1 L262.3,124.4 L262.7,122.9 L262.9,122.3 L263.0,122.0 L264.0,121.0 Z M422.0,182.0 L427.0,183.0 L428.0,184.0 L428.0,189.0 L424.0,192.0 L417.0,192.0 L417.0,187.0 L422.0,182.0 Z M330.0,106.0 L332.0,107.0 L332.0,119.0 L330.0,119.0 L330.0,119.3 L330.0,119.6 L329.9,120.8 L328.6,124.3 L325.1,133.0 L324.0,135.0 L323.0,133.0 L323.5,131.5 L324.4,127.7 L326.0,120.9 L327.3,116.1 L327.9,114.7 L328.4,113.4 L329.0,112.0 L330.0,106.0 Z M326.0,107.0 L329.0,108.0 L320.0,114.0 L317.0,124.0 L317.4,125.1 L318.0,126.5 L318.5,127.6 L318.6,127.9 L319.0,129.0 L322.0,132.0 L322.0,134.0 L319.0,133.0 L314.0,126.0 L314.0,120.0 L317.4,114.2 L319.7,111.2 L323.0,108.0 L326.0,107.0 Z M411.0,148.0 L414.0,149.0 L410.0,151.0 L409.0,153.0 L410.7,153.3 L414.1,154.5 L422.6,158.1 L435.0,169.0 L434.0,171.0 L432.6,169.8 L431.2,168.5 L428.5,166.0 L425.8,163.5 L422.5,160.8 L421.5,160.4 L421.3,160.4 L421.0,160.3 L407.0,153.0 L408.0,149.0 L411.0,148.0 Z M585.0,162.0 L589.0,162.0 L589.0,169.0 L586.0,165.0 L585.5,165.8 L585.1,166.4 L584.7,167.1 L584.5,167.5 L584.3,167.7 L584.0,168.2 L583.9,168.4 L583.5,168.9 L583.4,169.1 L583.2,169.5 L579.0,173.0 L548.0,173.0 L548.0,172.0 L577.0,171.0 L585.0,162.0 Z M352.0,139.0 L357.0,140.0 L359.0,142.0 L377.0,142.0 L375.0,145.0 L358.0,145.0 L354.0,142.0 L354.0,140.0 L352.0,139.0 Z M169.0,136.0 L170.0,140.0 L166.0,140.0 L165.0,142.0 L150.0,142.0 L154.0,138.0 L158.0,138.0 L158.0,140.0 L158.4,139.8 L159.1,139.6 L159.5,139.4 L159.7,139.3 L160.1,139.1 L169.0,136.0 Z M391.9,159.4 L395.8,160.3 L396.8,160.5 L397.7,160.7 L402.0,163.0 L401.0,166.0 L393.0,165.0 L390.0,162.0 L390.0,159.0 Z M380.5,139.3 L381.1,139.7 L381.6,140.0 L381.9,140.2 L382.1,140.4 L391.0,144.0 L391.0,147.0 L386.0,148.0 L387.0,146.0 L381.0,144.0 L379.0,140.0 L380.0,139.0 Z M332.7,263.4 L340.9,264.7 L345.0,267.0 L343.0,269.0 L339.0,267.7 L336.4,266.9 L330.0,264.0 L330.0,263.0 Z M224.0,266.0 L231.0,267.0 L230.0,270.0 L222.0,270.0 L224.0,266.0 Z M150.0,126.0 L151.0,126.0 L151.0,134.0 L148.0,136.0 L147.0,129.0 L150.0,126.0 Z M556.0,144.0 L561.0,144.0 L563.0,149.0 L555.0,149.0 L556.0,144.0 Z M663.0,245.0 L666.0,246.0 L662.0,258.0 L661.0,258.0 L661.1,256.1 L661.2,253.6 L661.3,251.6 L661.4,251.1 L661.4,249.9 L661.4,249.2 L663.0,245.0 Z M159.0,98.0 L161.0,99.0 L162.0,103.0 L165.0,104.0 L165.0,106.0 L160.0,105.0 L159.0,98.0 Z M3.0,68.0 L7.0,70.0 L3.0,72.0 L2.0,69.0 L3.0,68.0 Z M2.0,50.0 L7.0,50.0 L5.0,53.0 L2.0,52.0 L2.0,50.0 Z" fill="#9d9d9d"/>
<path d="M572.7,88.8 L581.2,88.8 L583.2,89.0 L587.9,89.5 L589.0,90.0 L592.0,89.0 L592.3,89.1 L592.7,89.2 L593.9,89.6 L594.7,89.8 L595.3,90.0 L595.7,90.1 L595.9,90.2 L596.7,90.4 L598.4,90.7 L600.8,90.9 L603.4,91.2 L605.9,91.6 L606.3,91.7 L606.5,91.7 L608.3,92.0 L610.1,92.3 L611.0,92.4 L615.2,93.1 L620.2,94.1 L625.2,95.5 L629.4,96.7 L632.8,97.9 L639.7,101.1 L644.8,103.7 L649.9,106.4 L655.3,109.2 L655.8,109.5 L659.8,113.4 L667.4,120.7 L672.2,126.3 L674.5,130.3 L675.9,134.7 L676.6,139.6 L676.9,142.3 L676.7,142.9 L676.2,144.8 L675.8,146.4 L675.3,148.1 L675.1,149.2 L674.8,150.3 L674.6,151.3 L674.4,152.1 L674.3,152.6 L674.3,152.7 L674.1,153.5 L670.8,157.8 L664.3,165.5 L657.8,171.4 L651.4,175.4 L647.2,177.9 L645.4,178.8 L634.7,182.2 L615.2,187.9 L604.4,191.0 L602.3,191.3 L589.1,191.8 L564.8,192.5 L551.1,192.5 L548.2,191.8 L544.0,191.2 L538.7,190.4 L529.0,188.0 L522.0,186.0 L517.2,184.6 L515.0,184.0 L507.5,181.8 L506.5,181.4 L503.8,180.1 L499.4,177.9 L496.5,176.3 L494.9,175.5 L490.0,171.8 L481.7,165.2 L476.3,159.7 L474.0,155.4 L472.1,149.8 L470.7,142.8 L470.0,138.4 L470.0,136.8 L472.1,132.0 L476.3,123.9 L481.2,117.2 L487.0,111.9 L490.9,108.6 L492.6,107.7 L493.0,107.5 L493.8,107.1 L494.6,106.7 L494.9,106.5 L496.1,105.9 L504.9,102.5 L521.0,96.5 L525.2,94.9 L529.4,93.4 L530.1,93.3 L531.9,92.9 L534.5,92.4 L534.9,92.4 L535.1,92.3 L536.4,92.1 L537.7,91.8 L538.3,91.7 L540.6,91.3 L542.1,91.0 L542.7,90.9 L543.1,90.8 L543.5,90.7 L572.2,88.8 Z M82.0,92.0 L252.0,92.0 L259.0,101.0 L259.0,103.0 L259.4,103.2 L260.0,103.5 L260.4,103.7 L260.5,103.7 L260.9,103.9 L264.0,106.0 L263.6,115.1 L263.1,119.2 L262.3,121.4 L261.2,124.7 L260.6,126.9 L259.9,129.1 L259.5,130.5 L259.1,131.8 L258.2,135.3 L256.2,142.9 L254.2,151.5 L253.8,153.0 L253.6,153.8 L251.8,161.5 L250.0,169.1 L249.9,169.8 L249.8,170.0 L249.5,171.2 L247.8,178.7 L247.7,179.1 L247.7,179.5 L247.6,180.3 L247.5,180.7 L247.4,181.0 L247.4,181.4 L245.0,188.0 L75.0,188.0 L73.9,186.6 L72.8,185.2 L70.5,182.5 L68.2,179.8 L67.1,178.4 L66.0,177.0 L63.5,174.0 L61.0,171.0 L63.0,165.0 L67.0,168.0 L116.0,168.0 L121.0,159.0 L121.6,160.7 L122.5,163.0 L123.2,164.8 L123.4,165.3 L124.0,167.0 L125.0,168.0 L162.0,168.0 L169.0,159.0 L171.0,161.0 L170.0,166.0 L172.0,168.0 L228.0,168.0 L230.2,160.5 L231.0,157.5 L231.2,156.5 L231.4,155.8 L231.5,155.3 L231.6,155.1 L231.7,154.5 L231.8,154.1 L232.7,150.1 L232.9,149.4 L233.0,149.0 L233.9,145.1 L234.8,141.2 L235.1,140.1 L235.7,137.7 L236.0,136.6 L236.1,136.2 L236.2,135.7 L236.3,135.3 L237.1,132.5 L238.4,127.8 L238.9,125.9 L239.4,124.1 L240.1,121.6 L240.7,119.4 L240.9,118.5 L241.1,117.8 L241.2,117.6 L241.4,116.7 L243.0,94.0 L170.0,95.0 L164.0,103.0 L163.0,103.0 L162.0,96.0 L161.0,95.0 L144.5,95.0 L141.7,95.0 L139.8,95.0 L122.0,95.0 L104.2,95.0 L102.6,95.0 L102.3,95.0 L99.5,95.0 L83.0,95.0 L81.0,96.0 L82.0,92.0 Z M347.6,95.9 L348.8,96.0 L350.0,96.0 L341.0,100.0 L341.0,103.0 L342.0,104.0 L373.0,105.0 L374.0,108.0 L372.0,112.0 L374.0,117.0 L378.0,115.0 L381.0,105.0 L404.0,104.0 L404.0,103.2 L404.0,102.0 L404.0,101.1 L404.0,100.8 L404.0,100.0 L403.0,98.0 L404.1,98.2 L404.9,98.4 L405.3,98.4 L407.6,98.9 L409.1,99.2 L409.9,99.3 L416.1,102.1 L428.0,109.0 L432.0,114.0 L431.0,116.0 L423.0,108.0 L419.0,109.0 L418.1,112.9 L417.9,113.6 L417.8,114.0 L416.9,118.2 L415.9,122.5 L415.6,123.6 L414.7,127.5 L415.0,139.0 L421.0,139.0 L422.7,137.5 L425.0,135.5 L426.8,133.9 L427.3,133.5 L429.0,132.0 L432.0,125.0 L433.0,129.0 L431.7,131.4 L431.1,132.7 L430.8,133.2 L430.6,133.6 L429.1,135.3 L426.6,137.8 L423.6,140.0 L421.8,141.0 L420.6,141.7 L420.1,142.0 L417.9,143.2 L416.8,143.8 L402.0,150.0 L402.0,153.0 L402.7,153.3 L404.7,154.3 L405.5,154.6 L405.7,154.7 L408.2,155.9 L410.7,157.0 L411.8,157.5 L413.8,158.4 L414.3,158.7 L415.2,159.1 L415.6,159.3 L416.3,159.6 L429.0,168.0 L431.0,173.0 L430.3,172.4 L430.0,172.1 L429.8,171.9 L429.1,171.3 L428.3,170.6 L427.7,170.1 L427.3,169.7 L427.1,169.5 L426.3,168.8 L425.4,168.1 L424.0,167.0 L421.0,166.0 L415.0,168.0 L414.0,170.0 L406.0,166.0 L405.7,165.5 L405.5,165.0 L405.0,164.0 L404.5,163.0 L402.2,160.7 L400.5,159.5 L399.3,158.6 L398.7,158.2 L397.9,157.6 L397.3,157.2 L397.0,157.0 L389.0,156.0 L386.0,159.0 L379.0,153.0 L378.7,153.1 L378.4,153.1 L377.8,153.2 L377.4,153.3 L377.3,153.4 L375.3,153.6 L373.8,153.7 L372.9,153.8 L372.4,153.9 L371.7,153.9 L371.0,154.0 L368.0,153.0 L367.7,153.2 L367.2,153.6 L366.6,154.0 L366.0,154.4 L365.6,154.7 L365.3,154.8 L364.9,155.2 L364.7,155.3 L364.2,155.6 L364.0,155.8 L363.6,156.0 L359.0,158.0 L357.0,155.0 L353.9,156.2 L353.4,156.4 L353.0,156.5 L349.7,157.8 L346.3,159.1 L345.5,159.5 L343.5,160.2 L342.7,160.6 L342.4,160.7 L339.0,163.0 L340.0,167.0 L334.0,169.0 L333.2,170.5 L333.0,171.6 L333.1,177.4 L333.1,180.6 L332.0,185.0 L325.0,184.0 L324.0,180.0 L328.0,175.0 L328.1,172.8 L328.1,171.4 L327.0,167.0 L318.0,169.0 L317.8,171.0 L317.6,173.8 L317.4,176.0 L317.3,176.6 L317.2,178.6 L318.0,182.0 L317.8,182.3 L317.5,182.6 L317.3,182.9 L316.7,184.0 L315.6,186.3 L315.0,190.0 L314.4,189.2 L313.5,188.0 L312.8,187.1 L312.6,186.8 L312.2,186.3 L312.0,186.0 L311.0,179.0 L312.0,176.6 L313.1,174.2 L313.8,172.5 L314.1,171.7 L317.6,167.0 L325.0,160.0 L326.0,158.0 L339.0,153.0 L339.0,149.0 L333.0,147.0 L332.0,145.0 L331.7,144.9 L331.4,144.8 L331.1,144.6 L327.3,142.6 L323.9,140.8 L321.5,139.5 L320.7,139.0 L320.4,138.9 L317.0,137.0 L313.0,131.0 L314.0,128.0 L315.3,129.7 L317.0,132.0 L318.4,133.8 L318.7,134.3 L319.5,135.4 L320.0,136.0 L324.0,138.0 L327.0,136.0 L334.0,107.0 L330.0,101.0 L334.3,99.4 L335.5,99.0 L335.9,98.8 L337.0,98.4 L338.5,97.9 L339.0,97.7 L339.1,97.7 L340.2,97.3 L342.7,96.4 L347.2,95.9 Z M491.0,233.0 L505.0,233.0 L505.6,233.4 L506.5,234.0 L507.2,234.5 L507.4,234.6 L508.0,235.0 L527.0,237.0 L527.8,236.6 L528.5,236.2 L530.0,235.5 L531.5,234.8 L535.0,234.0 L539.0,234.0 L542.8,235.0 L548.2,238.1 L549.0,239.0 L546.6,246.7 L544.8,252.7 L544.0,265.0 L543.0,266.0 L534.0,266.0 L529.2,265.2 L527.5,264.5 L525.8,263.8 L524.9,263.4 L524.0,263.0 L518.0,263.0 L517.0,264.0 L513.0,264.1 L510.4,264.1 L504.0,263.0 L500.0,266.0 L489.0,266.0 L484.0,261.0 L485.0,257.0 L488.0,254.0 L488.0,237.0 L491.0,233.0 Z M655.0,235.0 L665.0,239.0 L665.0,242.0 L664.5,242.6 L664.0,243.2 L663.0,244.5 L662.0,245.8 L660.2,250.2 L659.5,253.5 L658.8,256.8 L658.4,258.4 L658.0,260.0 L659.0,264.0 L655.0,265.0 L652.0,262.0 L642.0,261.0 L640.0,256.0 L637.0,257.0 L635.0,261.0 L624.0,261.0 L622.0,257.0 L619.0,258.0 L617.0,261.0 L611.0,263.0 L611.0,265.0 L609.7,264.8 L608.0,264.5 L606.6,264.3 L606.3,264.2 L605.0,264.0 L601.0,261.0 L602.0,259.9 L602.9,258.4 L604.1,256.3 L605.0,253.8 L605.7,251.2 L605.8,250.8 L605.8,250.7 L606.1,249.7 L606.3,248.8 L606.4,248.6 L606.6,247.7 L607.0,246.1 L607.4,244.6 L607.7,243.4 L607.7,243.1 L608.0,242.0 L607.0,236.0 L610.0,236.0 L612.0,239.0 L631.0,240.0 L632.0,243.0 L638.0,242.0 L639.0,240.0 L653.0,239.0 L655.0,235.0 Z M558.0,149.0 L564.0,154.0 L567.1,153.2 L569.2,152.6 L574.0,150.0 L577.0,153.0 L578.6,152.6 L580.2,152.4 L583.4,152.1 L589.0,154.0 L578.0,170.0 L548.0,170.0 L547.4,167.5 L546.5,164.0 L545.8,161.3 L545.6,160.5 L545.0,158.0 L543.0,154.0 L553.0,153.0 L558.0,149.0 Z M315.6,190.3 L316.8,191.0 L317.2,191.3 L317.6,191.5 L317.7,191.6 L318.7,192.1 L322.0,195.0 L323.7,194.8 L326.0,194.5 L327.8,194.3 L328.3,194.2 L330.0,194.0 L333.0,192.0 L339.0,194.0 L339.2,194.6 L339.5,195.2 L340.0,196.5 L340.5,197.8 L341.8,199.8 L343.2,201.2 L345.2,202.5 L347.5,203.6 L349.0,204.3 L349.5,204.5 L349.8,204.7 L353.0,206.0 L354.2,205.6 L355.9,205.0 L357.2,204.5 L357.5,204.4 L358.8,203.9 L360.0,203.0 L365.0,207.0 L366.9,207.2 L369.5,207.5 L371.6,207.7 L372.1,207.8 L374.0,208.0 L378.0,210.0 L376.8,210.0 L371.1,210.6 L370.1,210.7 L369.5,210.7 L363.7,211.3 L357.9,211.9 L357.4,212.0 L357.3,212.0 L356.4,212.1 L351.0,212.6 L344.0,213.0 L345.0,210.0 L341.0,206.0 L340.5,205.9 L340.1,205.8 L339.6,205.7 L334.7,203.6 L325.7,199.7 L323.4,198.7 L321.9,198.1 L321.2,197.8 L315.0,192.0 L315.0,190.0 Z M412.0,191.0 L415.0,195.0 L410.0,196.0 L407.0,199.0 L409.0,205.0 L403.0,208.0 L403.0,212.0 L403.9,212.3 L408.3,214.3 L409.1,214.6 L409.6,214.9 L414.2,217.0 L418.8,219.1 L420.0,219.6 L422.6,220.8 L423.8,221.4 L424.2,221.6 L430.0,227.0 L429.0,229.0 L428.2,228.2 L424.2,225.5 L413.2,218.4 L379.0,210.0 L379.0,207.0 L381.2,205.6 L382.7,204.8 L386.0,203.0 L388.0,206.0 L389.5,205.8 L391.0,205.5 L392.5,205.2 L396.5,203.5 L399.0,202.0 L401.5,200.5 L402.8,199.8 L404.0,199.0 L406.0,196.0 L405.0,194.0 L406.3,193.6 L408.0,193.0 L409.4,192.5 L409.7,192.4 L411.0,192.0 L412.0,191.0 Z M97.0,121.0 L100.0,121.0 L101.0,127.0 L105.0,127.0 L109.0,121.0 L111.0,121.0 L110.6,125.0 L110.3,127.6 L107.0,141.0 L99.0,141.0 L96.0,137.0 L93.0,137.0 L97.0,121.0 Z M81.0,93.0 L244.0,93.0 L244.0,94.0 L170.0,95.0 L164.0,103.0 L163.0,103.0 L162.0,96.0 L161.0,95.0 L144.5,95.0 L141.7,95.0 L139.8,95.0 L122.0,95.0 L104.2,95.0 L102.6,95.0 L102.3,95.0 L99.5,95.0 L83.0,95.0 L81.0,96.0 L81.0,93.0 Z M431.0,173.0 L433.0,174.0 L435.0,179.0 L433.0,185.7 L431.4,189.4 L430.4,190.8 L429.7,191.8 L429.4,192.3 L428.9,193.0 L428.6,193.5 L428.4,193.7 L416.0,202.0 L414.0,201.0 L416.0,197.0 L415.0,195.0 L423.0,195.0 L430.0,188.0 L431.0,183.0 L429.0,180.0 L431.0,178.0 L431.0,173.0 Z M315.6,190.3 L316.8,191.0 L317.2,191.3 L317.6,191.5 L317.7,191.6 L318.7,192.1 L322.0,195.0 L328.0,195.0 L328.3,195.5 L328.7,196.2 L329.0,196.7 L329.0,196.8 L329.3,197.3 L334.0,203.0 L329.3,201.8 L326.8,200.9 L324.9,199.7 L323.6,199.0 L322.7,198.4 L315.0,192.0 L315.0,190.0 Z M335.0,233.0 L338.0,237.0 L343.0,235.0 L342.0,241.0 L340.0,243.0 L336.0,242.0 L334.0,240.0 L335.0,233.0 Z M432.0,125.0 L433.0,129.0 L431.9,130.7 L430.4,133.1 L429.2,135.0 L428.9,135.5 L428.2,136.6 L428.0,137.1 L427.8,137.2 L418.0,143.0 L416.0,142.0 L416.5,141.7 L418.0,140.6 L419.9,139.3 L420.3,139.0 L421.0,138.5 L421.6,138.0 L421.8,137.9 L422.4,137.5 L424.3,135.9 L427.3,133.2 L429.4,130.7 L431.2,127.2 L432.0,125.0 Z M334.0,215.0 L338.0,216.0 L337.5,216.2 L336.5,216.6 L331.2,219.6 L317.0,228.0 L315.0,230.0 L316.0,226.0 L318.6,224.1 L319.1,223.7 L319.4,223.5 L322.2,221.4 L325.1,219.3 L325.8,218.7 L328.4,216.8 L334.0,215.0 Z M330.0,159.0 L333.0,160.0 L329.0,163.0 L329.0,166.0 L328.2,166.1 L327.7,166.1 L327.4,166.2 L317.0,168.0 L318.8,166.5 L320.5,164.9 L321.7,163.8 L322.3,163.4 L324.5,161.6 L325.5,161.2 L326.6,160.7 L327.5,160.2 L328.0,160.0 L328.5,159.7 L330.0,159.0 Z M328.0,102.0 L330.0,103.0 L329.7,103.2 L329.5,103.3 L329.0,103.7 L328.5,104.0 L325.0,106.9 L319.0,112.1 L315.9,114.6 L313.0,119.0 L312.0,117.0 L312.6,116.0 L313.1,115.3 L313.2,115.0 L314.5,113.0 L315.4,111.6 L315.8,111.0 L318.1,108.3 L319.2,107.5 L319.9,107.0 L320.3,106.8 L321.7,105.9 L322.3,105.4 L322.9,105.0 L323.2,104.8 L323.5,104.6 L323.8,104.4 L324.1,104.2 L324.9,103.7 L328.0,102.0 Z M314.8,246.7 L316.2,247.9 L316.5,248.2 L317.1,248.7 L317.7,249.2 L317.9,249.3 L318.4,249.7 L318.7,250.0 L320.0,251.2 L321.7,252.8 L323.7,254.4 L326.0,255.9 L327.6,256.9 L328.8,257.4 L330.0,258.0 L327.0,259.0 L325.0,257.6 L322.2,255.7 L320.0,254.1 L319.4,253.7 L318.1,252.9 L317.4,252.3 L314.0,248.0 L314.0,246.0 Z M410.0,233.0 L413.0,233.0 L412.0,243.0 L408.0,241.0 L410.0,233.0 Z M209.0,121.0 L215.0,121.0 L214.0,127.0 L210.0,126.0 L207.0,128.0 L209.0,121.0 Z M432.0,241.0 L433.0,244.0 L431.6,246.0 L429.8,248.7 L428.3,250.9 L427.9,251.4 L426.6,253.4 L423.0,256.0 L421.0,255.0 L421.5,254.7 L422.6,254.0 L424.1,252.7 L425.0,251.7 L425.9,250.8 L426.4,250.3 L426.7,250.0 L426.8,249.8 L432.0,241.0 Z M149.0,121.0 L156.0,122.0 L156.0,129.0 L154.0,125.0 L150.0,123.0 L145.0,127.0 L147.0,122.0 L149.0,121.0 Z M314.0,171.0 L315.0,174.0 L314.9,174.3 L314.9,174.6 L314.8,175.1 L314.6,175.7 L314.4,177.9 L314.2,179.6 L314.1,181.3 L314.1,182.2 L314.0,183.0 L312.0,186.0 L311.8,184.5 L311.5,182.5 L311.3,180.9 L311.2,180.5 L311.0,179.0 L314.0,171.0 Z M372.0,189.0 L376.0,191.0 L374.0,195.0 L372.0,196.0 L370.0,191.0 L372.0,189.0 Z M192.0,130.0 L196.0,133.0 L191.0,141.0 L188.0,140.0 L192.0,136.0 L192.0,130.0 Z M353.0,166.0 L357.0,168.0 L352.0,172.0 L349.0,168.0 L353.0,166.0 Z M213.2,132.0 L213.5,133.0 L213.8,134.0 L213.9,134.5 L214.0,135.0 L213.0,141.0 L209.0,137.0 L213.0,131.0 Z M352.0,190.0 L356.0,194.0 L353.0,196.0 L350.0,192.0 L352.0,190.0 Z M415.0,178.0 L418.0,180.0 L416.0,184.0 L413.0,182.0 L415.0,178.0 Z M350.0,178.0 L354.0,180.0 L352.0,183.0 L348.0,181.0 L350.0,178.0 Z M391.0,165.0 L396.0,169.0 L393.0,171.0 L389.0,167.0 L391.0,165.0 Z M394.0,178.0 L397.0,181.0 L393.0,183.0 L393.0,179.0 L394.0,178.0 Z M372.0,166.0 L375.0,168.0 L374.0,171.0 L370.0,169.0 L372.0,166.0 Z M162.0,131.0 L165.0,132.0 L163.0,137.0 L161.0,138.0 L162.0,131.0 Z M134.0,135.0 L135.0,137.0 L132.0,141.0 L129.0,140.0 L134.0,135.0 Z M131.0,121.0 L137.0,122.0 L137.0,127.0 L131.0,122.0 L131.0,121.0 Z M124.0,135.0 L128.0,140.0 L128.0,141.0 L123.0,141.0 L124.0,135.0 Z M392.0,191.0 L395.0,192.0 L392.0,195.0 L389.0,194.0 L392.0,191.0 Z M372.0,178.0 L375.0,180.0 L374.0,183.0 L371.0,181.0 L372.0,178.0 Z M329.0,177.0 L332.0,181.0 L329.0,183.0 L328.0,180.0 L329.0,177.0 Z M205.0,132.0 L207.0,135.0 L203.0,138.0 L205.0,132.0 Z M79.0,247.0 L82.0,248.0 L79.0,251.0 L79.0,247.0 Z" fill="#1d1d1d"/>
<path d="M378.5,213.1 L379.4,213.3 L381.2,213.6 L382.5,213.8 L383.1,213.9 L386.3,214.5 L389.5,215.0 L394.9,216.0 L399.2,216.9 L402.7,217.8 L405.3,218.6 L409.7,220.4 L416.1,223.3 L420.9,226.3 L422.6,227.8 L424.3,229.4 L426.0,231.0 L429.0,238.0 L428.8,239.1 L428.5,240.5 L428.3,241.6 L428.2,241.9 L428.0,243.0 L421.0,252.0 L420.4,252.2 L419.8,252.5 L418.5,253.0 L417.2,253.5 L415.1,254.6 L413.2,255.7 L409.9,257.0 L405.8,258.1 L405.1,258.3 L404.9,258.3 L402.9,258.9 L400.9,259.4 L400.0,259.6 L397.9,260.2 L396.6,260.5 L388.6,261.5 L376.7,262.5 L373.5,262.7 L370.3,263.0 L369.8,263.0 L369.4,262.9 L369.0,262.9 L368.6,262.9 L367.5,262.9 L363.0,264.0 L361.4,263.2 L360.1,262.8 L358.7,262.2 L357.1,262.0 L355.3,262.0 L352.8,261.7 L350.1,261.1 L349.6,260.9 L349.4,260.9 L348.0,260.6 L346.5,260.2 L345.9,260.1 L343.2,259.5 L338.9,258.1 L333.6,256.0 L329.2,254.2 L325.7,252.8 L322.2,249.8 L320.5,247.5 L318.8,245.2 L317.9,244.1 L317.0,243.0 L316.0,236.0 L316.3,235.5 L316.6,235.2 L316.7,235.1 L317.3,234.2 L318.0,233.2 L319.0,231.8 L319.4,231.3 L319.7,230.8 L322.1,228.4 L326.0,224.8 L330.1,222.2 L334.3,220.7 L337.0,219.7 L338.2,219.3 L347.4,217.8 L364.6,215.2 L373.9,213.9 L376.0,214.0 L378.0,213.0 Z M82.0,234.0 L106.0,234.0 L108.0,235.0 L109.0,239.0 L114.0,237.0 L116.0,234.0 L149.0,234.0 L151.0,237.0 L150.6,237.5 L150.2,238.0 L149.5,239.0 L148.8,240.0 L147.9,241.6 L147.4,244.2 L147.2,245.3 L147.1,245.8 L146.9,246.9 L146.7,248.3 L146.6,248.7 L146.6,248.9 L146.3,250.6 L145.8,253.0 L145.3,255.1 L144.4,258.4 L143.9,260.5 L143.8,260.8 L143.6,261.2 L143.5,261.6 L143.4,261.9 L143.2,262.3 L143.1,262.6 L143.0,263.0 L142.0,266.0 L117.0,265.0 L118.0,262.0 L116.0,257.0 L120.0,258.0 L124.0,255.0 L124.3,255.2 L124.9,255.7 L126.2,256.4 L129.2,257.6 L131.0,258.0 L134.0,257.0 L137.0,258.0 L137.2,257.5 L137.5,257.0 L138.0,256.0 L138.5,255.0 L139.2,252.8 L139.5,250.4 L139.7,248.6 L139.9,246.8 L140.0,245.0 L138.0,243.0 L130.0,246.0 L128.0,243.0 L104.0,243.0 L100.0,245.0 L97.0,243.0 L96.2,243.1 L95.5,243.2 L94.0,243.5 L92.5,243.8 L90.6,243.9 L89.7,243.6 L88.1,243.4 L85.8,243.2 L84.0,243.2 L82.8,243.4 L82.2,243.4 L81.6,243.5 L81.0,243.6 L80.4,243.7 L80.1,243.7 L79.8,243.7 L78.0,244.0 L77.6,244.4 L77.0,245.0 L76.5,245.5 L76.4,245.6 L76.0,246.0 L73.0,256.0 L73.8,256.2 L74.5,256.5 L76.0,257.0 L77.5,257.5 L81.0,258.0 L84.4,258.0 L85.0,258.0 L85.1,258.0 L86.3,258.0 L87.4,258.0 L87.7,258.0 L88.6,258.0 L90.2,257.9 L93.8,257.5 L96.0,257.0 L98.0,255.0 L103.0,258.0 L103.6,257.9 L104.7,257.6 L106.7,257.4 L109.6,257.1 L111.0,257.0 L114.0,258.0 L110.0,266.0 L93.0,266.0 L91.0,262.0 L87.0,266.0 L65.0,266.0 L64.0,264.0 L64.6,262.5 L65.5,260.5 L66.2,258.9 L66.4,258.5 L67.0,257.0 L67.0,254.0 L67.2,253.6 L67.5,253.2 L67.7,252.9 L68.2,251.9 L68.7,250.6 L69.1,249.0 L69.3,247.1 L70.1,243.7 L70.9,241.3 L71.3,239.6 L71.6,238.8 L71.9,237.6 L72.3,236.3 L74.0,234.0 Z M653.8,123.8 L659.3,129.5 L662.5,133.5 L663.5,135.8 L664.0,138.2 L664.0,140.5 L664.1,141.4 L664.1,142.3 L664.0,143.5 L663.9,144.9 L663.7,146.3 L662.8,148.5 L661.0,151.5 L656.9,155.8 L650.3,161.3 L646.6,164.2 L646.3,164.4 L645.9,164.7 L645.6,164.9 L640.0,168.0 L641.0,159.0 L641.5,155.7 L641.7,154.9 L642.5,152.0 L643.8,147.2 L644.9,143.1 L645.6,140.0 L646.5,136.6 L647.5,133.1 L648.5,129.6 L648.9,127.8 L649.3,126.1 L649.5,125.2 L649.8,124.3 L651.0,121.0 Z M506.0,115.0 L507.0,117.0 L506.7,117.9 L505.4,123.8 L502.8,135.0 L501.0,142.1 L500.0,145.2 L499.0,148.6 L497.9,152.4 L497.3,154.7 L497.1,155.4 L497.0,155.8 L496.0,160.0 L490.0,158.0 L488.5,155.7 L488.3,155.3 L488.1,155.0 L486.5,152.5 L484.9,150.0 L484.5,149.3 L483.0,147.0 L482.0,138.0 L482.2,137.5 L482.5,137.0 L483.0,136.0 L483.5,135.0 L484.3,133.3 L484.8,132.2 L485.1,131.3 L485.3,130.7 L485.4,130.5 L485.8,129.6 L488.5,126.8 L493.5,122.5 L496.3,120.1 L496.6,119.9 L496.9,119.6 L497.3,119.4 L506.0,115.0 Z M586.0,164.0 L587.0,168.0 L586.0,171.0 L588.0,174.0 L614.0,175.0 L602.8,178.2 L597.0,179.7 L593.0,180.6 L590.6,180.9 L589.7,180.6 L588.2,180.4 L586.1,180.2 L584.5,180.2 L583.9,180.3 L583.5,180.3 L583.4,180.4 L582.8,180.4 L560.0,181.0 L559.0,180.0 L558.4,180.0 L558.1,179.9 L557.8,179.9 L531.0,176.0 L531.0,175.0 L538.0,173.0 L538.6,172.2 L539.5,171.0 L540.2,170.1 L540.4,169.8 L541.0,169.0 L542.0,165.0 L542.4,165.4 L543.0,166.0 L543.5,166.5 L543.6,166.6 L544.0,167.0 L546.0,174.0 L579.0,174.0 L580.2,172.4 L581.9,170.1 L583.2,168.3 L583.5,167.8 L584.8,166.2 L586.0,164.0 Z M567.8,101.0 L578.3,101.6 L595.8,102.5 L600.2,103.1 L603.4,103.8 L606.7,104.4 L608.4,104.7 L610.0,105.0 L614.0,107.0 L587.0,108.0 L579.0,118.0 L579.0,110.0 L577.0,108.0 L533.0,108.0 L534.0,105.0 L535.4,104.9 L538.5,104.5 L539.1,104.4 L539.4,104.3 L542.4,103.9 L545.3,103.5 L546.1,103.3 L547.8,103.1 L548.6,103.0 L548.9,102.9 L566.0,102.0 L567.0,101.0 Z M329.0,107.0 L330.0,107.0 L330.0,107.6 L330.0,108.2 L330.0,109.5 L330.0,110.8 L329.6,112.9 L328.9,114.6 L328.2,117.0 L327.8,118.4 L327.4,119.9 L327.2,120.6 L327.1,121.3 L323.0,134.0 L321.9,132.9 L320.5,131.5 L319.4,130.4 L319.1,130.1 L318.0,129.0 L316.0,122.0 L320.0,113.0 L329.0,107.0 Z M421.0,111.0 L427.0,116.0 L429.0,124.0 L426.0,131.0 L424.6,132.0 L422.8,133.4 L421.3,134.4 L420.9,134.7 L419.6,135.7 L416.0,137.0 L415.0,134.0 L415.1,133.7 L415.3,133.3 L415.6,132.5 L421.0,111.0 Z M352.0,140.0 L354.0,140.0 L358.0,144.0 L375.0,144.0 L379.0,141.0 L382.0,144.0 L389.0,145.0 L385.0,148.0 L383.3,147.6 L380.9,147.4 L377.1,147.1 L374.9,146.9 L374.6,146.9 L374.2,146.9 L372.5,147.0 L368.4,147.0 L350.0,146.0 L350.0,143.0 L352.0,140.0 Z M549.8,244.0 L550.5,245.0 L551.2,246.0 L551.6,246.5 L552.0,247.0 L553.0,253.0 L548.0,258.0 L546.0,258.0 L549.0,243.0 Z M409.5,172.0 L410.0,173.0 L410.5,174.0 L410.8,174.5 L411.0,175.0 L411.0,176.0 L400.0,177.0 L397.0,175.0 L397.0,172.0 L409.0,171.0 Z M336.0,171.0 L343.0,171.0 L348.0,174.0 L347.0,177.0 L336.0,177.0 L335.0,173.0 L336.0,171.0 Z M486.0,242.0 L488.0,242.0 L487.1,246.8 L486.8,248.8 L485.0,256.0 L482.0,256.0 L481.0,247.0 L486.0,242.0 Z M602.2,244.0 L602.8,246.0 L602.8,248.8 L602.5,250.5 L602.2,252.2 L602.1,253.1 L602.0,254.0 L600.0,257.0 L597.0,252.0 L598.0,246.0 L602.0,243.0 Z M666.0,245.0 L668.0,246.0 L669.0,252.0 L665.0,258.0 L661.0,259.0 L661.8,256.3 L662.0,255.8 L662.1,255.5 L663.0,252.5 L663.9,249.5 L664.2,248.7 L665.0,246.0 L666.0,245.0 Z M357.0,184.0 L369.0,184.0 L369.0,188.0 L357.0,189.0 L355.0,185.0 L357.0,184.0 Z M385.0,196.0 L386.0,199.0 L377.0,205.0 L376.8,203.9 L376.5,202.5 L376.3,201.4 L376.2,201.1 L376.0,200.0 L377.0,197.0 L385.0,196.0 Z M368.0,156.0 L369.0,156.0 L369.0,165.0 L358.0,165.0 L359.2,163.7 L360.8,161.9 L362.1,160.5 L362.4,160.1 L363.6,158.8 L368.0,156.0 Z M317.0,185.0 L326.0,185.0 L328.0,190.0 L327.0,192.0 L322.0,191.0 L317.0,185.0 Z M548.2,136.0 L548.5,137.0 L548.8,138.0 L548.9,138.5 L549.0,139.0 L548.0,145.0 L552.0,147.0 L556.0,145.0 L555.0,149.0 L553.9,149.2 L552.5,149.5 L551.4,149.7 L551.1,149.8 L550.0,150.0 L544.0,149.0 L547.0,136.0 L548.0,135.0 Z M361.0,195.0 L369.0,198.0 L368.0,204.0 L363.0,202.0 L360.0,198.0 L361.0,195.0 Z M377.0,185.0 L389.0,185.0 L390.0,188.0 L378.0,189.0 L376.0,188.0 L377.0,185.0 Z M358.1,172.1 L360.3,172.3 L362.0,172.5 L363.8,172.7 L368.0,174.0 L368.0,176.0 L355.0,177.0 L355.0,173.0 L357.0,172.0 Z M375.4,97.9 L376.3,97.9 L376.7,97.9 L382.0,98.0 L384.0,100.0 L379.0,103.0 L378.7,102.9 L378.5,102.8 L378.0,102.5 L377.6,102.4 L377.4,102.3 L374.5,101.6 L369.6,100.8 L366.7,100.3 L366.0,100.3 L365.6,100.3 L361.0,100.0 L361.0,99.0 L374.9,97.9 Z M379.3,172.1 L379.9,172.2 L381.7,172.4 L384.9,172.7 L386.5,172.8 L390.0,172.0 L390.0,176.0 L377.0,177.0 L377.0,173.0 L379.0,172.0 Z M421.0,169.0 L428.0,175.0 L428.0,176.0 L420.0,176.0 L418.0,174.0 L418.0,170.0 L421.0,169.0 Z M377.0,157.0 L381.0,158.0 L385.0,163.0 L384.0,165.0 L377.0,164.0 L377.0,157.0 Z M423.0,184.0 L427.0,185.0 L426.4,186.1 L425.5,187.5 L424.8,188.6 L424.6,188.9 L424.0,190.0 L421.0,192.0 L418.0,191.0 L420.0,185.0 L423.0,184.0 Z M324.0,169.0 L327.0,172.0 L326.0,176.0 L320.0,177.0 L318.0,176.0 L318.4,175.2 L319.0,174.0 L319.5,173.1 L319.6,172.8 L320.0,172.0 L324.0,169.0 Z M187.0,125.0 L188.0,125.0 L189.0,136.0 L184.0,138.0 L184.0,136.9 L184.0,135.5 L184.0,134.4 L184.0,134.1 L184.0,133.0 L187.0,125.0 Z M346.0,196.0 L351.0,198.0 L353.0,202.0 L343.0,198.0 L346.0,196.0 Z M350.0,160.0 L353.0,161.0 L351.0,164.0 L346.0,165.0 L344.0,163.0 L350.0,160.0 Z M392.0,159.0 L399.0,162.0 L398.0,164.0 L394.0,163.0 L391.0,160.0 L392.0,159.0 Z M562.2,144.2 L562.8,144.8 L569.0,150.0 L564.0,151.0 L562.0,148.0 L562.0,144.0 Z M395.0,197.0 L399.0,197.0 L399.0,199.0 L393.0,201.0 L395.0,197.0 Z M569.0,131.0 L573.0,132.0 L574.0,133.0 L574.0,138.0 L572.2,135.8 L571.0,134.3 L569.0,131.0 Z M151.0,59.0 L154.0,62.0 L151.0,63.0 L147.0,61.0 L151.0,59.0 Z M520.0,234.0 L522.0,235.0 L521.0,238.0 L518.0,237.0 L520.0,234.0 Z M586.0,144.0 L588.0,148.0 L586.0,150.0 L585.0,145.0 L586.0,144.0 Z M553.0,132.0 L557.0,133.0 L556.0,136.0 L553.0,132.0 Z M605.0,132.0 L609.0,133.0 L606.0,135.0 L605.0,132.0 Z M538.0,144.0 L540.0,146.0 L537.0,147.0 L538.0,144.0 Z" fill="#ffffff"/>
<path d="M370.2,88.8 L377.5,88.8 L382.3,89.2 L389.6,90.1 L394.6,90.8 L397.2,91.2 L400.8,92.1 L405.5,93.5 L409.0,94.5 L411.4,95.4 L415.0,96.8 L417.5,97.9 L419.2,98.6 L419.9,98.9 L421.1,99.4 L422.0,99.8 L422.4,99.9 L437.0,115.0 L437.8,121.6 L438.1,124.4 L438.0,125.4 L438.0,125.9 L438.0,128.0 L437.2,129.3 L436.7,130.1 L436.5,130.5 L434.9,133.0 L433.9,134.8 L433.5,135.3 L433.4,135.5 L430.1,139.6 L426.5,142.6 L423.3,144.9 L420.4,146.3 L419.6,146.7 L418.7,147.1 L418.4,147.3 L418.0,147.4 L417.7,147.6 L410.0,151.0 L409.0,153.0 L410.7,153.3 L414.1,154.5 L416.9,155.7 L419.7,156.9 L421.2,157.5 L422.6,158.1 L435.0,169.0 L434.0,171.0 L431.3,168.5 L425.8,163.5 L422.5,160.8 L421.5,160.4 L421.3,160.3 L421.1,160.2 L406.0,154.0 L405.0,150.0 L405.7,149.4 L406.2,149.0 L406.4,148.8 L409.1,146.4 L411.7,144.6 L412.9,144.1 L413.8,143.7 L414.1,143.5 L414.8,143.3 L415.2,143.1 L415.4,143.0 L428.0,136.0 L428.8,134.5 L430.0,132.5 L430.9,130.9 L431.2,130.5 L431.7,129.6 L432.0,129.0 L432.0,126.0 L431.4,127.5 L430.5,129.5 L429.8,131.1 L429.6,131.5 L429.0,133.0 L421.0,140.0 L415.0,140.0 L414.0,139.0 L415.1,122.4 L416.1,114.9 L418.0,109.0 L420.0,107.0 L424.0,108.0 L431.0,115.0 L429.8,113.3 L428.5,111.5 L427.3,109.8 L421.5,105.8 L417.0,103.5 L412.5,101.3 L410.3,100.1 L408.7,99.4 L408.0,99.0 L404.0,99.0 L406.0,103.0 L404.0,105.0 L381.0,105.0 L380.8,106.5 L380.5,108.5 L380.3,110.1 L380.2,110.5 L380.0,112.0 L377.0,117.0 L373.0,117.0 L371.0,111.0 L371.4,110.2 L372.0,109.0 L372.5,108.1 L372.6,107.8 L373.0,107.0 L373.0,105.0 L342.0,105.0 L339.0,101.0 L342.0,98.0 L332.0,101.0 L332.0,103.0 L335.0,107.0 L328.0,136.0 L323.0,139.0 L314.0,131.0 L314.5,131.8 L315.0,132.5 L316.0,134.0 L317.0,135.5 L319.2,137.7 L320.3,138.4 L321.5,139.2 L323.0,140.1 L323.7,140.5 L324.0,140.7 L333.0,145.0 L334.0,147.0 L339.0,149.0 L338.0,151.0 L332.8,150.3 L330.3,149.5 L329.0,148.6 L326.8,147.3 L323.7,145.7 L320.8,143.8 L318.0,141.8 L315.0,139.1 L311.7,135.7 L309.3,131.4 L308.0,126.2 L307.3,123.1 L307.2,122.2 L307.2,121.6 L307.0,120.4 L307.5,118.3 L308.0,116.5 L308.5,114.8 L308.8,113.9 L309.0,113.0 L315.0,106.0 L319.0,105.0 L321.0,101.0 L324.7,99.4 L325.4,99.1 L325.8,98.9 L329.8,97.1 L333.9,95.4 L334.3,95.2 L335.0,94.9 L339.2,93.1 L340.1,92.8 L344.3,91.9 L351.8,90.6 L356.1,90.0 L357.2,90.0 L360.9,90.0 L362.3,89.9 L363.0,89.6 L363.3,89.5 L369.8,88.8 Z M572.7,88.8 L581.2,88.8 L583.2,89.0 L587.9,89.5 L589.0,90.0 L592.0,89.0 L592.3,89.1 L592.7,89.2 L593.9,89.6 L594.7,89.8 L595.3,90.0 L595.7,90.1 L595.9,90.2 L596.7,90.4 L598.4,90.7 L600.8,90.9 L603.4,91.2 L605.9,91.6 L606.3,91.7 L606.5,91.7 L608.3,92.0 L610.1,92.3 L611.0,92.4 L615.2,93.1 L620.2,94.1 L625.2,95.5 L629.4,96.7 L632.8,97.9 L639.7,101.1 L644.8,103.7 L649.9,106.4 L655.3,109.2 L655.8,109.5 L659.8,113.4 L667.4,120.7 L672.2,126.3 L674.5,130.3 L675.9,134.7 L676.6,139.6 L676.9,142.3 L676.7,142.9 L676.2,144.8 L675.8,146.4 L675.3,148.1 L675.1,149.2 L674.8,150.3 L674.6,151.3 L674.4,152.1 L674.3,152.6 L674.3,152.7 L674.1,153.5 L670.8,157.8 L664.3,165.5 L657.8,171.4 L651.4,175.4 L647.2,177.9 L645.4,178.8 L634.7,182.2 L615.2,187.9 L604.4,191.0 L602.3,191.3 L589.1,191.8 L564.8,192.5 L551.1,192.5 L548.2,191.8 L544.0,191.2 L538.7,190.4 L529.0,188.0 L522.0,186.0 L517.2,184.6 L515.0,184.0 L507.5,181.8 L506.5,181.4 L503.8,180.1 L499.4,177.9 L496.5,176.3 L494.9,175.5 L490.0,171.8 L481.7,165.2 L476.3,159.7 L474.0,155.4 L472.1,149.8 L470.7,142.8 L470.0,138.4 L470.0,136.8 L472.1,132.0 L476.3,123.9 L481.2,117.2 L487.0,111.9 L490.9,108.6 L492.6,107.7 L493.0,107.5 L493.8,107.1 L494.6,106.7 L494.9,106.5 L496.1,105.9 L504.9,102.5 L521.0,96.5 L525.2,94.9 L529.4,93.4 L530.1,93.3 L531.9,92.9 L534.5,92.4 L534.9,92.4 L535.1,92.3 L536.4,92.1 L537.7,91.8 L538.3,91.7 L540.6,91.3 L542.1,91.0 L542.7,90.9 L543.1,90.8 L543.5,90.7 L572.2,88.8 Z M502.4,107.5 L491.3,114.1 L483.9,119.6 L480.3,123.9 L477.4,128.8 L475.2,134.2 L474.4,140.0 L474.8,146.0 L476.0,151.0 L478.0,155.0 L480.1,158.3 L481.2,159.6 L482.3,160.9 L483.0,161.8 L483.6,162.6 L484.2,163.2 L486.9,165.4 L491.6,169.1 L495.8,171.9 L499.4,173.6 L501.7,174.7 L502.7,175.2 L504.7,176.0 L506.8,176.9 L514.0,179.7 L516.4,180.7 L518.0,181.3 L518.8,181.6 L521.1,182.5 L524.4,183.5 L528.7,184.5 L531.2,185.1 L534.2,185.5 L539.8,186.4 L547.6,187.1 L548.9,187.2 L549.7,187.3 L556.9,187.9 L564.1,188.5 L564.7,188.6 L564.8,188.6 L566.0,188.7 L573.0,189.3 L573.8,189.3 L586.7,187.6 L599.2,185.9 L611.7,184.2 L625.6,182.1 L628.4,181.4 L633.4,179.7 L640.7,176.9 L644.8,175.2 L645.7,174.6 L647.4,173.5 L650.0,172.0 L654.0,169.4 L659.3,165.8 L662.2,163.7 L662.8,163.2 L664.1,161.7 L666.1,159.3 L667.3,157.5 L667.8,156.5 L669.0,154.0 L671.0,150.0 L671.9,144.3 L671.6,137.0 L670.3,131.2 L668.2,126.9 L664.1,121.8 L658.1,116.1 L653.7,112.3 L651.4,110.9 L650.9,110.7 L650.8,110.6 L649.8,110.0 L648.8,109.5 L648.5,109.3 L647.7,108.8 L647.3,108.5 L638.1,105.2 L621.2,99.5 L608.1,95.9 L603.4,95.3 L600.2,94.8 L599.1,94.7 L598.7,94.6 L596.1,94.3 L594.3,94.1 L593.7,94.0 L593.5,94.0 L592.6,93.9 L589.4,93.7 L588.9,93.6 L588.5,93.6 L585.6,93.4 L582.6,93.2 L581.7,93.2 L578.6,93.0 L577.7,92.9 L577.3,92.9 L508.0,104.2 Z M354.0,164.0 L358.0,165.0 L358.0,170.0 L354.0,173.0 L354.1,173.5 L354.1,174.1 L354.2,174.6 L354.2,174.9 L354.3,176.0 L354.5,177.2 L354.5,178.0 L354.6,178.5 L354.6,178.7 L354.7,179.3 L354.7,181.5 L354.6,183.3 L354.6,185.1 L354.6,186.0 L354.5,186.9 L354.0,189.0 L354.4,189.2 L355.0,189.5 L355.4,189.7 L355.5,189.7 L355.9,189.9 L359.0,192.0 L360.0,200.0 L364.0,205.0 L380.0,205.0 L382.0,203.0 L386.0,203.0 L388.0,206.0 L389.5,205.8 L391.0,205.5 L392.5,205.2 L396.5,203.5 L399.0,202.0 L401.5,200.5 L402.8,199.8 L404.0,199.0 L406.0,196.0 L405.0,194.0 L405.3,193.9 L405.8,193.7 L406.4,193.5 L407.1,193.3 L407.5,193.2 L407.7,193.1 L408.2,193.0 L408.4,192.9 L408.9,192.7 L409.1,192.7 L409.5,192.5 L413.0,191.0 L415.0,195.0 L410.0,196.0 L407.0,199.0 L409.0,205.0 L403.0,208.0 L403.0,212.0 L403.9,212.3 L408.9,214.4 L413.6,216.5 L418.3,218.6 L425.0,222.5 L428.9,226.4 L431.6,229.8 L433.0,232.9 L433.4,233.7 L433.8,234.4 L434.0,243.0 L433.7,243.5 L433.3,244.1 L432.7,245.1 L432.0,246.2 L431.6,246.9 L431.3,247.3 L431.1,247.5 L430.8,248.1 L429.4,249.9 L426.9,252.7 L423.3,255.5 L418.6,258.3 L415.7,259.9 L414.8,260.4 L411.8,261.5 L404.1,263.9 L401.0,264.0 L404.0,262.0 L407.0,262.0 L407.0,260.0 L417.0,258.0 L418.0,255.0 L425.0,252.0 L430.0,245.0 L430.0,234.0 L427.8,231.8 L427.4,231.4 L427.2,231.1 L424.8,228.8 L422.4,226.4 L421.8,225.7 L420.4,224.3 L419.6,223.5 L417.0,222.0 L415.7,222.0 L414.0,222.0 L412.6,222.0 L412.3,222.0 L411.0,222.0 L407.0,220.0 L406.0,218.0 L400.8,216.5 L399.6,216.2 L398.5,215.9 L398.0,215.8 L397.7,215.7 L397.5,215.6 L390.7,214.8 L378.0,213.5 L370.4,212.8 L367.8,212.8 L363.1,213.1 L356.4,213.7 L352.2,214.2 L350.7,214.7 L348.8,215.2 L346.5,215.6 L341.0,217.4 L332.3,220.5 L325.4,224.1 L322.8,226.3 L321.0,227.8 L320.2,228.4 L317.6,230.6 L315.0,234.0 L315.0,243.0 L315.5,243.5 L316.0,244.0 L316.5,244.5 L319.1,247.2 L323.2,251.6 L325.5,254.2 L325.7,254.4 L326.0,254.7 L326.2,255.0 L326.5,255.3 L327.1,256.0 L330.0,259.0 L327.9,258.3 L325.8,257.5 L323.7,256.8 L319.5,254.3 L315.2,250.8 L312.2,247.5 L311.5,246.0 L310.8,244.5 L310.4,243.8 L310.0,243.0 L310.0,234.0 L312.0,234.0 L312.0,231.0 L314.0,230.0 L314.3,229.5 L314.6,228.9 L314.9,228.4 L316.9,225.9 L319.8,222.6 L320.3,222.0 L320.4,221.9 L321.3,220.8 L322.2,219.7 L322.4,219.5 L322.8,219.1 L323.0,218.9 L324.8,217.6 L327.9,215.8 L329.8,214.8 L330.5,214.5 L331.1,214.3 L331.4,214.2 L331.6,214.1 L332.0,213.9 L332.3,213.8 L333.5,213.3 L334.9,212.8 L335.8,212.4 L336.1,212.3 L337.0,212.0 L339.0,212.0 L337.0,207.0 L334.0,205.0 L334.0,203.0 L332.4,202.8 L330.5,202.2 L327.8,201.2 L325.8,200.3 L325.2,200.0 L324.6,199.6 L323.6,199.0 L323.3,198.8 L323.0,198.6 L322.7,198.4 L315.0,192.0 L316.0,190.0 L320.0,193.0 L329.0,193.0 L331.0,191.0 L343.0,193.0 L344.0,198.0 L344.5,198.2 L345.1,198.4 L345.6,198.6 L345.8,198.7 L346.2,198.9 L353.0,202.0 L351.0,196.0 L349.0,195.0 L349.0,185.0 L347.0,182.0 L349.0,173.0 L347.0,170.0 L347.0,167.0 L354.0,164.0 Z M406.0,147.3 L406.0,147.6 L406.0,147.9 L405.9,148.2 L407.0,154.0 L407.6,154.2 L408.2,154.3 L408.6,154.5 L408.7,154.5 L411.6,155.6 L416.3,157.5 L419.0,158.5 L419.7,158.8 L421.3,159.7 L423.8,161.2 L425.6,162.5 L426.6,163.5 L428.2,165.0 L429.3,166.0 L430.4,167.0 L431.6,168.0 L438.0,175.0 L439.0,182.0 L438.1,183.6 L437.2,185.2 L435.5,188.5 L433.8,191.8 L430.5,196.2 L429.0,197.5 L427.5,198.8 L425.6,200.3 L424.8,201.0 L420.8,203.2 L410.0,209.0 L408.0,210.0 L410.0,214.0 L403.0,213.0 L401.0,209.0 L406.0,205.0 L409.0,205.0 L406.0,201.0 L408.0,197.0 L413.0,194.0 L412.0,192.0 L410.0,194.0 L406.0,195.0 L406.0,198.0 L403.1,199.8 L402.6,200.1 L402.3,200.3 L399.1,202.3 L396.0,204.2 L395.2,204.8 L393.3,205.9 L392.6,206.4 L392.2,206.6 L391.0,207.0 L387.0,206.0 L385.0,202.0 L396.0,202.0 L400.0,199.0 L400.0,197.0 L388.0,196.0 L389.0,191.0 L391.0,189.0 L390.6,187.5 L390.0,185.3 L389.5,183.7 L389.4,183.2 L389.1,182.3 L389.0,181.9 L388.9,181.7 L388.0,180.0 L392.0,177.0 L397.0,178.0 L398.0,182.0 L397.0,183.0 L396.0,190.0 L397.7,190.3 L399.4,190.5 L401.1,190.8 L403.2,191.1 L403.7,191.1 L404.2,191.1 L405.2,191.1 L406.3,191.0 L407.3,191.0 L408.1,191.0 L408.3,191.0 L409.0,191.0 L413.0,189.0 L409.0,180.0 L412.0,178.0 L412.0,176.9 L412.0,175.5 L412.0,174.4 L412.0,174.1 L412.0,173.0 L410.0,169.0 L404.0,168.0 L402.0,162.0 L400.7,161.2 L399.0,160.0 L397.6,159.1 L397.3,158.8 L396.0,158.0 L390.0,157.0 L390.2,157.8 L390.5,158.5 L391.0,160.0 L391.5,161.5 L392.8,163.8 L393.5,164.5 L394.2,165.2 L394.6,165.6 L395.0,166.0 L398.0,167.0 L397.0,171.0 L395.7,171.2 L394.0,171.5 L392.6,171.7 L392.3,171.8 L391.0,172.0 L384.0,170.0 L387.0,161.0 L386.2,160.6 L385.0,160.0 L384.1,159.5 L383.8,159.4 L383.0,159.0 L381.0,156.0 L375.0,155.0 L375.0,157.0 L365.0,156.0 L360.0,160.0 L345.0,160.0 L343.0,167.0 L336.0,169.0 L334.0,168.0 L339.0,166.0 L339.0,162.0 L341.6,160.6 L342.0,160.4 L342.3,160.3 L345.1,158.8 L347.8,157.3 L348.6,156.9 L351.1,155.6 L357.0,154.0 L359.0,158.0 L368.0,152.0 L373.0,154.0 L377.0,152.0 L381.0,153.0 L386.0,158.0 L389.0,155.0 L391.0,155.2 L393.0,155.5 L395.0,155.8 L399.0,157.5 L401.0,159.0 L403.0,160.5 L404.0,161.2 L405.0,162.0 L407.0,166.0 L414.0,170.0 L416.0,166.0 L423.0,165.0 L430.0,172.0 L427.0,167.6 L422.2,164.1 L411.1,158.1 L401.0,153.0 L401.0,150.0 L406.0,147.0 Z M129.2,119.1 L131.3,119.3 L131.7,119.3 L132.4,119.4 L133.2,119.5 L133.3,119.5 L133.9,119.5 L135.0,119.6 L136.1,119.8 L137.0,119.9 L137.2,119.9 L138.0,120.0 L140.0,121.0 L140.0,123.0 L141.1,122.6 L142.5,122.0 L143.6,121.5 L143.9,121.4 L145.0,121.0 L147.0,119.0 L148.5,119.0 L150.5,119.0 L152.1,119.0 L152.5,119.0 L154.0,119.0 L158.0,121.0 L156.0,129.0 L154.0,125.0 L150.0,123.0 L146.0,127.0 L144.0,136.0 L142.0,136.0 L141.0,138.0 L135.0,138.0 L134.8,138.4 L134.5,139.0 L134.3,139.4 L134.3,139.5 L134.1,139.9 L132.0,143.0 L122.0,143.0 L121.0,142.0 L100.8,142.2 L98.9,142.1 L94.5,141.5 L91.0,140.0 L91.0,139.1 L91.0,138.2 L91.0,136.5 L91.0,134.8 L92.0,130.0 L93.0,127.0 L94.0,124.0 L94.5,122.5 L95.0,121.0 L96.0,120.0 L97.1,120.0 L98.5,120.0 L99.6,120.0 L99.9,120.0 L101.0,120.0 L106.0,122.0 L106.0,120.0 L110.2,120.0 L110.9,120.0 L111.4,120.0 L116.0,120.0 L120.6,120.0 L121.8,120.0 L126.0,120.0 L128.0,119.0 Z M573.7,99.7 L577.5,99.8 L584.2,99.9 L585.3,99.9 L586.0,99.9 L591.5,100.1 L597.1,100.2 L597.6,100.2 L597.7,100.2 L598.7,100.3 L604.3,100.4 L605.4,100.5 L609.4,101.1 L612.9,101.7 L616.5,102.4 L618.2,102.7 L620.0,103.0 L626.0,106.0 L627.0,110.0 L625.0,112.0 L621.2,112.0 L619.5,112.2 L618.0,113.0 L586.0,113.0 L581.0,118.0 L579.0,118.0 L579.0,110.0 L577.0,108.0 L533.0,108.0 L534.0,105.0 L538.0,105.0 L539.0,103.0 L571.9,99.7 Z M383.0,127.0 L387.0,128.0 L386.0,140.0 L387.0,141.0 L400.0,142.0 L401.0,146.0 L399.7,146.4 L398.3,146.7 L395.6,147.4 L393.8,147.9 L392.9,148.1 L387.5,148.9 L381.9,149.0 L380.2,149.1 L378.5,149.1 L377.3,149.1 L375.4,149.1 L374.8,149.1 L372.9,149.1 L372.1,149.1 L371.9,149.1 L370.3,149.1 L368.7,149.1 L367.6,149.1 L365.7,149.1 L365.1,149.1 L364.1,149.1 L363.2,149.0 L351.0,149.0 L351.0,147.0 L345.0,146.0 L345.1,145.5 L345.2,145.0 L345.5,144.0 L345.8,143.0 L346.6,141.3 L348.2,139.2 L351.0,131.0 L356.0,131.0 L356.4,131.8 L357.0,133.0 L357.5,133.9 L357.6,134.2 L358.0,135.0 L358.0,140.0 L375.0,139.0 L375.7,138.0 L376.4,136.9 L379.3,132.8 L381.0,130.1 L382.0,128.0 L383.0,127.0 Z M579.7,97.3 L580.9,97.4 L608.0,100.0 L608.0,101.0 L607.5,101.0 L606.7,101.0 L603.2,101.0 L601.9,101.0 L601.5,101.0 L597.1,100.9 L592.7,100.9 L590.4,100.9 L586.4,100.9 L585.9,100.9 L585.8,100.9 L585.1,100.9 L582.2,100.9 L581.3,100.9 L581.1,100.9 L578.9,100.8 L539.0,103.0 L538.0,106.0 L534.0,107.0 L577.0,107.0 L580.0,110.0 L579.0,118.0 L580.1,117.4 L581.6,116.5 L582.8,115.8 L583.1,115.6 L584.2,115.0 L587.0,112.0 L581.0,125.0 L577.0,127.0 L575.0,125.0 L575.0,113.0 L522.0,112.0 L520.0,110.0 L521.0,106.0 L523.0,104.0 L529.8,102.7 L530.9,102.5 L531.7,102.4 L539.0,101.0 L546.3,99.6 L547.0,99.5 L547.1,99.5 L548.3,99.3 L555.3,98.0 L556.3,97.9 L579.2,97.3 Z M507.0,110.0 L511.0,113.0 L510.1,117.8 L509.9,118.6 L509.8,119.2 L508.8,124.4 L507.7,129.6 L507.6,130.0 L507.6,130.1 L507.4,131.1 L506.7,134.6 L506.4,136.1 L506.3,136.7 L505.8,138.4 L505.7,138.9 L505.3,140.8 L504.8,142.7 L504.5,143.8 L503.2,149.1 L502.2,153.6 L501.7,156.4 L501.4,158.2 L501.3,159.0 L501.2,159.4 L501.0,161.0 L496.0,165.0 L492.0,164.0 L483.0,152.7 L479.8,148.5 L479.0,147.0 L478.0,138.0 L483.2,128.2 L489.2,121.8 L497.7,115.2 L499.9,113.6 L501.3,112.5 L502.0,112.0 L507.0,110.0 Z M503.4,116.4 L498.2,119.3 L495.2,121.0 L494.1,121.7 L484.0,132.0 L483.8,133.0 L483.6,133.9 L482.8,137.8 L482.4,140.2 L482.3,141.0 L482.2,141.4 L482.0,143.0 L491.0,159.0 L496.0,160.0 L496.2,158.7 L497.1,155.6 L498.7,150.1 L500.5,143.2 L502.6,135.0 L504.1,128.5 L506.1,119.3 L507.0,115.0 L506.0,115.0 Z M210.0,119.0 L215.0,119.0 L216.0,120.0 L216.0,141.0 L214.0,143.0 L213.1,142.8 L210.6,142.6 L204.0,142.0 L200.0,142.0 L200.1,140.7 L200.2,139.8 L200.4,138.9 L200.4,138.3 L200.5,137.9 L200.6,137.1 L200.6,136.8 L200.7,136.1 L200.7,135.8 L200.8,135.4 L200.8,135.2 L201.0,131.0 L199.0,134.0 L194.0,135.0 L192.0,140.0 L188.0,141.0 L192.0,136.0 L192.0,121.0 L198.2,120.9 L206.0,122.0 L210.0,119.0 Z M82.0,92.0 L252.0,92.0 L259.0,101.0 L259.0,103.0 L263.0,105.0 L264.0,109.0 L251.0,95.0 L251.0,93.0 L246.0,94.0 L246.2,94.8 L246.5,96.0 L246.7,96.9 L246.8,97.2 L247.0,98.0 L245.0,105.0 L244.0,105.0 L243.0,94.0 L170.0,95.0 L164.0,103.0 L163.0,103.0 L162.0,96.0 L161.0,95.0 L144.5,95.0 L141.7,95.0 L139.8,95.0 L122.0,95.0 L104.2,95.0 L102.6,95.0 L102.3,95.0 L99.5,95.0 L83.0,95.0 L81.0,96.0 L82.0,92.0 Z M354.0,164.0 L358.0,165.0 L358.0,170.0 L354.0,173.0 L354.1,173.5 L354.1,174.1 L354.2,174.6 L354.2,174.9 L354.3,176.0 L354.5,177.2 L354.5,178.0 L354.6,178.5 L354.6,178.7 L354.7,179.3 L354.7,181.5 L354.6,183.3 L354.6,185.1 L354.6,186.0 L354.5,186.9 L354.0,189.0 L354.4,189.2 L355.0,189.5 L355.4,189.7 L355.5,189.7 L355.9,189.9 L359.0,192.0 L360.0,200.0 L364.0,205.0 L380.0,205.0 L382.0,203.0 L385.0,204.0 L384.4,204.6 L383.5,205.5 L382.8,206.2 L382.6,206.4 L382.0,207.0 L378.0,209.0 L376.5,208.8 L374.5,208.5 L372.9,208.3 L372.5,208.2 L371.0,208.0 L368.0,209.0 L359.0,204.0 L356.0,207.0 L355.2,206.9 L354.5,206.8 L353.0,206.5 L351.5,206.2 L347.6,204.3 L340.3,199.3 L339.0,198.0 L339.0,194.0 L332.4,194.0 L330.0,194.5 L329.0,195.0 L328.0,195.5 L327.5,195.8 L327.0,196.0 L322.0,196.0 L321.0,194.0 L329.0,193.0 L331.0,191.0 L343.0,193.0 L344.0,198.0 L344.5,198.2 L345.1,198.4 L345.6,198.6 L345.8,198.7 L346.2,198.9 L353.0,202.0 L351.0,196.0 L349.0,195.0 L349.0,185.0 L347.0,182.0 L349.0,173.0 L347.0,170.0 L347.0,167.0 L354.0,164.0 Z M81.8,245.0 L85.2,245.0 L87.5,245.2 L88.5,245.8 L93.5,246.2 L102.5,246.8 L108.2,246.5 L110.8,245.5 L113.2,245.0 L115.6,244.9 L117.4,244.9 L118.4,244.9 L119.1,244.9 L119.6,244.9 L119.8,245.0 L120.6,245.0 L121.5,245.2 L122.5,245.8 L123.8,246.1 L125.4,246.2 L126.7,246.3 L127.6,246.4 L128.5,246.5 L129.3,246.5 L130.1,246.6 L130.6,246.6 L130.9,246.6 L131.5,246.7 L131.7,246.7 L137.0,247.0 L137.0,252.0 L136.0,253.0 L123.2,253.0 L118.5,253.2 L118.0,253.5 L117.5,253.8 L117.2,253.9 L117.0,254.0 L96.0,254.0 L95.0,255.0 L77.0,255.0 L77.0,248.0 L80.0,245.0 Z M71.2,183.2 L72.5,184.5 L73.8,185.8 L74.4,186.4 L75.0,187.0 L76.0,190.0 L244.0,190.0 L244.0,191.0 L75.0,191.0 L74.4,190.4 L73.5,189.5 L72.8,188.8 L72.6,188.6 L72.0,188.0 L70.0,182.0 Z M618.0,261.0 L623.0,261.0 L623.0,263.0 L641.0,261.0 L649.0,265.0 L649.0,267.0 L658.0,267.0 L658.0,268.0 L643.0,268.0 L641.0,264.0 L636.5,264.0 L634.5,264.2 L634.0,264.5 L633.5,264.8 L633.2,264.9 L633.0,265.0 L619.0,265.0 L617.0,267.0 L607.0,267.0 L601.0,263.0 L604.0,262.0 L604.8,262.4 L606.0,263.0 L606.9,263.5 L607.2,263.6 L608.0,264.0 L615.0,264.0 L618.0,261.0 Z M410.0,233.0 L413.0,233.0 L412.0,244.0 L405.0,244.0 L403.0,241.0 L399.0,241.0 L399.0,235.0 L399.5,235.0 L400.3,234.9 L401.2,234.8 L402.1,234.7 L402.7,234.6 L403.1,234.6 L403.9,234.5 L404.2,234.5 L404.9,234.4 L405.2,234.4 L405.8,234.3 L410.0,233.0 Z M413.0,233.0 L415.0,233.0 L415.0,241.0 L412.0,243.0 L413.0,233.0 Z M660.0,116.5 L661.0,117.0 L662.0,117.5 L662.5,117.8 L663.0,118.0 L669.0,124.0 L668.0,127.0 L659.0,117.0 L659.0,116.0 Z M319.0,221.0 L322.0,222.0 L315.0,227.0 L315.7,225.9 L316.6,224.4 L317.3,223.2 L317.5,222.9 L318.1,221.8 L319.0,221.0 Z" fill="#818181"/>
<path d="M567.5,130.0 L578.0,130.2 L593.9,130.6 L608.6,130.9 L626.0,130.0 L628.0,132.0 L627.0,149.0 L626.0,150.0 L613.0,150.0 L610.0,148.0 L609.2,148.4 L608.0,149.0 L607.1,149.5 L606.8,149.6 L606.0,150.0 L601.0,150.0 L602.0,139.0 L595.0,151.0 L593.9,151.0 L592.0,151.0 L591.4,151.0 L590.1,151.0 L589.5,151.0 L589.4,151.0 L588.3,151.0 L587.2,151.0 L586.6,150.9 L585.5,150.9 L585.1,150.9 L584.2,150.9 L583.8,150.9 L583.1,150.9 L564.0,152.0 L561.0,149.0 L560.3,149.1 L559.6,149.2 L559.1,149.3 L558.8,149.3 L558.3,149.4 L557.7,149.5 L556.9,149.6 L555.6,150.0 L553.0,151.0 L518.0,151.0 L517.0,150.0 L517.0,147.5 L517.0,144.0 L517.0,141.3 L517.0,140.5 L517.0,138.0 L520.0,131.0 L557.0,131.0 L559.0,133.0 L564.0,133.0 L567.0,130.0 Z M181.0,227.0 L266.0,227.0 L269.0,230.0 L268.9,230.2 L268.8,230.5 L268.3,231.5 L267.6,234.4 L266.8,239.3 L265.9,243.2 L265.0,246.1 L263.9,250.4 L262.8,256.2 L261.8,261.0 L260.8,264.7 L259.8,267.4 L259.2,268.3 L258.6,269.1 L258.0,270.0 L254.0,273.0 L172.0,273.0 L169.0,270.0 L169.1,269.2 L169.2,268.5 L169.5,267.0 L169.8,265.5 L170.8,263.0 L172.2,261.0 L173.6,256.2 L174.9,248.6 L176.1,241.9 L176.8,238.9 L177.4,236.0 L177.7,234.5 L178.0,233.0 L179.0,229.0 L181.0,227.0 Z M206.8,234.2 L205.9,234.3 L204.1,234.3 L203.5,234.3 L201.7,234.4 L201.0,234.4 L200.7,234.4 L199.5,234.5 L198.2,234.5 L197.6,234.6 L196.3,234.6 L196.0,234.6 L195.4,234.6 L194.7,234.7 L185.0,235.0 L184.1,237.8 L184.0,238.3 L183.9,238.6 L182.9,241.6 L182.0,244.7 L181.7,245.5 L180.9,248.2 L179.0,257.0 L177.0,257.0 L176.8,257.8 L176.5,259.0 L176.3,259.9 L176.2,260.2 L176.0,261.0 L177.0,265.0 L198.0,266.0 L201.0,262.0 L201.8,262.5 L202.8,263.3 L203.6,263.9 L203.9,264.0 L204.3,264.4 L204.6,264.6 L206.0,266.0 L206.4,266.0 L207.0,266.0 L207.5,266.0 L207.6,266.0 L208.0,266.0 L221.0,267.0 L224.0,264.0 L224.0,263.0 L229.0,262.0 L230.0,266.0 L253.0,265.0 L255.7,258.4 L256.6,255.8 L256.7,255.1 L257.6,251.3 L258.4,247.9 L259.0,245.6 L259.2,244.9 L259.3,244.6 L259.8,242.3 L260.2,240.8 L260.4,240.1 L260.6,238.9 L260.9,237.8 L261.0,237.3 L261.1,236.7 L261.0,235.0 L252.7,234.2 L249.5,233.9 L247.1,233.9 L245.7,233.9 L244.9,233.9 L242.0,233.9 L239.1,233.9 L238.5,233.9 L238.2,233.9 L236.9,233.9 L234.6,233.9 L232.7,234.0 L229.6,234.3 L228.9,234.4 L228.1,234.5 L227.0,235.0 L226.0,237.0 L221.0,237.0 L218.0,234.0 L207.3,234.2 Z M9.0,45.0 L112.0,45.0 L121.9,53.5 L122.2,54.2 L122.3,54.7 L122.4,55.0 L122.8,56.4 L123.1,57.4 L123.3,57.9 L123.8,60.0 L123.9,61.3 L123.2,64.0 L121.8,68.0 L119.3,71.5 L115.8,74.5 L112.8,76.3 L110.2,76.9 L107.0,77.2 L103.3,77.2 L100.8,77.2 L100.4,77.2 L100.3,77.2 L99.4,77.2 L99.0,77.2 L98.9,77.2 L97.5,77.2 L96.2,77.2 L94.9,77.2 L92.5,77.2 L91.5,77.2 L88.9,77.2 L88.1,77.2 L87.8,77.2 L83.8,77.2 L77.9,77.2 L75.8,77.2 L70.9,77.2 L69.7,77.2 L68.9,77.2 L63.8,77.1 L61.7,77.1 L61.2,77.1 L61.0,77.1 L56.6,77.1 L52.1,77.1 L47.6,77.1 L39.4,77.1 L38.3,77.1 L38.0,77.1 L35.2,77.1 L23.7,77.0 L19.8,77.0 L19.0,77.0 L10.0,77.0 L3.0,73.0 L3.0,71.0 L113.0,71.0 L118.0,66.0 L118.0,56.0 L113.0,51.0 L101.5,50.1 L97.0,49.9 L20.7,49.7 L17.5,49.9 L12.6,50.3 L9.4,50.7 L8.0,51.3 L6.3,51.7 L4.5,52.0 L3.6,52.1 L2.0,52.0 L3.0,49.0 L9.0,45.0 Z M232.1,44.9 L292.1,45.0 L299.8,45.4 L300.7,45.7 L301.5,46.1 L302.9,46.6 L303.8,47.0 L304.3,47.2 L307.7,49.3 L312.0,58.0 L311.8,59.1 L311.6,60.2 L310.7,64.6 L309.7,67.9 L308.6,70.0 L307.4,71.5 L306.4,72.3 L305.8,72.8 L305.4,73.2 L305.3,73.3 L304.9,73.6 L304.7,73.8 L303.7,74.4 L302.3,75.2 L300.4,75.7 L297.9,76.0 L296.1,76.1 L292.0,76.1 L290.9,76.1 L289.2,76.1 L283.7,76.1 L277.3,76.1 L274.3,76.1 L273.9,76.1 L272.5,76.1 L266.7,76.1 L221.0,76.0 L211.0,68.0 L209.0,58.0 L209.8,56.3 L211.0,54.0 L211.9,52.2 L212.2,51.7 L213.0,50.0 L218.0,46.0 L231.6,44.9 Z M218.0,51.0 L215.0,53.0 L213.0,61.0 L216.0,68.0 L216.3,68.2 L216.6,68.4 L217.2,68.7 L217.6,69.0 L217.7,69.1 L218.2,69.4 L218.6,69.6 L219.3,70.0 L220.7,70.7 L222.9,71.6 L224.8,72.0 L226.4,72.1 L227.6,72.1 L228.3,72.1 L228.8,72.1 L229.6,72.1 L230.3,72.1 L230.8,72.1 L231.7,72.1 L232.4,72.2 L233.2,72.2 L235.1,72.2 L237.3,72.2 L238.6,72.2 L239.1,72.2 L241.6,72.2 L243.1,72.2 L244.1,72.2 L244.6,72.2 L247.9,72.2 L250.8,72.2 L253.0,72.2 L253.7,72.2 L258.5,72.2 L259.0,72.2 L259.3,72.2 L261.8,72.2 L264.4,72.2 L265.0,72.2 L265.3,72.2 L270.3,72.2 L270.9,72.2 L271.2,72.2 L273.4,72.2 L276.0,72.2 L276.7,72.2 L276.9,72.2 L280.3,72.2 L280.9,72.2 L281.0,72.2 L281.9,72.2 L283.0,72.2 L283.5,72.2 L285.8,72.2 L286.3,72.2 L286.4,72.2 L287.5,72.2 L289.1,72.2 L289.7,72.2 L289.9,72.2 L291.6,72.2 L292.0,72.2 L292.1,72.2 L292.4,72.2 L293.1,72.3 L295.4,72.1 L300.6,71.5 L304.0,70.0 L308.0,62.0 L307.8,60.7 L307.5,59.0 L307.3,57.6 L307.2,57.3 L307.1,56.5 L307.0,56.0 L304.0,51.0 L300.2,49.5 L297.2,48.9 L293.5,48.8 L292.3,48.8 L291.5,48.7 L291.1,48.7 L287.1,48.7 L284.4,48.7 L283.1,48.7 L279.8,48.7 L275.9,48.7 L274.8,48.7 L274.2,48.7 L270.3,48.7 L257.9,48.7 L245.5,48.7 L242.4,48.7 L242.0,48.7 L241.3,48.7 L238.1,48.7 L234.3,48.7 L233.3,48.7 L233.0,48.7 L231.3,48.7 L230.0,48.7 L229.8,48.7 L229.5,48.7 L218.0,51.0 Z M541.0,162.0 L545.0,163.0 L548.0,171.0 L577.0,171.0 L585.0,162.0 L589.0,162.0 L590.0,173.0 L619.0,173.0 L619.0,176.0 L618.0,176.4 L616.7,176.9 L615.6,177.4 L615.3,177.5 L614.0,178.0 L613.4,178.3 L607.5,179.3 L596.3,181.2 L587.2,182.2 L581.3,182.2 L580.2,182.2 L580.0,182.2 L578.1,182.2 L576.2,182.2 L575.8,182.2 L574.7,182.2 L569.4,182.0 L564.1,181.7 L544.0,180.6 L533.7,179.8 L533.3,179.6 L532.9,179.4 L532.0,178.8 L531.4,178.4 L531.0,178.2 L530.6,177.9 L530.3,177.8 L525.0,175.0 L527.0,173.0 L537.0,171.0 L541.0,162.0 Z M146.6,44.9 L188.4,45.0 L193.7,45.4 L194.9,45.9 L195.7,46.3 L196.3,46.6 L196.4,46.7 L197.1,47.0 L198.3,47.8 L199.9,48.8 L201.0,49.7 L201.5,50.3 L201.9,50.7 L202.8,51.7 L203.3,52.3 L203.8,52.8 L204.2,53.8 L204.7,55.3 L205.0,57.2 L205.0,59.5 L205.1,61.3 L205.0,62.3 L205.0,62.8 L205.0,65.0 L203.9,66.5 L202.3,68.6 L201.1,70.3 L200.8,70.8 L199.6,72.3 L196.0,75.0 L182.9,75.8 L177.6,76.1 L176.0,76.1 L173.4,76.1 L172.6,76.1 L170.0,76.1 L168.9,76.1 L168.5,76.1 L166.4,76.1 L164.2,76.1 L162.8,76.1 L160.1,76.1 L159.7,76.1 L158.7,76.1 L154.6,76.0 L153.3,76.0 L152.7,76.0 L144.4,76.0 L139.3,75.7 L138.1,75.1 L137.3,74.7 L136.8,74.4 L136.6,74.4 L135.9,74.0 L134.6,73.2 L133.0,71.8 L131.7,70.7 L131.4,70.2 L131.1,69.9 L131.0,69.8 L130.6,69.3 L130.2,68.8 L129.5,67.9 L129.3,67.7 L129.1,67.4 L128.0,66.0 L127.0,58.0 L127.6,56.7 L128.5,55.0 L129.2,53.6 L129.4,53.3 L130.0,52.0 L137.0,46.0 L146.2,44.9 Z M139.5,49.8 L138.0,50.5 L136.5,51.3 L135.0,52.0 L132.0,56.0 L132.3,62.4 L132.8,65.4 L133.6,67.1 L134.4,68.4 L135.2,69.0 L135.7,69.4 L136.0,69.6 L136.1,69.7 L136.3,69.9 L136.5,70.0 L137.5,70.6 L139.0,71.2 L141.5,71.7 L145.0,72.0 L147.1,72.1 L179.7,72.2 L183.9,71.9 L187.3,71.6 L190.8,71.3 L194.2,71.0 L197.0,70.0 L201.0,65.0 L201.0,56.0 L197.0,51.0 L181.9,49.4 L176.1,48.8 L174.6,48.8 L172.1,48.8 L171.3,48.8 L168.9,48.8 L167.9,48.8 L167.6,48.9 L165.6,48.9 L163.6,48.9 L162.2,48.9 L159.7,48.9 L159.0,48.9 L157.8,48.9 L157.3,48.9 L156.6,48.9 L141.0,49.0 Z M103.9,117.0 L107.1,117.0 L107.6,117.0 L107.8,117.0 L109.1,117.0 L110.4,117.0 L110.8,117.0 L112.5,116.9 L113.8,116.9 L114.5,116.9 L115.0,116.9 L115.1,116.9 L115.5,116.9 L125.0,118.0 L126.0,117.0 L128.0,117.1 L130.8,117.2 L133.0,117.3 L133.6,117.4 L135.6,117.4 L139.0,119.0 L140.0,121.0 L128.0,120.0 L127.6,120.2 L127.0,120.5 L126.5,120.7 L126.4,120.8 L126.0,121.0 L106.0,120.0 L106.0,122.0 L96.0,121.0 L95.1,124.0 L94.9,124.5 L94.8,124.9 L93.9,128.2 L92.9,131.5 L92.6,132.3 L91.7,135.4 L92.0,140.0 L99.4,140.8 L102.3,141.1 L103.1,141.1 L104.6,141.1 L106.6,141.1 L107.3,141.1 L107.5,141.1 L108.5,141.1 L109.6,141.1 L110.2,141.1 L111.3,141.1 L111.6,141.1 L112.1,141.0 L112.7,141.0 L121.0,141.0 L122.0,142.0 L132.0,142.0 L137.0,137.0 L140.0,137.0 L144.0,142.0 L152.0,142.0 L153.0,141.0 L164.0,142.0 L160.0,146.0 L157.0,143.0 L156.5,143.2 L155.9,143.5 L155.5,143.6 L155.4,143.7 L152.9,144.5 L150.9,145.0 L149.6,145.3 L149.1,145.4 L149.0,145.5 L148.0,145.7 L147.0,146.0 L142.0,145.0 L139.0,142.0 L139.0,139.0 L135.0,144.0 L134.2,144.2 L133.5,144.5 L132.0,145.0 L130.5,145.5 L127.0,145.8 L125.0,145.5 L123.0,145.2 L122.0,145.1 L121.0,145.0 L118.0,143.0 L116.0,145.0 L111.0,144.0 L107.0,146.0 L101.0,144.0 L97.0,146.0 L94.0,144.0 L90.0,146.0 L88.0,144.0 L88.2,142.0 L88.5,140.0 L89.0,136.0 L89.5,132.0 L90.1,127.5 L90.4,126.5 L91.1,124.3 L93.1,119.3 L94.0,118.0 L102.0,117.0 Z M336.2,228.1 L342.6,228.4 L347.8,228.6 L351.9,228.9 L354.8,228.8 L356.2,228.2 L358.2,228.2 L359.5,228.5 L360.4,228.7 L360.8,228.8 L362.0,229.0 L365.0,231.0 L368.0,228.0 L368.3,228.0 L368.8,228.1 L370.2,228.3 L371.1,228.4 L371.8,228.5 L372.3,228.6 L372.5,228.6 L373.4,228.7 L375.2,228.8 L377.7,228.9 L379.6,228.9 L380.7,228.6 L382.4,228.4 L384.6,228.2 L386.7,228.4 L388.9,228.8 L390.4,228.9 L391.3,228.6 L393.8,228.4 L398.0,228.3 L400.5,228.3 L401.6,228.4 L404.1,228.6 L408.3,228.7 L410.7,228.7 L411.3,228.6 L411.5,228.5 L414.0,228.0 L418.0,232.0 L416.0,245.0 L412.0,248.0 L410.0,245.0 L412.0,245.0 L413.0,232.0 L411.3,232.0 L410.1,232.1 L409.7,232.1 L409.5,232.1 L406.1,232.2 L402.6,232.3 L398.0,232.4 L396.8,232.4 L395.7,232.5 L394.2,232.5 L393.2,232.5 L392.8,232.5 L389.4,232.6 L388.3,232.7 L387.2,232.7 L386.1,232.7 L382.9,233.1 L375.0,234.0 L371.0,233.0 L370.6,233.2 L370.0,233.5 L369.5,233.7 L369.4,233.8 L369.0,234.0 L363.0,234.0 L360.0,232.0 L331.0,232.0 L333.0,228.0 Z M88.0,96.0 L159.0,96.0 L161.0,105.0 L165.0,106.0 L166.0,103.0 L168.0,105.0 L163.0,110.0 L159.0,108.0 L158.0,98.0 L86.0,98.0 L88.0,96.0 Z M361.6,243.1 L362.9,243.4 L366.4,243.6 L372.1,243.9 L375.6,244.1 L396.0,243.9 L409.0,245.0 L405.0,249.0 L403.9,248.8 L402.5,248.5 L401.4,248.3 L401.1,248.2 L400.0,248.0 L396.0,249.0 L393.0,247.0 L391.0,249.0 L377.0,249.0 L374.0,247.0 L371.0,249.0 L369.7,248.8 L368.0,248.5 L366.6,248.3 L366.3,248.2 L365.0,248.0 L362.0,246.0 L359.0,249.0 L353.0,248.0 L351.0,245.0 L360.0,246.0 L361.0,243.0 Z M412.0,263.0 L414.0,264.0 L411.8,264.9 L409.5,265.8 L405.0,267.5 L400.5,269.2 L393.2,271.2 L387.7,271.7 L385.2,271.9 L383.5,272.0 L383.0,272.0 L382.8,272.0 L379.2,272.3 L378.6,272.3 L378.4,272.3 L377.4,272.4 L376.5,272.4 L374.9,272.5 L367.0,273.0 L366.8,272.9 L366.5,272.8 L366.0,272.5 L365.5,272.2 L364.6,272.0 L363.4,272.1 L346.0,270.0 L345.0,268.0 L350.2,267.9 L351.8,268.1 L354.0,268.4 L358.1,268.6 L364.0,268.9 L367.7,269.1 L368.9,269.1 L371.0,269.1 L371.6,269.1 L373.6,269.1 L374.5,269.1 L374.8,269.1 L376.4,269.1 L378.1,269.1 L379.3,269.1 L381.3,269.1 L381.9,269.1 L383.0,269.1 L384.0,269.0 L397.0,269.0 L397.0,267.0 L412.0,263.0 Z M373.6,96.9 L374.6,96.9 L375.1,96.9 L381.0,97.0 L384.0,100.0 L380.0,104.0 L377.5,103.7 L376.9,103.6 L376.4,103.5 L376.2,103.5 L375.8,103.4 L375.3,103.4 L374.0,103.1 L372.4,102.7 L370.4,102.3 L368.0,101.9 L366.4,101.7 L365.6,101.6 L364.8,101.5 L364.0,101.5 L363.3,101.4 L362.9,101.4 L362.6,101.4 L362.0,101.3 L361.9,101.3 L357.0,101.0 L356.0,98.0 L373.0,96.9 Z M605.0,132.0 L611.0,133.0 L613.0,135.0 L611.0,139.0 L612.0,140.0 L611.8,140.5 L611.5,141.0 L611.0,142.0 L610.5,143.0 L608.8,145.2 L607.5,146.5 L606.2,147.8 L605.6,148.4 L605.0,149.0 L602.0,150.0 L602.0,148.0 L605.0,146.0 L605.0,132.0 Z M550.0,136.0 L555.0,137.0 L556.0,138.0 L556.0,143.0 L552.0,148.0 L548.0,146.0 L547.0,143.0 L550.0,136.0 Z M331.0,233.0 L332.0,233.0 L332.0,244.0 L333.0,245.0 L349.0,245.0 L348.0,247.0 L330.0,249.0 L328.0,246.0 L330.0,234.0 L331.0,233.0 Z M317.0,105.0 L319.0,106.0 L318.4,106.5 L317.9,106.8 L317.8,107.0 L316.5,108.0 L315.6,108.7 L315.2,109.0 L313.2,111.5 L311.8,114.5 L311.0,117.7 L311.0,119.4 L311.0,121.1 L310.9,123.2 L310.9,124.7 L312.0,134.0 L315.0,135.0 L314.0,138.0 L309.0,132.0 L308.8,130.5 L308.5,129.0 L308.0,126.0 L307.5,123.0 L307.5,118.2 L308.5,114.8 L309.7,112.1 L310.9,110.7 L311.2,110.4 L311.7,109.8 L312.2,109.1 L312.4,108.9 L313.1,108.1 L313.9,107.2 L315.0,106.0 L317.0,105.0 Z M202.0,129.0 L203.0,131.0 L202.8,131.4 L202.5,132.1 L202.3,132.5 L202.3,132.7 L202.1,133.1 L200.0,142.0 L207.0,141.0 L204.0,146.0 L199.0,146.0 L196.0,142.0 L196.3,141.0 L196.8,139.6 L197.2,138.0 L197.6,136.8 L197.7,136.4 L198.0,135.4 L198.2,134.8 L198.3,134.4 L198.5,133.9 L198.6,133.5 L198.7,133.1 L199.0,132.0 L202.0,129.0 Z M74.0,250.0 L75.0,250.0 L76.0,255.0 L97.0,256.0 L95.0,259.0 L94.7,258.9 L94.3,258.9 L93.1,258.7 L92.4,258.5 L91.8,258.4 L90.4,258.2 L89.0,258.2 L87.4,258.4 L86.0,258.5 L85.0,258.6 L84.6,258.6 L83.3,258.7 L82.8,258.8 L82.6,258.8 L80.8,258.8 L74.0,258.0 L72.0,255.0 L74.0,250.0 Z M410.9,211.0 L416.6,212.9 L418.1,213.4 L419.5,213.9 L433.0,225.0 L432.0,227.0 L426.0,222.0 L426.0,220.0 L425.7,219.9 L425.5,219.8 L425.0,219.6 L424.6,219.5 L424.5,219.4 L421.9,218.2 L418.5,216.4 L417.9,216.1 L417.7,216.0 L416.8,215.5 L415.9,215.1 L414.6,214.4 L408.0,211.0 L408.0,210.0 Z M119.0,153.0 L123.0,153.0 L126.0,157.0 L125.0,162.0 L124.0,162.0 L123.0,157.0 L119.0,158.0 L116.0,163.0 L115.0,161.0 L115.2,160.6 L115.4,160.1 L115.7,159.3 L116.1,158.4 L116.4,157.8 L116.6,157.1 L117.0,156.1 L117.4,155.2 L118.0,154.0 L119.0,153.0 Z M216.0,136.0 L218.0,138.0 L218.0,143.0 L214.0,146.0 L210.0,145.0 L208.0,142.0 L214.0,142.0 L216.0,136.0 Z M76.0,97.0 L77.0,97.0 L75.0,114.0 L72.0,114.0 L76.0,97.0 Z M500.0,177.0 L511.0,180.0 L513.0,183.0 L501.0,179.0 L500.0,177.0 Z M131.0,127.0 L133.0,127.0 L133.0,133.0 L130.0,135.0 L129.0,128.0 L131.0,127.0 Z M590.0,89.0 L597.0,90.0 L598.0,92.0 L588.0,92.0 L590.0,89.0 Z M165.0,139.0 L166.0,142.0 L172.0,143.0 L171.0,145.0 L166.0,144.0 L165.0,139.0 Z M380.0,139.0 L386.0,144.0 L382.0,145.0 L379.0,142.0 L380.0,139.0 Z" fill="#bfbfbf"/>
<path d="M264.0,109.0 L265.0,109.0 L265.1,110.9 L265.2,112.8 L265.5,116.5 L265.8,120.2 L265.5,125.2 L264.5,127.8 L263.8,129.9 L263.5,130.9 L263.2,131.8 L262.9,133.3 L262.6,134.3 L262.4,135.4 L262.2,136.1 L262.1,136.5 L261.4,139.8 L260.4,143.7 L259.8,146.0 L259.3,147.6 L259.1,148.3 L258.8,149.4 L258.5,150.2 L258.4,150.6 L256.0,163.0 L253.0,164.0 L252.9,164.4 L252.8,164.9 L252.7,165.3 L252.6,165.7 L247.0,188.0 L244.0,191.0 L75.0,191.0 L74.4,190.4 L73.5,189.5 L72.8,188.8 L72.6,188.6 L72.0,188.0 L70.0,182.0 L75.0,187.0 L245.0,187.0 L245.5,184.5 L246.0,182.0 L247.0,177.0 L248.0,172.0 L250.1,162.5 L254.1,147.0 L262.0,117.0 L263.0,116.0 L264.0,109.0 Z M617.6,231.9 L618.3,231.9 L618.7,231.9 L623.0,232.0 L623.0,235.0 L640.0,237.0 L646.0,233.0 L654.2,233.0 L659.4,234.3 L661.7,235.6 L663.3,236.5 L664.1,236.9 L665.2,237.5 L666.4,238.2 L669.0,241.0 L669.0,244.0 L666.0,244.0 L665.8,244.7 L665.7,245.1 L665.7,245.4 L661.0,261.0 L664.0,262.0 L662.0,263.0 L662.0,265.0 L659.0,267.0 L649.0,267.0 L648.0,265.0 L641.0,262.0 L640.4,262.1 L639.6,262.2 L639.0,262.4 L638.8,262.4 L638.4,262.5 L638.2,262.5 L623.0,263.0 L623.0,261.0 L621.7,261.4 L620.0,262.0 L618.6,262.5 L618.3,262.6 L617.0,263.0 L615.0,265.0 L610.0,264.0 L612.0,261.0 L617.0,260.0 L620.0,256.0 L624.0,258.0 L624.0,261.0 L635.0,261.0 L637.0,256.0 L641.0,256.0 L642.0,261.0 L652.0,261.0 L655.0,264.0 L658.0,263.0 L657.2,259.2 L657.4,256.5 L658.2,253.8 L658.3,253.4 L658.3,253.3 L658.6,252.4 L658.8,251.5 L658.9,251.2 L659.1,250.5 L659.9,248.4 L662.0,243.5 L665.0,240.0 L656.0,236.0 L653.0,240.0 L639.0,240.0 L638.0,243.0 L632.0,243.0 L631.0,241.0 L630.7,241.0 L630.5,241.0 L630.2,241.0 L626.5,240.8 L625.9,240.8 L625.5,240.8 L621.8,240.5 L618.1,240.3 L617.1,240.2 L613.7,240.0 L611.0,239.0 L610.0,236.0 L608.0,237.0 L608.7,240.7 L608.5,243.8 L607.8,246.9 L607.7,247.4 L607.6,247.5 L607.4,248.6 L607.1,249.7 L607.0,249.9 L606.9,250.5 L606.8,250.8 L606.1,253.1 L605.4,254.8 L604.8,256.6 L604.5,257.5 L604.3,258.1 L604.2,258.4 L602.0,261.0 L597.0,259.0 L598.0,257.0 L601.0,257.0 L601.1,256.5 L601.2,256.1 L601.3,255.6 L602.0,253.9 L604.0,250.0 L605.0,241.0 L603.0,241.0 L603.0,236.0 L605.2,234.6 L606.6,233.8 L617.2,231.9 Z M340.0,140.0 L348.0,140.0 L345.0,146.0 L351.0,147.0 L351.0,149.0 L363.9,148.7 L371.3,148.6 L400.0,146.0 L400.0,143.0 L387.0,142.0 L386.0,140.0 L405.0,140.0 L407.0,142.0 L406.0,146.0 L402.2,147.1 L398.3,148.2 L394.5,149.3 L391.9,150.0 L389.3,150.8 L387.8,151.2 L386.4,151.6 L379.0,152.0 L367.0,152.0 L360.5,151.8 L359.5,151.2 L358.1,150.9 L357.3,150.7 L356.7,150.6 L356.4,150.6 L355.0,150.4 L354.0,150.3 L353.1,150.2 L352.2,150.0 L351.4,149.9 L350.9,149.9 L350.5,149.8 L349.9,149.7 L349.7,149.7 L344.0,149.0 L346.0,152.0 L344.9,152.8 L343.5,154.0 L342.4,154.9 L342.1,155.2 L341.0,156.0 L334.0,158.0 L338.0,162.0 L336.2,164.2 L335.1,165.7 L332.0,169.0 L332.1,169.2 L332.2,169.5 L332.5,170.0 L332.8,170.5 L333.0,172.3 L333.0,173.7 L333.0,175.0 L333.1,175.8 L333.1,176.7 L333.1,177.4 L333.1,178.2 L333.1,178.6 L333.1,178.9 L333.1,179.3 L333.1,179.6 L333.1,180.0 L333.1,180.3 L333.1,180.7 L332.0,185.0 L325.0,184.0 L324.0,180.0 L328.0,175.0 L328.1,172.8 L328.1,171.4 L327.0,167.0 L318.0,169.0 L317.8,171.0 L317.6,173.8 L317.4,176.0 L317.3,176.6 L317.2,178.6 L318.0,182.0 L317.3,182.9 L316.7,184.0 L316.4,184.8 L316.0,185.5 L315.8,185.9 L315.6,186.3 L315.0,190.0 L314.4,189.2 L313.5,188.0 L312.8,187.1 L312.6,186.8 L312.0,186.0 L311.0,179.0 L314.1,171.7 L317.6,167.0 L325.0,160.0 L326.0,158.0 L339.0,153.0 L339.0,149.0 L333.0,147.0 L337.0,146.0 L338.0,145.0 L339.0,141.0 L340.0,140.0 Z M649.0,117.0 L653.0,118.0 L654.5,119.6 L656.0,121.2 L659.1,124.4 L662.1,127.7 L665.8,132.0 L667.0,134.3 L667.8,137.0 L668.0,140.1 L668.1,142.3 L668.0,143.3 L668.0,144.1 L668.0,144.6 L668.0,144.7 L668.0,145.5 L666.8,148.3 L664.3,152.9 L658.6,158.8 L645.1,169.7 L641.0,172.0 L637.0,171.0 L636.0,170.0 L637.0,159.2 L637.9,153.8 L639.6,147.2 L639.9,145.8 L640.3,144.5 L641.6,139.3 L642.9,134.4 L643.2,133.4 L643.2,133.2 L643.5,132.1 L647.0,119.0 L649.0,117.0 Z M650.4,123.1 L649.1,127.3 L648.1,131.0 L647.4,134.2 L646.6,137.8 L645.6,141.8 L644.6,145.5 L644.4,146.2 L644.3,146.4 L643.8,148.7 L643.2,150.9 L643.0,151.5 L642.4,153.5 L640.0,168.0 L662.0,151.0 L662.4,149.9 L663.0,148.5 L663.5,147.4 L663.6,147.1 L664.0,146.0 L664.0,137.0 L663.2,135.7 L662.4,134.5 L659.2,129.4 L657.2,126.6 L655.7,124.9 L652.0,121.0 L651.0,121.0 Z M368.0,152.0 L373.0,154.0 L377.0,152.0 L381.0,153.0 L386.0,158.0 L389.0,155.0 L391.0,155.2 L393.0,155.5 L395.0,155.8 L399.0,157.5 L401.0,159.0 L403.0,160.5 L404.0,161.2 L405.0,162.0 L407.0,166.0 L414.0,170.0 L416.0,166.0 L423.0,165.0 L426.0,169.0 L417.0,170.0 L419.0,183.0 L418.0,184.0 L413.0,184.0 L411.0,182.0 L412.0,173.0 L410.0,169.0 L404.0,168.0 L402.0,162.0 L400.7,161.2 L399.0,160.0 L397.6,159.1 L397.3,158.8 L396.0,158.0 L390.0,157.0 L390.2,157.8 L390.5,158.5 L391.0,160.0 L391.5,161.5 L392.8,163.8 L393.5,164.5 L394.2,165.2 L394.6,165.6 L395.0,166.0 L398.0,167.0 L397.0,171.0 L395.7,171.2 L394.0,171.5 L392.6,171.7 L392.3,171.8 L391.0,172.0 L384.0,170.0 L387.0,161.0 L386.2,160.6 L385.0,160.0 L384.1,159.5 L383.8,159.4 L383.0,159.0 L381.0,156.0 L375.0,155.0 L375.0,157.0 L365.0,156.0 L360.0,160.0 L345.0,160.0 L343.0,167.0 L336.0,169.0 L334.0,168.0 L339.0,166.0 L339.0,162.0 L341.6,160.6 L342.0,160.4 L342.3,160.3 L345.1,158.8 L347.8,157.3 L348.6,156.9 L351.1,155.6 L357.0,154.0 L359.0,158.0 L368.0,152.0 Z M569.0,127.0 L574.0,128.0 L575.0,130.0 L567.0,131.0 L564.0,134.0 L559.0,134.0 L557.0,132.0 L520.0,132.0 L518.0,150.0 L525.4,150.0 L526.7,150.0 L527.5,150.0 L535.5,150.0 L543.5,150.0 L544.2,150.0 L544.3,150.0 L545.6,150.0 L553.0,150.0 L557.0,148.0 L563.0,149.0 L564.0,152.0 L572.0,151.0 L569.0,154.0 L564.0,155.0 L558.0,150.0 L553.0,154.0 L516.0,154.0 L513.0,151.0 L517.0,130.0 L519.0,128.0 L557.0,128.0 L562.0,131.0 L565.0,128.0 L569.0,127.0 Z M547.0,240.0 L549.0,240.0 L547.7,244.0 L546.7,246.7 L546.2,248.2 L545.6,249.6 L545.0,251.0 L544.0,265.0 L543.0,266.0 L534.0,266.0 L529.2,265.2 L527.5,264.5 L525.8,263.8 L524.9,263.4 L524.0,263.0 L518.0,263.0 L517.0,264.0 L513.0,264.1 L510.4,264.1 L504.0,263.0 L500.0,266.0 L489.0,266.0 L484.0,261.0 L485.0,257.0 L489.0,254.0 L487.0,261.0 L494.0,264.0 L497.0,260.0 L498.2,259.5 L500.8,258.5 L502.5,258.1 L504.2,258.2 L519.0,259.0 L520.0,258.0 L525.0,258.0 L525.0,260.0 L538.0,260.0 L540.0,264.0 L542.0,264.0 L542.0,263.7 L542.0,263.1 L542.1,259.0 L542.5,251.2 L543.3,246.0 L543.8,244.6 L544.2,243.7 L544.4,243.3 L545.0,242.0 L547.0,240.0 Z M491.0,233.0 L505.0,233.0 L505.6,233.4 L506.5,234.0 L507.2,234.5 L507.4,234.6 L508.0,235.0 L527.0,237.0 L527.8,236.6 L528.5,236.2 L530.0,235.5 L531.5,234.8 L535.0,234.0 L541.0,234.0 L547.0,237.0 L545.0,238.0 L539.0,236.0 L537.0,240.0 L536.6,240.0 L536.0,240.0 L535.5,240.0 L535.3,240.0 L534.6,240.0 L534.2,240.0 L533.1,239.9 L532.4,239.9 L531.9,239.9 L531.7,239.9 L531.2,239.9 L529.9,239.9 L528.0,240.0 L526.6,240.1 L525.9,240.4 L524.8,240.6 L523.3,240.9 L522.2,241.1 L516.6,240.8 L496.0,240.0 L493.0,236.0 L491.0,238.0 L492.0,239.0 L491.9,241.0 L491.8,243.8 L491.7,246.0 L491.6,246.6 L491.6,248.6 L490.0,252.0 L489.0,252.0 L488.0,237.0 L491.0,233.0 Z M392.0,177.0 L397.0,178.0 L398.0,182.0 L397.0,183.0 L396.0,190.0 L400.4,191.0 L402.3,191.3 L403.1,191.4 L403.8,191.5 L404.5,191.5 L405.2,191.6 L405.9,191.6 L406.4,191.7 L406.5,191.7 L411.0,192.0 L410.0,194.0 L406.0,195.0 L406.0,198.0 L403.1,199.8 L402.6,200.1 L402.3,200.3 L399.1,202.3 L396.0,204.2 L395.2,204.8 L393.3,205.9 L392.6,206.4 L392.2,206.6 L391.0,207.0 L387.0,206.0 L385.0,202.0 L396.0,202.0 L400.0,199.0 L400.0,197.0 L388.0,196.0 L389.0,191.0 L391.0,189.0 L390.6,187.5 L390.0,185.3 L389.5,183.7 L389.4,183.2 L389.1,182.3 L389.0,181.9 L388.9,181.7 L388.0,180.0 L392.0,177.0 Z M330.0,259.0 L337.0,259.0 L337.4,259.2 L337.8,259.5 L338.5,260.0 L339.2,260.5 L350.6,261.8 L361.2,262.6 L371.7,263.4 L377.2,263.8 L382.7,264.2 L383.2,264.2 L383.5,264.2 L401.0,264.0 L398.0,266.0 L397.4,266.0 L395.6,266.1 L393.5,266.3 L393.0,266.3 L392.2,266.3 L391.4,266.4 L391.2,266.4 L390.5,266.4 L388.5,266.7 L385.3,267.2 L383.5,267.6 L382.9,267.9 L381.5,268.3 L379.2,268.9 L376.4,269.2 L373.1,269.2 L370.9,269.2 L370.4,269.2 L369.7,269.2 L369.3,269.2 L368.0,269.1 L366.8,269.1 L365.5,269.1 L363.3,269.0 L362.5,269.0 L361.0,269.0 L360.5,269.0 L360.4,269.0 L359.7,269.0 L359.3,269.0 L354.5,268.5 L342.0,267.0 L336.0,264.0 L336.0,262.0 L331.0,262.0 L330.0,259.0 Z M357.0,232.0 L361.0,233.0 L361.0,236.0 L356.0,238.0 L357.0,241.0 L353.0,243.0 L345.0,242.0 L341.0,245.0 L334.0,245.0 L333.8,243.5 L333.5,241.5 L333.3,239.9 L333.2,239.5 L333.0,238.0 L335.0,233.0 L344.0,233.0 L347.0,235.0 L357.0,232.0 Z M625.2,127.5 L627.8,128.5 L629.0,129.0 L630.0,130.0 L630.1,131.0 L630.2,132.0 L630.5,134.0 L630.8,136.0 L630.8,138.8 L630.2,140.2 L629.9,141.7 L629.8,143.0 L629.7,144.1 L629.6,144.8 L629.5,145.4 L629.5,146.1 L629.4,146.7 L629.4,147.3 L629.3,147.8 L629.3,147.9 L629.0,152.0 L627.0,154.0 L622.0,153.0 L620.0,150.0 L626.0,149.0 L627.0,132.0 L626.0,131.0 L624.3,131.2 L617.7,131.3 L616.6,131.3 L615.9,131.3 L609.2,131.4 L602.6,131.5 L602.0,131.5 L601.9,131.5 L600.6,131.5 L593.5,131.5 L591.4,131.5 L590.4,131.4 L589.9,131.4 L588.0,131.3 L578.0,131.0 L580.0,128.0 L603.1,128.0 L612.8,127.9 L616.8,127.6 L619.1,127.5 L619.8,127.4 L620.1,127.4 L624.0,127.0 Z M209.0,121.0 L215.0,121.0 L215.0,138.0 L212.0,141.0 L211.0,140.0 L203.0,139.0 L202.0,141.0 L202.4,136.9 L202.7,134.2 L204.0,130.0 L206.0,130.0 L206.0,124.0 L209.0,121.0 Z M66.2,155.8 L66.8,157.2 L67.0,159.2 L67.0,160.5 L67.0,161.8 L67.0,162.4 L67.0,163.0 L69.0,167.0 L115.0,166.0 L119.0,162.0 L119.0,165.0 L116.0,169.0 L67.0,169.0 L64.0,166.0 L62.0,171.0 L70.0,180.0 L69.0,182.0 L60.0,174.0 L60.0,165.0 L61.4,163.4 L62.7,161.4 L63.6,160.0 L64.4,158.6 L64.8,157.9 L65.2,157.2 L66.0,155.0 Z M601.0,138.0 L603.0,139.0 L603.0,140.3 L603.0,142.0 L603.0,143.4 L603.0,143.7 L603.0,145.0 L601.0,150.0 L611.0,147.0 L613.0,149.0 L619.0,150.0 L616.0,154.0 L611.0,154.0 L608.0,152.0 L604.0,154.0 L599.0,153.0 L597.0,151.0 L594.0,154.0 L593.5,153.9 L593.0,153.8 L592.0,153.5 L591.0,153.2 L588.8,153.2 L586.2,153.8 L584.0,153.8 L583.0,153.5 L582.0,153.2 L581.5,153.1 L581.0,153.0 L577.0,154.0 L575.0,151.0 L595.0,151.0 L595.2,150.4 L595.5,149.8 L596.0,148.5 L596.5,147.2 L597.5,144.9 L599.7,140.6 L601.0,138.0 Z M128.0,121.0 L137.0,122.0 L140.0,126.0 L145.0,125.0 L149.0,121.0 L156.0,122.0 L156.0,129.0 L154.0,125.0 L150.0,123.0 L146.0,127.0 L144.0,136.0 L142.0,136.0 L141.0,138.0 L140.0,134.0 L135.0,135.0 L136.0,127.0 L135.0,125.0 L128.0,124.0 L127.0,126.0 L128.0,121.0 Z M523.0,104.0 L527.0,105.0 L526.0,109.0 L573.0,110.0 L575.0,112.0 L522.0,112.0 L520.0,110.0 L521.0,106.0 L523.0,104.0 Z M610.0,235.0 L615.0,235.0 L615.6,235.4 L616.5,236.0 L617.2,236.5 L617.4,236.6 L618.0,237.0 L632.0,238.0 L633.0,239.0 L636.3,238.5 L636.9,238.4 L637.3,238.3 L640.9,237.7 L644.5,237.2 L645.4,237.0 L648.7,236.5 L655.0,235.0 L654.0,239.0 L653.0,240.0 L639.0,240.0 L638.0,243.0 L632.0,243.0 L631.0,241.0 L630.7,241.0 L630.5,241.0 L630.2,241.0 L626.5,240.8 L625.9,240.8 L625.5,240.8 L621.8,240.5 L618.1,240.3 L617.1,240.2 L615.0,240.1 L614.1,240.0 L613.7,240.0 L611.0,239.0 L610.0,235.0 Z M330.0,159.0 L333.0,160.0 L329.0,163.0 L329.0,166.0 L327.3,166.2 L325.0,166.5 L323.2,166.7 L322.7,166.8 L321.0,167.0 L318.0,169.0 L317.8,171.0 L317.6,173.8 L317.4,176.0 L317.3,176.6 L317.2,178.6 L318.0,182.0 L317.3,182.9 L316.7,184.0 L316.4,184.8 L316.0,185.5 L315.8,185.9 L315.6,186.3 L315.0,190.0 L314.4,189.2 L313.5,188.0 L312.8,187.1 L312.6,186.8 L312.0,186.0 L311.0,179.0 L311.5,177.8 L312.1,176.5 L313.2,174.1 L313.9,172.4 L314.2,171.6 L316.2,168.1 L318.1,166.0 L319.3,164.9 L319.9,164.6 L320.1,164.4 L330.0,159.0 Z M371.0,164.0 L376.0,165.0 L378.0,170.0 L376.0,173.0 L376.0,183.0 L371.0,183.0 L370.0,182.0 L370.0,181.6 L370.0,181.0 L370.0,180.5 L370.0,180.4 L370.0,180.0 L369.0,167.0 L371.0,164.0 Z M420.0,107.0 L424.0,108.0 L424.3,108.4 L425.0,109.0 L425.7,109.7 L426.4,110.5 L426.9,110.9 L427.1,111.2 L427.5,111.6 L427.7,111.8 L428.0,112.1 L428.1,112.2 L428.3,112.4 L433.0,116.0 L434.0,125.0 L432.0,126.0 L430.0,132.0 L429.2,128.8 L428.9,127.4 L429.0,122.8 L428.9,120.6 L428.8,119.1 L428.7,118.1 L428.6,117.6 L428.5,116.2 L428.0,115.0 L425.0,113.0 L425.0,111.0 L419.0,113.0 L416.0,127.0 L414.0,127.0 L418.0,109.0 L420.0,107.0 Z M620.0,104.0 L625.0,105.0 L627.0,107.0 L626.0,111.0 L625.1,111.2 L624.2,111.3 L623.6,111.5 L623.3,111.5 L621.7,111.9 L620.3,112.3 L618.4,112.6 L616.0,112.9 L614.3,113.0 L608.3,112.8 L587.0,112.0 L588.0,110.0 L620.0,109.0 L620.0,104.0 Z M432.0,125.0 L433.0,129.0 L431.9,130.7 L430.5,133.1 L429.3,135.0 L429.0,135.5 L427.9,137.2 L416.0,144.0 L412.0,142.0 L411.3,137.2 L411.3,134.7 L412.1,131.0 L413.0,127.0 L415.0,127.0 L415.0,139.0 L421.0,139.0 L422.7,137.5 L425.0,135.5 L426.8,133.9 L427.3,133.5 L429.0,132.0 L432.0,125.0 Z M192.0,121.0 L193.0,124.0 L199.0,124.0 L200.0,126.0 L199.3,127.7 L198.4,129.9 L197.7,131.7 L197.5,132.2 L196.9,133.9 L196.0,135.0 L194.0,135.0 L192.0,140.0 L188.0,141.0 L192.0,136.0 L192.0,121.0 Z M199.0,123.0 L201.0,124.0 Z M383.0,127.0 L387.0,128.0 L386.0,137.0 L384.0,139.0 L383.0,137.0 L381.9,137.4 L380.5,138.0 L379.4,138.5 L379.1,138.6 L378.0,139.0 L376.0,141.0 L362.0,141.0 L362.0,140.0 L375.0,139.0 L375.7,138.0 L376.4,136.9 L379.3,132.8 L381.0,130.1 L382.0,128.0 L383.0,127.0 Z M586.0,112.8 L586.0,113.5 L586.0,114.2 L586.0,114.6 L586.0,115.0 L581.0,125.0 L577.0,127.0 L575.0,125.0 L575.0,113.0 L577.0,113.0 L579.0,117.0 L583.0,116.0 L586.0,112.0 Z M370.0,188.0 L375.0,188.0 L378.0,191.0 L377.0,196.0 L376.0,197.0 L371.0,197.0 L368.0,195.0 L370.0,188.0 Z M582.0,93.0 L622.0,96.0 L622.0,99.0 L618.5,98.5 L617.9,98.4 L617.5,98.4 L613.8,97.8 L610.0,97.3 L609.0,97.2 L606.8,96.9 L605.5,96.7 L582.0,94.0 L582.0,93.0 Z M125.0,132.0 L129.0,137.0 L135.0,135.0 L134.6,136.1 L134.0,137.5 L133.5,138.6 L133.4,138.9 L133.0,140.0 L132.0,141.0 L123.0,141.0 L124.0,133.0 L125.0,132.0 Z M414.0,176.0 L418.0,177.0 L419.0,183.0 L418.0,184.0 L413.0,184.0 L411.0,182.0 L412.0,178.0 L414.0,176.0 Z M389.0,163.0 L396.0,168.0 L393.0,171.0 L384.0,170.0 L389.0,163.0 Z M351.0,131.0 L356.0,131.0 L358.0,135.0 L357.0,139.0 L352.0,136.0 L350.0,140.0 L349.0,138.0 L351.0,131.0 Z M350.0,177.0 L355.0,178.0 L355.0,183.0 L350.0,184.0 L348.0,180.0 L350.0,177.0 Z M329.0,176.0 L333.0,177.0 L333.0,182.0 L329.0,183.0 L328.0,180.0 L329.0,176.0 Z M507.0,103.0 L511.0,104.0 L499.0,110.0 L496.0,109.0 L507.0,103.0 Z M330.0,259.0 L337.0,259.0 L339.0,263.0 L331.0,262.0 L330.0,259.0 Z M107.0,136.0 L107.0,141.0 L100.0,140.0 L101.0,137.0 L107.0,136.0 Z M339.0,194.0 L341.0,194.0 L341.1,194.3 L341.3,194.6 L341.5,195.0 L341.6,195.2 L346.0,203.0 L344.8,202.2 L343.1,201.2 L341.8,200.4 L341.5,200.1 L340.2,199.4 L339.0,198.0 L339.0,194.0 Z M604.0,254.0 L605.0,257.0 L602.0,261.0 L598.0,259.0 L603.0,256.0 L604.0,254.0 Z M325.0,142.0 L332.0,144.0 L333.0,146.0 L327.0,146.0 L325.0,142.0 Z" fill="#606060"/>
<path d="M624.0,131.0 L626.0,132.0 L626.2,133.3 L626.5,135.0 L626.7,136.4 L626.8,136.7 L627.0,138.0 L624.0,149.0 L622.3,149.0 L620.0,149.0 L618.2,149.0 L617.7,149.0 L616.0,149.0 L614.0,150.0 L614.9,147.6 L616.0,144.4 L617.0,141.8 L617.2,141.0 L618.3,138.3 L618.6,137.4 L618.8,137.0 L621.0,132.0 L624.0,131.0 Z M569.0,131.0 L573.0,132.0 L574.0,137.0 L576.7,136.6 L578.5,136.3 L582.0,135.0 L584.0,140.0 L590.0,136.0 L589.0,140.0 L583.0,145.0 L579.0,144.0 L577.0,140.0 L572.0,143.0 L572.0,135.0 L569.0,131.0 Z M597.0,132.0 L599.0,132.0 L599.0,138.0 L597.0,138.0 L596.0,135.0 L597.0,132.0 Z M149.0,129.0 L151.0,133.0 L148.0,136.0 L148.0,130.0 L149.0,129.0 Z" fill="#ebebeb"/>
<path d="M619.0,106.0 L620.0,108.0 L619.6,108.2 L619.0,108.5 L618.5,108.7 L618.4,108.8 L618.0,109.0 L587.0,110.0 L582.0,114.0 L582.4,113.2 L583.0,112.0 L583.5,111.1 L583.6,110.8 L584.0,110.0 L587.0,107.0 L596.0,106.7 L598.9,106.5 L599.8,106.5 L602.3,106.4 L605.4,106.3 L606.2,106.3 L606.4,106.3 L607.8,106.2 L609.3,106.2 L619.0,106.0 Z" fill="#aeaeae"/>
<path d="M432.0,241.0 L433.0,244.0 L432.7,244.5 L432.5,244.9 L431.9,245.9 L431.4,246.8 L430.9,247.5 L430.5,248.3 L430.2,248.8 L430.0,249.2 L429.9,249.3 L428.3,251.2 L425.7,253.7 L422.4,256.2 L420.3,257.4 L418.3,258.5 L417.0,259.2 L415.7,259.9 L414.8,260.4 L411.8,261.5 L404.1,263.9 L401.0,264.0 L404.0,262.0 L407.0,262.0 L407.0,260.0 L417.0,258.0 L418.0,255.0 L425.0,252.0 L427.4,248.5 L428.1,247.4 L428.3,247.1 L428.8,246.4 L429.3,245.7 L429.7,245.0 L430.3,244.1 L432.0,241.0 Z M412.0,194.0 L417.0,197.0 L414.0,203.0 L409.0,204.0 L406.0,201.0 L406.4,200.2 L407.0,199.0 L407.5,198.1 L407.6,197.8 L408.0,197.0 L412.0,194.0 Z M380.0,107.0 L381.0,109.0 L378.0,116.0 L374.0,118.0 L372.0,116.0 L371.0,111.0 L374.0,108.0 L376.0,111.0 L379.0,110.0 L380.0,107.0 Z M409.0,159.0 L414.0,160.0 L417.0,164.0 L414.0,167.0 L409.0,165.0 L407.0,161.0 L409.0,159.0 Z M521.0,170.0 L536.0,170.0 L536.0,171.0 L524.0,172.0 L523.0,176.0 L529.0,178.0 L525.0,179.0 L519.0,175.0 L520.0,171.0 L521.0,170.0 Z M376.0,93.0 L376.0,94.0 L374.9,93.9 L372.4,94.1 L368.3,94.3 L365.8,94.6 L364.9,94.9 L362.5,95.3 L356.6,96.1 L353.0,96.0 L356.0,93.0 L376.0,93.0 Z M575.0,113.0 L576.0,113.0 L577.0,122.0 L582.0,122.0 L580.0,126.0 L576.0,126.0 L575.0,125.0 L575.0,113.0 Z M153.0,134.0 L154.0,137.0 L148.0,142.0 L143.0,141.0 L144.0,136.0 L150.0,137.0 L153.0,134.0 Z M382.0,94.0 L399.0,96.0 L398.0,98.0 L397.3,98.0 L396.6,97.9 L395.1,97.8 L393.7,97.7 L391.8,97.6 L391.0,97.6 L389.1,97.3 L386.2,96.8 L384.7,96.5 L382.0,95.0 L382.0,94.0 Z M340.0,205.5 L341.0,206.0 L342.0,206.5 L342.5,206.8 L343.0,207.0 L346.0,211.0 L344.0,214.0 L338.0,215.0 L340.0,213.0 L339.9,211.6 L339.8,209.6 L339.6,208.0 L339.6,207.6 L339.5,206.2 L339.0,205.0 Z M396.2,263.9 L396.8,263.9 L397.1,263.9 L401.0,264.0 L400.4,264.4 L399.5,265.0 L398.8,265.5 L398.6,265.6 L398.0,266.0 L386.0,267.0 L385.0,265.0 L395.8,263.9 Z M620.0,104.0 L625.0,105.0 L627.0,107.0 L626.0,111.0 L621.0,112.0 L623.0,111.0 L622.0,106.0 L620.0,104.0 Z M79.0,247.0 L84.0,247.0 L83.0,251.0 L79.0,253.0 L79.0,247.0 Z M357.0,201.0 L359.0,202.0 L357.0,206.0 L353.0,207.0 L350.0,205.0 L356.0,203.0 L357.0,201.0 Z M406.0,205.0 L408.0,206.0 L405.0,208.0 L404.0,213.0 L401.0,211.0 L401.4,210.2 L402.0,209.0 L402.5,208.1 L402.6,207.8 L403.0,207.0 L406.0,205.0 Z M182.0,122.0 L183.0,122.0 L183.0,130.0 L180.0,130.0 L182.0,122.0 Z M418.0,255.0 L421.0,255.0 L421.0,257.0 L418.0,259.0 L415.0,258.0 L417.0,258.0 L418.0,255.0 Z M179.0,135.0 L181.0,135.0 L180.0,140.0 L178.0,141.0 L179.0,135.0 Z" fill="#434343"/>
<path d="M634.0,234.0 L640.0,234.0 L639.0,237.0 L636.0,238.0 L634.0,234.0 Z" fill="#d2d2d2"/>
<path d="M165.0,121.0 L168.0,121.0 L167.0,125.0 L164.0,126.0 L165.0,121.0 Z" fill="#303030"/>
</svg>