<?xml version="1.0" encoding="UTF-8"?>
<!-- Generator: visioncortex VTracer 0.6.5 -->
<svg version="1.1" xmlns="http://www.w3.org/2000/svg" width="579" height="603">
<rect width="579" height="603" fill="#6A6E74"/>
<rect x="235.00" y="414.00" width="11.00" height="7.00" fill="#9d9897" />
<path d="M254.0,26.0 L254.0,27.0 L251.6,27.5 L240.7,29.8 L238.3,30.3 L234.7,31.4 L229.7,33.1 L224.8,35.5 L222.3,37.1 L219.8,38.7 L215.1,41.6 L210.6,44.3 L204.5,48.2 L196.7,53.4 L192.0,57.0 L190.5,58.9 L188.8,61.1 L186.8,63.6 L182.8,68.7 L182.1,69.6 L181.8,70.1 L178.4,74.4 L175.0,78.8 L174.7,79.2 L174.7,79.3 L174.1,80.0 L170.7,84.4 L170.1,85.2 L167.5,89.6 L167.0,90.3 L166.8,90.8 L164.2,95.1 L161.7,99.4 L161.0,100.6 L158.7,104.6 L157.0,114.0 L157.3,113.9 L157.7,113.8 L158.0,113.7 L158.3,113.6 L183.0,107.0 L185.0,105.0 L194.6,103.7 L197.0,103.4 L198.6,103.2 L199.1,103.1 L199.3,103.1 L200.8,102.9 L202.3,102.6 L211.8,102.0 L219.8,101.6 L227.8,101.2 L232.1,101.0 L236.4,100.7 L237.6,100.7 L269.7,102.8 L276.2,103.4 L283.4,104.3 L287.6,104.9 L289.0,105.4 L291.9,106.2 L296.6,107.3 L301.0,108.7 L307.0,111.0 L314.0,111.0 L315.8,112.3 L318.5,113.8 L322.5,115.9 L326.8,118.3 L331.3,120.8 L335.1,123.0 L336.7,123.9 L337.8,124.5 L338.3,124.8 L340.1,125.9 L342.0,127.0 L344.1,128.3 L346.3,129.5 L347.6,130.2 L348.9,131.0 L349.3,131.2 L349.7,131.5 L351.1,132.3 L354.0,134.0 L356.0,137.0 L358.0,137.0 L357.4,130.5 L356.8,124.0 L356.2,117.5 L354.4,108.7 L352.1,104.1 L350.2,100.9 L348.7,99.0 L347.7,97.7 L347.3,97.1 L346.5,96.1 L345.8,95.3 L345.4,94.8 L343.4,92.4 L340.7,88.8 L337.6,84.3 L333.7,78.9 L329.0,72.6 L324.8,66.7 L320.9,61.1 L317.8,56.7 L315.4,53.6 L312.1,50.7 L307.9,48.0 L302.7,44.6 L296.4,40.4 L289.9,36.5 L283.1,32.9 L279.4,30.9 L278.3,30.5 L271.0,27.0 L274.0,25.0 L284.5,25.9 L286.9,26.1 L289.2,26.3 L291.6,26.5 L301.9,28.5 L320.3,32.3 L330.8,34.6 L333.7,35.6 L342.5,39.2 L357.3,45.5 L361.2,47.2 L365.1,48.9 L366.0,49.4 L369.4,51.5 L370.0,51.8 L370.3,52.1 L373.6,54.1 L376.9,56.2 L377.9,56.8 L381.4,59.0 L382.4,59.6 L388.1,64.2 L398.4,72.7 L406.2,79.7 L411.7,85.1 L417.9,92.1 L425.1,100.5 L429.1,105.5 L430.1,107.2 L431.8,109.9 L434.1,113.5 L440.3,126.3 L445.3,137.2 L448.8,144.7 L450.3,148.1 L453.0,154.1 L455.7,160.2 L456.5,162.4 L458.4,170.3 L459.8,177.1 L460.8,181.7 L461.3,183.9 L462.7,191.0 L462.8,191.7 L463.5,209.2 L463.6,212.2 L463.7,214.2 L464.3,232.8 L465.0,251.5 L465.1,253.2 L465.1,253.6 L465.2,257.3 L465.8,279.1 L465.9,288.3 L465.9,289.9 L465.9,290.3 L465.9,292.7 L465.9,295.2 L465.9,302.4 L466.0,340.0 L478.0,344.0 L479.4,346.1 L480.8,348.2 L482.2,350.3 L483.8,354.1 L484.1,357.5 L484.1,358.5 L484.2,359.2 L484.2,359.5 L484.2,359.9 L484.2,360.2 L484.2,360.5 L482.0,373.0 L485.1,374.5 L487.2,375.5 L487.9,375.8 L488.1,375.9 L494.2,378.8 L500.4,381.8 L509.9,386.5 L516.6,390.0 L521.7,392.6 L524.9,394.0 L527.8,395.4 L530.6,396.8 L538.8,400.9 L544.3,403.7 L546.8,405.0 L547.2,405.3 L547.3,405.3 L548.1,405.8 L548.9,406.2 L549.1,406.3 L549.7,406.7 L551.5,407.6 L552.7,408.2 L553.2,408.5 L556.4,410.1 L559.5,411.7 L563.8,414.0 L566.1,415.4 L567.3,416.1 L568.0,417.0 L567.0,421.0 L564.2,421.6 L562.2,422.0 L561.6,422.1 L561.3,422.2 L555.7,423.3 L550.0,424.5 L543.5,425.8 L542.1,426.0 L541.5,426.0 L533.0,427.0 L532.8,427.8 L532.5,428.5 L532.0,430.0 L531.5,431.5 L528.0,436.0 L522.0,442.0 L512.2,448.5 L505.5,452.0 L498.8,455.5 L495.0,457.4 L491.3,459.3 L489.3,460.3 L477.0,466.0 L476.2,465.8 L475.5,465.5 L474.0,465.0 L472.5,464.5 L470.2,463.3 L468.8,462.0 L467.9,461.2 L467.3,460.7 L467.2,460.5 L466.4,459.8 L465.0,457.9 L462.3,453.5 L460.0,448.0 L460.0,449.6 L459.8,459.5 L459.8,461.2 L459.8,462.3 L459.6,472.6 L459.4,482.9 L459.4,483.8 L459.4,484.0 L459.4,486.4 L459.0,500.2 L458.4,517.4 L458.0,528.0 L460.0,516.0 L464.0,516.0 L464.0,564.0 L462.0,566.0 L46.0,566.0 L44.0,564.0 L44.0,542.8 L44.0,539.2 L44.0,536.7 L43.9,513.8 L43.9,490.8 L43.9,488.8 L43.9,488.4 L43.9,484.7 L43.8,463.2 L43.8,462.5 L43.8,458.2 L43.8,454.3 L43.8,451.4 L43.8,437.7 L43.8,427.5 L43.8,425.7 L43.8,425.3 L43.8,421.6 L43.8,418.0 L43.8,417.0 L43.8,413.3 L43.8,412.6 L43.8,405.9 L43.8,399.8 L43.8,399.3 L43.8,399.0 L43.8,395.3 L43.7,373.7 L43.7,351.8 L43.7,348.1 L43.7,346.6 L43.7,334.6 L43.6,322.6 L43.6,321.5 L43.6,321.3 L43.6,319.1 L43.6,306.4 L43.6,303.3 L43.6,302.7 L43.6,302.6 L43.6,301.6 L43.6,300.5 L43.6,300.3 L43.6,299.7 L43.6,294.4 L43.6,293.5 L43.6,293.0 L43.6,287.6 L43.6,282.2 L43.6,281.8 L43.6,281.6 L43.6,279.9 L43.6,269.9 L43.6,259.9 L43.6,258.2 L43.6,257.7 L43.5,253.5 L43.5,249.3 L43.5,248.9 L43.5,248.0 L43.5,242.6 L45.4,220.7 L49.1,183.5 L51.4,163.4 L52.3,160.9 L52.5,160.5 L52.5,160.4 L52.9,159.4 L53.2,158.4 L53.3,158.1 L53.7,157.0 L55.4,152.8 L57.1,148.7 L63.4,133.6 L68.3,123.4 L71.8,117.9 L78.9,108.2 L89.5,94.1 L96.3,85.6 L99.1,82.4 L103.2,78.4 L108.4,73.4 L110.1,71.8 L111.2,70.7 L111.7,70.2 L113.1,68.9 L118.2,65.2 L126.9,59.1 L133.4,54.7 L137.1,52.5 L137.7,52.1 L137.9,52.0 L139.1,51.3 L140.2,50.6 L140.5,50.4 L141.1,50.0 L142.0,49.4 L143.0,48.9 L145.9,47.0 L150.5,44.5 L157.0,41.4 L160.8,39.7 L165.1,38.2 L171.4,36.0 L181.7,33.4 L199.9,29.1 L209.4,26.9 L210.3,26.8 L212.8,26.6 L213.3,26.5 L213.5,26.5 L215.8,26.3 L218.1,26.1 L218.8,26.0 L220.3,25.9 L220.9,25.8 L221.2,25.8 L222.3,25.7 L254.0,26.0 Z" fill="#6a6e74"/>
<path d="M171.0,39.0 L176.0,39.0 L175.8,39.5 L175.5,40.0 L175.0,41.0 L174.5,42.0 L172.9,44.0 L171.8,45.1 L170.7,46.1 L169.2,47.5 L168.6,48.1 L166.2,50.1 L164.1,51.8 L162.6,53.0 L162.0,53.5 L154.7,60.8 L144.2,72.0 L138.3,78.6 L137.1,80.7 L135.3,83.0 L133.1,85.7 L131.6,87.9 L130.7,89.7 L128.8,92.9 L125.9,97.6 L122.6,103.5 L120.8,107.0 L118.9,110.5 L117.9,112.2 L117.0,114.0 L116.0,118.0 L114.0,119.0 L112.0,125.0 L110.0,125.0 L110.0,125.3 L109.9,125.6 L109.9,126.2 L109.8,126.8 L109.1,129.4 L107.8,133.4 L106.2,138.8 L104.4,145.6 L102.1,153.3 L99.4,161.8 L97.8,166.3 L97.5,166.9 L96.5,169.4 L94.9,173.8 L93.8,177.8 L92.5,184.9 L91.0,194.0 L89.0,194.0 L88.9,194.5 L88.7,196.3 L88.4,198.4 L88.3,198.8 L88.2,199.6 L88.1,200.3 L88.0,200.5 L87.9,201.3 L87.7,202.6 L87.4,203.9 L86.5,208.5 L85.6,213.7 L84.9,219.7 L84.4,223.2 L83.8,237.5 L82.0,277.0 L81.4,287.3 L81.2,289.1 L81.2,290.2 L80.4,301.1 L79.7,312.0 L79.7,313.0 L79.6,313.2 L79.5,314.9 L78.8,325.3 L78.8,326.0 L78.4,330.2 L78.3,331.0 L78.2,331.9 L77.7,337.4 L77.5,339.7 L77.4,340.3 L77.4,340.4 L77.2,343.0 L76.9,345.6 L76.9,346.1 L76.8,346.8 L76.8,347.3 L76.6,348.7 L76.6,349.2 L76.6,349.4 L76.2,352.6 L76.0,355.0 L75.8,356.7 L75.7,358.0 L75.6,359.0 L75.5,359.6 L75.5,359.9 L75.4,360.6 L75.4,360.8 L75.3,361.4 L75.3,361.7 L75.3,362.1 L74.0,368.0 L72.0,368.0 L72.0,368.4 L72.0,369.0 L71.9,369.5 L71.9,369.9 L71.9,371.9 L71.7,375.1 L71.7,375.7 L71.7,375.9 L71.6,377.1 L71.6,378.3 L71.6,378.7 L71.5,380.1 L71.4,382.8 L71.3,384.7 L71.2,385.5 L70.6,394.7 L70.3,401.8 L70.2,406.7 L70.1,409.6 L70.0,410.5 L69.8,411.5 L69.3,412.5 L68.5,416.1 L67.5,422.3 L66.9,426.1 L66.7,427.5 L66.5,429.6 L66.5,430.3 L66.3,432.4 L66.2,433.3 L66.2,433.6 L66.0,435.4 L65.8,437.1 L65.7,438.3 L65.5,440.5 L65.5,441.1 L65.4,442.2 L65.3,443.3 L64.5,451.2 L64.0,457.0 L62.0,457.0 L62.0,457.4 L62.0,457.8 L62.0,458.2 L61.9,462.2 L61.8,462.9 L61.8,463.3 L61.6,467.3 L61.4,471.3 L61.4,472.4 L61.2,476.3 L61.1,477.0 L60.4,481.6 L60.3,482.4 L60.3,482.9 L59.6,487.6 L58.9,492.2 L58.8,492.6 L58.8,492.8 L58.6,494.2 L57.9,499.5 L57.4,502.7 L56.3,511.1 L56.1,512.5 L56.1,512.8 L55.8,515.1 L55.5,517.4 L55.1,520.6 L53.0,537.0 L51.0,537.0 L51.0,537.6 L51.0,537.9 L51.0,538.2 L50.0,563.0 L46.0,563.0 L46.0,538.6 L46.0,537.5 L46.0,536.3 L46.0,525.7 L45.9,494.5 L45.9,486.7 L45.9,484.2 L45.9,468.9 L45.9,462.4 L45.9,460.9 L45.9,460.7 L45.9,460.4 L45.9,460.0 L45.9,457.3 L45.9,452.2 L45.9,451.5 L45.9,451.3 L45.9,448.8 L45.9,438.8 L45.9,435.4 L45.9,434.5 L45.9,422.8 L45.9,415.1 L45.9,411.0 L45.9,410.3 L45.9,410.2 L45.9,409.7 L45.9,409.3 L45.9,402.8 L45.9,396.3 L45.9,387.9 L45.9,372.6 L45.9,370.7 L45.9,370.3 L45.9,370.1 L45.9,366.1 L45.8,350.0 L45.8,344.6 L45.8,344.0 L45.8,343.9 L45.8,342.8 L45.8,317.3 L45.8,302.7 L45.8,302.1 L45.8,302.0 L45.8,301.2 L45.8,298.9 L45.8,298.3 L45.8,298.1 L45.8,296.8 L45.8,296.2 L45.8,296.0 L45.8,295.7 L45.8,295.3 L45.8,293.3 L45.8,289.5 L45.8,289.1 L45.8,288.9 L45.8,287.1 L45.8,279.8 L45.8,277.3 L45.8,276.5 L45.8,265.1 L45.8,253.6 L45.8,253.1 L45.8,252.9 L45.8,251.0 L45.8,245.3 L45.8,243.9 L45.8,243.3 L45.8,239.4 L45.8,237.8 L45.8,237.3 L45.8,234.3 L45.8,231.2 L45.8,229.3 L45.8,225.8 L45.8,225.3 L45.8,225.2 L45.8,224.6 L45.8,222.1 L45.8,221.3 L45.8,221.1 L45.8,219.0 L46.3,212.0 L47.3,200.2 L47.7,195.9 L48.1,191.7 L48.6,186.5 L50.6,177.5 L55.4,158.1 L56.0,157.0 L59.0,157.0 L59.2,155.2 L59.8,152.6 L60.7,149.3 L60.9,148.7 L60.9,148.6 L61.2,147.7 L61.4,146.8 L62.0,144.5 L65.0,133.0 L65.2,132.8 L65.5,132.6 L65.7,132.4 L67.2,130.6 L69.8,127.5 L71.6,125.0 L72.5,122.9 L73.6,121.1 L74.8,119.4 L76.4,117.1 L78.3,114.1 L79.4,112.2 L79.8,111.4 L81.1,109.1 L83.4,105.3 L84.9,103.1 L85.6,102.4 L86.4,101.4 L87.1,100.2 L88.9,97.9 L91.8,94.4 L95.3,90.5 L99.3,86.3 L107.0,79.2 L118.2,69.2 L126.0,63.1 L130.3,60.7 L135.7,57.4 L147.4,50.0 L150.1,48.3 L151.8,47.4 L154.5,46.1 L156.2,45.4 L157.7,45.3 L158.9,45.1 L160.0,45.0 L160.0,43.0 L162.1,42.4 L165.0,41.5 L167.3,40.8 L167.9,40.6 L170.0,40.0 L171.0,39.0 Z M376.4,61.2 L377.3,61.7 L379.4,62.6 L382.9,63.9 L386.3,65.4 L389.5,67.0 L392.0,68.6 L393.5,69.9 L394.3,70.7 L394.9,71.2 L395.0,71.3 L395.6,71.8 L397.5,73.7 L398.9,75.0 L399.5,75.6 L403.1,79.2 L406.8,82.7 L411.6,87.4 L413.9,89.7 L419.1,94.8 L421.1,97.4 L424.4,101.8 L426.4,105.1 L427.3,107.2 L427.9,108.8 L428.2,109.7 L428.4,110.2 L429.0,112.0 L429.2,112.2 L429.5,112.4 L429.7,112.6 L430.3,113.2 L430.9,113.7 L431.3,114.1 L432.3,114.9 L433.5,117.0 L435.3,120.4 L437.1,123.8 L439.1,127.2 L442.6,134.1 L445.2,139.3 L446.9,142.8 L447.7,144.4 L449.1,147.2 L450.4,149.9 L450.7,150.6 L451.5,152.8 L452.2,154.8 L452.8,156.7 L453.3,158.0 L453.8,159.3 L454.0,160.0 L454.3,160.7 L455.9,168.5 L458.8,182.6 L460.3,190.7 L461.3,200.0 L462.2,207.8 L462.4,212.8 L462.5,213.6 L462.5,214.1 L462.7,219.0 L462.9,223.9 L463.0,224.3 L463.0,224.4 L463.0,225.3 L463.2,230.5 L463.4,254.6 L464.0,341.0 L464.4,341.2 L465.1,341.5 L465.9,341.9 L466.7,342.3 L467.2,342.6 L467.6,342.8 L468.2,343.1 L468.5,343.2 L469.1,343.5 L469.4,343.7 L469.9,343.9 L478.0,349.0 L478.6,350.5 L479.5,352.5 L480.2,354.1 L480.4,354.5 L481.0,356.0 L480.0,369.0 L478.7,370.7 L476.9,373.0 L475.5,374.8 L475.2,375.2 L474.4,376.3 L473.9,376.9 L466.0,382.0 L461.0,382.0 L460.8,381.6 L460.7,381.1 L460.3,380.2 L460.0,379.4 L459.7,378.7 L459.4,378.0 L459.0,377.0 L458.1,372.9 L456.6,365.5 L455.8,360.7 L455.9,355.7 L455.9,353.9 L455.9,353.0 L455.9,351.1 L456.0,347.7 L456.0,346.5 L456.0,345.8 L456.0,340.6 L456.1,335.2 L455.8,329.1 L455.5,323.3 L455.3,319.3 L455.3,318.0 L455.3,317.5 L454.6,306.1 L453.8,294.8 L453.6,291.7 L453.5,289.7 L453.4,288.7 L453.4,288.0 L453.3,284.6 L453.2,284.0 L453.2,283.3 L453.0,279.0 L452.9,277.1 L452.9,276.7 L452.9,276.6 L452.8,274.1 L452.7,271.7 L452.7,270.7 L452.6,269.1 L452.6,268.5 L452.5,267.1 L452.5,266.6 L452.5,266.5 L452.4,265.4 L452.4,264.6 L452.1,260.7 L451.5,254.7 L451.1,249.5 L450.8,245.3 L449.7,234.3 L449.5,232.4 L449.4,231.4 L448.4,221.4 L447.3,211.4 L447.2,210.5 L447.2,210.3 L447.0,208.6 L446.4,202.6 L446.0,199.0 L445.8,198.0 L444.6,193.4 L444.4,192.6 L444.3,192.2 L443.2,187.7 L442.0,183.2 L441.9,182.8 L441.9,182.7 L441.7,181.8 L440.3,176.6 L439.6,174.1 L436.3,165.4 L430.6,150.5 L426.6,140.1 L425.3,137.3 L424.1,134.4 L423.4,132.8 L422.7,131.2 L422.5,130.6 L422.2,129.9 L422.0,129.4 L421.9,129.1 L421.5,128.3 L421.3,127.8 L419.5,125.8 L416.5,123.2 L414.8,121.4 L414.3,120.2 L412.3,116.0 L406.9,105.4 L403.0,97.0 L400.0,95.0 L399.8,94.2 L399.5,93.5 L399.0,92.0 L398.5,90.5 L397.4,88.5 L396.3,87.5 L395.0,86.2 L393.7,84.7 L392.7,83.2 L392.0,81.6 L391.0,79.4 L389.4,76.6 L387.5,74.0 L385.5,71.9 L385.1,71.5 L385.0,71.4 L384.1,70.5 L383.2,69.5 L382.9,69.1 L381.5,67.7 L380.5,66.7 L380.0,66.2 L379.7,65.8 L379.6,65.7 L379.3,65.4 L376.0,61.0 Z M291.0,280.0 L306.0,280.0 L306.4,280.4 L307.0,281.0 L307.5,281.5 L307.6,281.6 L308.0,282.0 L313.0,284.0 L317.0,290.0 L317.0,294.0 L319.0,294.0 L319.0,315.0 L312.8,320.9 L310.3,323.1 L309.6,323.7 L309.3,323.9 L308.0,325.0 L300.3,325.8 L297.3,326.1 L296.6,326.1 L296.3,326.1 L292.0,326.0 L290.3,324.8 L288.5,323.5 L287.3,322.7 L286.9,322.4 L286.8,322.3 L284.6,320.5 L283.7,319.5 L283.4,319.1 L283.0,318.7 L282.6,318.2 L281.6,316.9 L280.1,314.7 L279.3,312.2 L279.0,309.2 L278.9,307.2 L278.9,306.0 L278.9,304.9 L278.9,303.8 L278.9,302.8 L278.9,302.2 L278.9,301.8 L278.9,301.0 L279.0,300.5 L279.0,299.2 L279.0,298.7 L279.0,298.6 L279.0,296.8 L279.0,295.9 L279.0,295.6 L280.0,292.2 L282.0,288.6 L283.8,286.2 L285.1,285.1 L285.9,284.4 L286.4,284.0 L286.5,283.9 L286.9,283.5 L287.8,282.8 L288.6,282.1 L289.2,281.6 L289.4,281.5 L290.0,281.0 L291.0,280.0 Z M510.8,392.0 L516.0,392.0 L525.0,396.0 L525.0,402.0 L522.0,404.0 L514.0,404.0 L509.0,399.0 L509.0,392.0 Z" fill="#929ba5"/>
<path d="M267.0,276.2 L270.0,277.5 L273.0,278.8 L274.6,279.5 L276.3,280.2 L276.6,280.3 L276.9,280.5 L277.2,280.6 L283.0,284.0 L281.5,289.3 L280.7,292.3 L280.1,294.8 L279.8,297.9 L279.9,304.6 L280.0,312.0 L284.6,318.6 L286.6,321.3 L287.3,322.0 L287.6,322.4 L289.0,324.0 L290.2,324.3 L292.6,324.8 L294.3,325.1 L296.5,325.1 L297.3,325.1 L297.8,325.1 L299.1,325.1 L300.4,325.1 L300.9,325.1 L301.7,325.1 L308.0,325.0 L303.0,371.0 L280.0,396.0 L276.4,397.0 L269.2,399.1 L262.8,400.2 L260.0,400.2 L257.2,400.3 L254.0,400.3 L253.4,400.3 L252.4,400.3 L251.7,400.3 L251.3,400.3 L249.3,400.3 L248.1,400.2 L247.5,400.2 L247.1,400.2 L246.8,400.2 L239.0,399.0 L238.0,397.0 L237.0,396.8 L236.0,396.5 L234.0,396.0 L232.0,395.5 L228.6,393.8 L226.1,391.9 L225.7,391.6 L225.6,391.5 L224.8,390.8 L223.9,390.1 L223.7,390.0 L223.0,389.4 L220.6,386.8 L214.7,380.1 L214.0,379.0 L214.0,377.0 L211.0,376.0 L210.0,368.0 L208.0,368.0 L206.9,364.4 L206.8,363.8 L206.6,363.4 L205.5,359.5 L204.4,355.6 L204.1,354.6 L203.0,351.0 L202.0,350.0 L202.0,325.0 L202.4,324.4 L202.8,323.8 L203.5,322.5 L204.2,321.2 L205.3,318.7 L206.0,316.2 L208.2,310.7 L212.1,302.2 L216.2,295.4 L220.5,290.2 L223.7,287.0 L224.8,286.3 L225.9,285.7 L226.8,285.1 L227.7,284.6 L229.2,283.7 L229.9,283.2 L232.0,282.0 L235.0,282.0 L235.0,280.0 L236.4,279.2 L238.4,278.2 L240.0,277.3 L240.4,277.1 L241.3,276.6 L241.7,276.4 L241.8,276.4 L264.0,275.0 Z M324.0,268.0 L328.0,269.0 L330.2,272.2 L334.6,278.7 L337.8,283.2 L339.9,285.7 L341.1,287.6 L341.8,290.2 L342.1,291.3 L342.3,291.8 L342.6,292.9 L342.8,293.8 L343.0,294.6 L343.4,296.1 L343.9,297.4 L344.7,299.3 L345.3,301.3 L345.9,303.4 L346.2,305.5 L346.2,309.5 L346.2,310.1 L346.2,310.7 L346.2,313.2 L346.1,316.0 L346.1,316.6 L346.1,316.9 L346.1,318.2 L346.0,328.0 L344.0,328.0 L344.0,327.6 L343.9,327.3 L343.9,326.9 L340.0,306.1 L338.9,300.3 L339.0,299.0 L337.0,299.0 L336.8,297.5 L335.8,293.6 L334.9,290.2 L333.9,286.7 L333.0,283.3 L324.0,269.0 L324.0,268.0 Z M454.0,370.0 L457.0,371.0 L460.0,382.0 L463.0,384.0 L462.0,390.0 L460.0,392.0 L453.0,391.0 L453.0,387.0 L453.0,386.3 L453.0,385.8 L453.0,381.5 L453.0,377.2 L453.0,376.0 L453.0,372.0 L454.0,370.0 Z" fill="#3c3b3b"/>
<path d="M477.8,376.0 L483.0,376.0 L491.0,380.0 L491.0,382.0 L492.3,382.4 L494.0,383.0 L495.4,383.5 L495.7,383.6 L497.0,384.0 L498.0,385.0 L499.3,385.2 L503.3,386.5 L510.4,388.8 L514.8,390.8 L515.5,391.5 L516.2,392.2 L516.6,392.6 L517.0,393.0 L529.0,397.0 L530.0,401.0 L537.0,403.0 L537.0,405.0 L537.8,405.2 L540.1,406.2 L544.1,408.0 L549.2,410.1 L552.3,411.2 L555.4,412.4 L560.1,414.2 L564.9,416.1 L566.0,417.0 L566.0,420.0 L533.0,424.0 L531.6,425.7 L531.2,426.2 L530.8,426.7 L530.6,427.0 L530.3,427.3 L529.4,428.7 L528.1,430.7 L525.0,434.1 L520.1,438.8 L516.8,441.8 L515.9,442.6 L514.9,443.3 L514.0,444.0 L510.0,445.0 L510.0,447.0 L508.6,447.7 L507.1,448.5 L504.3,450.0 L502.3,451.0 L501.6,451.3 L501.4,451.4 L497.6,453.4 L495.6,454.4 L490.8,456.6 L479.1,461.7 L473.0,462.0 L467.0,457.0 L465.4,450.7 L464.9,448.8 L464.8,448.2 L464.4,446.9 L464.1,445.6 L464.0,445.1 L463.8,444.4 L463.4,442.7 L463.0,439.0 L461.0,439.0 L460.0,394.0 L463.0,393.0 L465.0,383.0 L465.4,382.8 L465.8,382.7 L466.6,382.4 L467.4,382.1 L469.5,381.0 L473.4,378.9 L476.0,376.0 Z" fill="#bc7c51"/>
<path d="M242.2,382.0 L249.0,382.0 L255.0,385.0 L255.0,392.0 L251.0,395.0 L244.0,395.0 L241.0,393.0 L241.0,391.0 L237.0,390.0 L237.0,385.0 L240.0,382.0 Z" fill="#4e5358"/>
<path d="M241.8,384.0 L247.0,384.0 L249.0,385.0 L249.0,387.0 L252.0,387.0 L251.0,392.0 L243.0,392.0 L239.0,389.0 L240.0,384.0 Z" fill="#7c868f"/>
</svg>