<?xml version="1.0" encoding="UTF-8"?>
<!-- Generator: visioncortex VTracer 0.6.5 -->
<svg version="1.1" xmlns="http://www.w3.org/2000/svg" width="579" height="603">
<rect width="579" height="603" fill="#63707C"/>
<path d="M0 0 C2.97 0.01 5.94 0 8.91 -0 C50.3 -0.09 91.52 1.51 365.7 372.91 C365.69 376 365.69 379.09 365.7 382.18 C365.79 425.26 364.25 468.18 7.63 753.76 C4.66 753.76 1.7 753.76 -1.27 753.77 C-42.67 753.86 -83.88 752.25 -358.06 380.86 C-358.06 377.76 -358.06 374.67 -358.07 371.58 C-358.15 328.51 -356.62 285.59 0 0 Z " fill="#63707C" transform="translate(285.68340777943376,-75.38121077179676)"/>
<path d="M0 0 C1.13 0.07 2.26 0.14 3.39 0.21 C25.41 1.54 47.25 3.8 69.07 7.09 C70.8 7.35 72.53 7.6 74.26 7.86 C82.79 9.1 91.25 10.55 99.7 12.28 C101.77 12.69 103.84 13.05 105.92 13.38 C119.91 15.63 126.97 18.95 126.63 33.85 C126.63 34.15 126.62 34.45 126.62 34.76 C126.57 36.81 126.42 38.82 126.22 40.86 C126.17 41.39 126.13 41.92 126.09 42.47 C125.34 47.72 120.62 50.04 115.55 49.08 C114.91 48.99 114.27 48.9 113.62 48.82 C113.46 48.79 113.46 48.79 112.65 48.67 C111.1 48.46 109.54 48.37 107.97 48.28 C106.11 48.16 104.25 48.04 102.4 47.86 C96.46 47.32 91.15 48.23 85.3 49.31 C83.25 49.64 81.21 49.77 79.14 49.85 C65.92 50.51 54.46 54.29 42.2 58.93 C39.45 59.97 36.71 60.94 33.88 61.75 C23.63 64.74 14.99 70.78 6.2 76.69 C3.71 78.36 1.2 79.95 -1.38 81.48 C-11.04 87.23 -18.86 94.36 -26.74 102.33 C-27.77 103.37 -28.79 104.4 -29.82 105.43 C-39.12 114.77 -47.35 123.81 -53.14 135.77 C-54.39 138.31 -55.83 140.67 -57.39 143.02 C-63.62 152.45 -68.05 161.77 -71.66 172.47 C-72.07 173.69 -72.49 174.9 -72.91 176.11 C-76.95 187.83 -80.01 199.1 -80.9 211.52 C-80.94 211.99 -80.98 212.47 -81.01 212.96 C-81.09 214.04 -81.16 215.12 -81.23 216.2 C-81.98 227.38 -83.95 238.24 -86.22 249.19 C-86.84 252.2 -87.46 255.22 -88.09 258.24 C-88.17 258.63 -88.25 259.02 -88.33 259.42 C-98.2 307.38 -105.06 355.65 -109.6 407.57 C-109.78 409.67 -109.97 411.77 -110.16 413.87 C-114.37 460.71 -118.01 512.12 118.28 611.33 C123 611.11 127.72 610.92 132.44 610.75 C132.76 610.74 133.07 610.73 133.39 610.72 C134.66 610.67 135.92 610.62 137.18 610.58 C167.69 609.46 198.1 607.67 232 604.39 C233.17 604.28 234.33 604.17 235.5 604.05 C235.79 604.02 236.08 604 236.38 603.97 C240.76 603.54 245.15 603.15 249.54 602.77 C264.96 601.46 280.31 599.89 295.6 597.48 C296.09 597.4 296.59 597.33 297.1 597.25 C340.26 590.37 345.81 568.92 332.87 529.54 C332.74 531.46 332.62 533.38 332.49 535.31 C332.44 535.96 332.4 536.61 332.36 537.26 C331.92 543.86 331.92 543.86 331.7 547.11 C331.63 548.3 331.55 549.48 331.47 550.66 C331.43 551.24 331.39 551.82 331.35 552.4 C331.07 556.82 330.55 561.16 329.87 565.54 C327.6 562.86 327.66 560.83 327.88 557.41 C327.9 556.88 327.93 556.36 327.95 555.83 C328 554.67 328.06 553.52 328.12 552.37 C328.29 549.11 328.42 545.84 328.55 542.58 C328.56 542.23 328.58 541.87 328.59 541.51 C328.96 532.38 329.05 523.26 329.14 514.13 C329.16 512.32 329.18 510.5 329.2 508.69 C329.27 501.75 329.34 494.8 329.4 487.86 C329.45 482.71 329.49 477.57 329.55 472.42 C329.58 469.8 329.6 467.18 329.62 464.55 C329.64 462.95 329.65 461.34 329.67 459.73 C329.68 458.99 329.69 458.24 329.69 457.49 C329.7 456.48 329.71 455.47 329.72 454.46 C329.72 454.31 329.72 454.31 329.72 453.55 C329.76 451.54 329.76 451.54 330.87 451.54 C331.2 452.56 331.45 453.54 331.67 454.58 C331.82 455.24 331.98 455.91 332.13 456.57 C332.21 456.92 332.29 457.27 332.37 457.64 C333.72 463.5 335.29 469.22 337.44 474.85 C337.54 475.12 337.64 475.39 337.74 475.67 C341.57 485.95 347.9 484.52 356.32 480.11 C357.02 479.75 357.72 479.4 358.42 479.05 C360.25 478.12 362.07 477.18 363.89 476.24 C365.73 475.28 367.59 474.34 369.44 473.4 C371.53 472.34 373.61 471.28 375.69 470.2 C376.01 470.04 376.33 469.88 376.65 469.71 C377.26 469.4 377.86 469.09 378.47 468.77 C380.36 467.79 382.28 466.87 384.25 466.04 C385.17 465.3 384.91 464.66 384.87 463.54 C385.54 463.54 386.21 463.54 386.87 463.54 C386.86 463.37 386.86 463.37 386.81 462.54 C386.87 461.54 386.87 461.54 388.19 461.6 C390.33 461.52 390.76 460.92 392.12 459.38 C392.87 458.54 392.87 458.54 393.62 457.92 C395.91 456 396.8 453.63 397.78 450.88 C398.53 448.9 398.74 448.35 400.87 448.54 C400.86 448.23 400.84 447.93 400.83 447.61 C400.97 444.19 407.81 443.96 410.33 443.65 C411.23 443.54 412.14 443.42 413.04 443.29 C414.96 443.03 416.89 442.78 418.81 442.54 C421.04 442.25 423.27 441.96 425.49 441.66 C426.38 441.54 427.26 441.43 428.14 441.32 C431.64 440.85 434.67 440.03 437.87 438.54 C437.58 438.39 437.29 438.25 436.99 438.1 C432.73 435.96 428.46 433.83 424.19 431.7 C423.91 431.56 423.64 431.42 423.35 431.28 C422.8 431 422.24 430.72 421.68 430.44 C420.24 429.72 418.79 429 417.35 428.28 C414.62 426.91 411.9 425.55 409.18 424.19 C407.62 423.4 406.06 422.62 404.5 421.84 C404.18 421.67 403.86 421.51 403.53 421.35 C398.63 418.89 393.72 416.48 388.79 414.09 C384.69 412.1 380.6 410.1 376.52 408.09 C373.87 406.79 371.23 405.5 368.57 404.23 C365.96 402.97 363.35 401.69 360.76 400.41 C359.77 399.92 358.79 399.45 357.8 398.98 C356.43 398.33 355.08 397.65 353.73 396.98 C353.32 396.79 352.91 396.6 352.49 396.41 C348.53 394.36 350.16 391.75 351.94 388.41 C356.95 375.98 350.21 364.49 336.88 363.46 C333.07 362.99 333.31 360.93 333.38 357.52 C333.38 356.99 333.37 356.47 333.37 355.92 C333.36 354.45 333.37 352.98 333.38 351.51 C333.4 349.92 333.39 348.33 333.38 346.75 C333.37 343.99 333.37 341.23 333.39 338.47 C333.41 334.44 333.4 330.42 333.39 326.39 C333.36 319.81 333.36 313.23 333.36 306.65 C333.36 306.26 333.36 305.86 333.36 305.46 C333.37 302.28 333.37 299.1 333.37 295.92 C333.38 293.19 333.38 290.46 333.38 287.73 C333.38 287.53 333.38 287.53 333.38 286.56 C333.39 280.05 333.38 273.53 333.36 267.02 C333.34 263.38 333.34 259.74 333.36 256.1 C333.43 240.76 332.97 225.63 331.21 210.37 C331.08 209.29 330.96 208.21 330.84 207.13 C329.48 195.06 326.52 184.25 321.85 172.99 C320.92 170.7 320.13 168.39 319.36 166.05 C316.1 156.29 311.28 147.75 305.87 139.04 C305.7 138.76 305.53 138.48 305.35 138.2 C303.37 135.01 301.35 131.84 299.29 128.7 C298.27 127.16 297.28 125.6 296.3 124.04 C291.44 116.51 285.2 110.26 278.89 103.94 C277.63 102.68 276.39 101.42 275.16 100.13 C266.74 91.38 258.28 84.85 247.6 79.06 C245.09 77.69 242.75 76.16 240.46 74.43 C219.92 59.22 192.01 51.28 166.87 48.73 C166.5 48.69 166.13 48.65 165.75 48.61 C157.34 47.73 149.1 47.23 140.68 48.21 C138.99 48.37 137.32 48.41 135.62 48.41 C135.24 48.42 134.86 48.43 134.47 48.44 C124.75 48.45 123.49 42.82 123.4 34.2 C123.4 34.06 123.4 34.06 123.39 33.3 C123.15 16 137.93 12.91 152.1 9 C154.86 8.24 157.6 7.43 160.34 6.59 C200.53 -5.7 241.86 -13.26 283.53 -18.25 C286.89 -18.65 290.24 -19.08 293.6 -19.51 C336.67 -25.04 384.96 -27.18 506.19 318.02 C506.28 321.14 506.38 324.26 506.48 327.38 C507.89 370.33 508.05 413.23 164.22 698.92 C161.23 698.91 158.23 698.92 155.24 698.92 C113.49 699.01 71.91 697.43 -181.56 340.81 C-181.24 327.76 -181.15 314.72 -181.24 301.67 C-181.55 257.68 -180.98 213.84 0 0 Z " fill="#3C3C3C" transform="translate(129.12693415442482,-20.538320068269968)"/>
<path d="M0 0 C1.03 1.12 2.19 2 3.39 2.91 C10.08 8.04 21.31 22.8 20.78 31.65 C20.78 32.84 20.78 32.84 21.72 32.81 C23.16 32.85 23.18 33.2 23.71 34.5 C23.86 34.87 24.01 35.25 24.17 35.63 C24.33 36.05 24.49 36.47 24.65 36.9 C24.82 37.34 24.99 37.77 25.16 38.22 C26.67 42.26 27.85 46.37 28.96 50.53 C29.05 50.84 29.13 51.15 29.22 51.47 C31.43 59.7 31.95 67.47 31.9 75.96 C31.9 76.48 31.89 76.99 31.89 77.52 C31.87 80.53 31.84 83.55 31.79 86.56 C31.78 87.66 31.77 88.76 31.77 89.85 C31.69 103.75 26.49 118.28 20.78 130.84 C20.63 131.17 20.49 131.5 20.35 131.83 C16.19 141.5 9.03 150.31 1.78 157.84 C1.42 158.22 1.06 158.6 0.69 158.99 C-20.97 181.55 -51.77 186.37 -81.33 180.03 C-82.11 179.86 -82.9 179.7 -83.68 179.55 C-96.83 176.82 -109.45 169.09 -118.17 159.02 C-119.08 158 -120.03 157.04 -121.02 156.1 C-124.07 153.17 -126.59 149.91 -129.08 146.49 C-129.78 145.53 -130.49 144.58 -131.21 143.63 C-135.9 137.28 -139.18 130.54 -141.72 123.09 C-141.93 122.49 -142.14 121.88 -142.35 121.28 C-142.78 120.06 -143.2 118.84 -143.61 117.61 C-144.19 115.93 -144.79 114.26 -145.4 112.59 C-145.76 111.57 -146.12 110.55 -146.47 109.53 C-146.64 109.08 -146.8 108.64 -146.97 108.19 C-149.42 101.07 -149.43 93.29 -149.41 85.84 C-149.41 85.42 -149.41 85.01 -149.41 84.58 C-149.33 64.84 -148.53 45.19 -139.79 27.21 C-139.65 26.93 -139.51 26.64 -139.37 26.34 C-137.54 22.61 -135.44 19.82 -132.41 16.98 C-130.75 15.39 -129.39 13.63 -128.04 11.78 C-127.79 11.45 -127.54 11.13 -127.29 10.79 C-126.09 9.18 -125.09 7.63 -124.27 5.8 C-123.18 3.54 -121.63 2.16 -119.72 0.59 C-119.55 0.44 -119.55 0.44 -118.66 -0.31 C-117.9 -0.94 -117.14 -1.57 -116.38 -2.19 C-115.24 -3.14 -114.14 -4.12 -113.04 -5.11 C-83.09 -31.3 -26.65 -31.32 0 0 Z " fill="#C07F52" transform="translate(313.224609375,258.16064453125)"/>
<path d="M0 0 C0.97 -0 1.93 -0.02 2.9 -0.04 C9.77 -0.1 15.72 2.04 22 4.68 C22.92 5.07 23.86 5.43 24.79 5.8 C29.64 7.78 33.37 10.39 29.72 15.44 C23.48 25.8 26.86 49.52 41.66 51.31 C42.04 51.32 42.42 51.32 42.81 51.32 C43.23 51.32 43.65 51.32 44.08 51.32 C44.3 51.32 44.3 51.32 45.41 51.31 C45.84 51.31 46.26 51.32 46.7 51.32 C47.13 51.32 47.55 51.32 47.99 51.32 C48.18 51.32 48.18 51.32 49.14 51.31 C50.6 51.19 50.6 51.19 51.85 50.77 C56.38 49.38 56.32 51.31 56.19 55.46 C56.19 56.02 56.19 56.57 56.19 57.15 C56.19 58.34 56.17 59.53 56.14 60.72 C56.1 62.23 56.1 63.72 56.1 65.23 C56.12 71.91 55.61 77.94 53.01 84.19 C52.6 85.17 52.24 86.16 51.89 87.17 C46.96 101.12 38.06 113.35 24.6 120.19 C24.17 120.42 23.73 120.66 23.29 120.9 C15.99 124.79 9.06 125.68 0.85 125.75 C0.41 125.76 -0.03 125.77 -0.49 125.77 C-7.31 125.87 -12.42 124.41 -18.4 121.19 C-18.91 120.92 -19.42 120.66 -19.93 120.39 C-21.15 119.73 -22.34 119.04 -23.53 118.31 C-23.94 118.06 -24.36 117.8 -24.79 117.54 C-33.78 111.9 -39.69 104.85 -44.53 95.44 C-44.76 94.99 -44.99 94.55 -45.22 94.1 C-46.02 92.48 -46.72 90.85 -47.4 89.19 C-47.57 88.78 -47.74 88.38 -47.91 87.96 C-51.1 80.01 -52.11 72.76 -51.98 64.28 C-51.96 63.36 -51.96 62.44 -51.95 61.52 C-51.89 52.34 -51.04 44.02 -47.08 35.63 C-46.44 34.27 -45.88 32.9 -45.34 31.49 C-40.78 20.41 -29.66 9.11 -18.67 4.3 C-17.83 3.93 -17 3.55 -16.17 3.16 C-10.81 0.72 -5.85 -0 0 0 Z " fill="#0F0F0E" transform="translate(252.4013671875,274.814697265625)"/>
<path d="M0 0 C0.45 0.01 0.9 0.02 1.37 0.03 C12.07 0.52 18.61 5.83 18.81 17 C18.82 17.43 18.83 17.87 18.84 18.32 C18.79 22.24 17.51 25.23 15.4 28.51 C13.94 31.04 14.37 31.56 17.16 32.33 C20.17 33.23 22.9 34.44 25.7 35.86 C26.18 36.1 26.67 36.34 27.16 36.59 C28.47 37.25 29.78 37.9 31.08 38.56 C32.47 39.27 33.86 39.96 35.26 40.66 C37.9 41.99 40.54 43.32 43.19 44.65 C46.13 46.13 49.08 47.61 52.03 49.09 C56.56 51.36 61.1 53.64 65.63 55.92 C70.62 58.43 75.63 60.94 80.63 63.44 C83.01 64.63 85.38 65.82 87.76 67 C88.47 67.36 89.17 67.71 89.88 68.07 C92.01 69.13 94.12 70.19 96.23 71.29 C96.86 71.61 97.49 71.93 98.12 72.25 C99.08 72.72 100.03 73.21 100.98 73.71 C101.26 73.85 101.55 73.99 101.85 74.13 C103.47 75.01 103.91 75.65 102.34 76.92 C100.56 77.88 98.57 78.1 96.59 78.41 C96.35 78.45 96.35 78.45 95.12 78.66 C94.08 78.84 93.05 79.01 92.02 79.18 C90.47 79.43 88.92 79.7 87.37 79.96 C82.41 80.8 77.46 81.57 72.44 82.03 C70.7 82.2 68.97 82.43 67.25 82.78 C66.91 82.84 66.58 82.91 66.23 82.98 C65.13 83.58 65.44 84.2 65.5 85.38 C64.83 85.38 64.17 85.38 63.5 85.38 C63.08 86.17 63.08 86.17 62.82 87.27 C62.72 87.67 62.62 88.07 62.51 88.47 C62.4 88.9 62.3 89.32 62.19 89.75 C61.15 93.38 60.48 95.17 56.56 96.04 C55.23 96.46 55.15 96.74 54.88 98.06 C54.25 100.24 53.23 99.05 51.5 98.38 C51.44 99.31 51.44 99.31 51.5 100.38 C50.83 100.38 50.17 100.38 49.5 100.38 C49.51 100.53 49.51 100.53 49.55 101.3 C49.48 102.78 49.03 102.9 47.78 103.64 C47.4 103.87 47.01 104.1 46.62 104.33 C46.19 104.58 45.77 104.82 45.33 105.07 C44.88 105.33 44.44 105.59 43.98 105.86 C38.74 108.88 33.37 111.66 27.97 114.38 C26.52 115.11 25.08 115.85 23.64 116.6 C22.51 117.19 21.38 117.76 20.24 118.33 C19.7 118.6 19.17 118.87 18.64 119.15 C7.53 124.97 3.43 118.63 -0.12 108.81 C-0.22 108.54 -0.32 108.28 -0.42 108 C-1.07 106.19 -1.64 104.37 -2.17 102.52 C-2.4 101.72 -2.64 100.92 -2.88 100.13 C-6.05 89.57 -6.11 78.95 -6.29 68.01 C-6.32 66.05 -6.38 64.09 -6.43 62.13 C-6.48 60.24 -6.52 58.35 -6.55 56.46 C-6.57 55.56 -6.59 54.66 -6.62 53.76 C-6.65 52.51 -6.67 51.27 -6.68 50.02 C-6.69 49.65 -6.71 49.28 -6.72 48.9 C-6.73 45.66 -6.73 45.66 -4.5 46.38 C-4.17 47.6 -3.99 48.63 -3.88 49.88 C-3.84 50.21 -3.8 50.54 -3.76 50.89 C-3.66 51.72 -3.58 52.55 -3.5 53.38 C-3.16 53.09 -2.82 52.8 -2.48 52.5 C-2.03 52.12 -1.58 51.75 -1.12 51.38 C-0.9 51.18 -0.68 50.99 -0.45 50.8 C1.29 49.36 1.29 49.36 2.6 49.44 C3.5 49.38 3.5 49.38 3.82 47.89 C4.93 45.41 6.95 46.06 9.44 46.06 C14.56 45.85 16.18 44.78 16.5 39.38 C16.53 38.98 16.55 38.59 16.58 38.18 C16.5 37.38 16.5 37.38 15.56 37.44 C14.5 37.38 14.5 37.38 14.19 35.81 C12.34 31.96 6.89 36.35 4.5 37.94 C-2.56 42.54 -5.12 40.92 -7.5 33.38 C-7.67 32.92 -7.85 32.46 -8.03 31.99 C-8.56 30.17 -8.66 28.6 -8.67 26.71 C-8.67 26.37 -8.68 26.02 -8.68 25.66 C-8.69 24.55 -8.69 23.43 -8.69 22.31 C-8.69 22.12 -8.69 22.12 -8.69 21.16 C-8.68 16.48 -8.53 11.92 -7.62 7.31 C-7.59 7.11 -7.59 7.11 -7.39 6.07 C-6.76 3.36 -6.76 3.36 -4.5 3.38 C-4.55 2.89 -4.6 2.4 -4.66 1.9 C-4.39 -0.73 -2.26 -0.07 0 0 Z " fill="#BE8056" transform="translate(464.5,342.625)"/>
<path d="M0 0 C0.37 0.46 0.76 0.92 1.17 1.36 C12.17 13.59 2.9 33.3 -9.43 39.7 C-9.76 39.89 -10.09 40.07 -10.42 40.25 C-25.34 46.87 -35.88 29.14 -35.81 16.89 C-35.81 16.54 -35.81 16.18 -35.8 15.81 C-35.63 -2.98 -13.72 -17.15 0 0 Z " fill="#B9B8B8" transform="translate(314.4326171875,286.29638671875)"/>
<path d="M0 0 C1.03 1.12 2.19 2 3.4 2.91 C7.07 5.73 9.59 9.1 12.15 12.9 C12.33 13.16 12.5 13.41 12.68 13.68 C14.91 16.95 16.29 19.85 16.78 23.84 C16.9 24.51 17.03 25.19 17.16 25.86 C17.26 26.46 17.36 27.05 17.46 27.65 C17.52 27.96 17.58 28.27 17.64 28.6 C17.99 30.74 17.99 30.74 16.93 31.24 C15.1 30.6 14.55 29.23 13.65 27.59 C13.56 27.44 13.56 27.44 13.1 26.68 C11.91 24.58 11.6 23.04 11.84 20.63 C11.73 19.31 10.78 19.39 9.63 19.2 C8.35 18.66 7.94 17.69 7.21 16.53 C5.94 14.64 5.94 14.64 5.2 15.55 C5.03 15.94 4.86 16.33 4.69 16.73 C4.51 17.12 4.34 17.51 4.16 17.91 C4.03 18.21 3.91 18.52 3.78 18.84 C2.81 17.2 1.85 15.57 0.89 13.93 C0.57 13.38 0.24 12.82 -0.08 12.27 C-0.56 11.46 -1.03 10.66 -1.5 9.85 C-1.65 9.59 -1.8 9.33 -1.96 9.06 C-2.82 7.58 -3.61 6.09 -4.34 4.55 C-5.81 1.52 -8.33 0.08 -11.47 -0.91 C-13.66 -1.71 -14.95 -2.79 -16.56 -4.39 C-28.22 -15.79 -42.48 -18.39 -58.18 -18.17 C-59.65 -18.16 -61.11 -18.21 -62.58 -18.27 C-71.64 -18.58 -79.26 -16.9 -87.39 -12.9 C-89.86 -11.7 -91.74 -10.94 -94.47 -10.85 C-98.27 -10.48 -100.2 -7.05 -102.43 -4.29 C-105.54 -0.49 -109.36 2.94 -113.72 5.21 C-118.28 7.75 -122.32 12.9 -124.72 17.46 C-126.16 20.16 -128.42 21.86 -130.8 23.7 C-133.32 25.69 -133.32 25.69 -133.75 27.52 C-134.46 29.5 -135.3 28.86 -137.22 28.84 C-137.7 29.98 -137.7 29.98 -137.85 31.53 C-137.92 32.07 -137.98 32.61 -138.05 33.17 C-138.11 33.72 -138.17 34.27 -138.22 34.84 C-138.33 35.8 -138.46 36.76 -138.6 37.71 C-138.65 38.12 -138.7 38.53 -138.75 38.96 C-139.22 39.84 -139.22 39.84 -140.7 39.68 C-143.3 39.95 -142.97 42.17 -143.29 44.46 C-143.44 45.38 -143.6 46.3 -143.76 47.21 C-143.83 47.66 -143.91 48.11 -143.99 48.57 C-144.3 50.25 -144.74 51.85 -145.29 53.46 C-145.37 53.7 -145.37 53.7 -145.76 54.88 C-146.22 55.84 -146.22 55.84 -147.22 55.84 C-147.12 45.92 -144.18 36.22 -139.85 27.4 C-139.71 27.11 -139.57 26.82 -139.42 26.51 C-137.58 22.71 -135.49 19.86 -132.41 16.98 C-130.75 15.38 -129.39 13.63 -128.04 11.78 C-127.79 11.45 -127.54 11.13 -127.29 10.79 C-126.09 9.18 -125.09 7.63 -124.27 5.8 C-123.18 3.54 -121.63 2.16 -119.72 0.59 C-119.55 0.44 -119.55 0.44 -118.66 -0.31 C-117.9 -0.94 -117.14 -1.57 -116.38 -2.19 C-115.24 -3.14 -114.14 -4.12 -113.04 -5.11 C-83.09 -31.3 -26.65 -31.32 0 0 Z " fill="#9B5E32" transform="translate(313.224609375,258.16064453125)"/>
<path d="M0 0 C0.45 0.01 0.9 0.02 1.37 0.03 C14.79 0.64 23.19 12.25 17.5 25.5 C15.25 29.23 0.12 46.63 -4.98 39.72 C-6.1 37.71 -6.81 35.56 -7.5 33.38 C-7.67 32.92 -7.85 32.46 -8.03 31.99 C-8.56 30.17 -8.66 28.6 -8.67 26.71 C-8.67 26.37 -8.68 26.02 -8.68 25.66 C-8.69 24.55 -8.69 23.43 -8.69 22.31 C-8.69 22.12 -8.69 22.12 -8.69 21.16 C-8.68 16.48 -8.53 11.92 -7.62 7.31 C-7.59 7.11 -7.59 7.11 -7.39 6.07 C-6.76 3.36 -6.76 3.36 -4.5 3.38 C-4.55 2.89 -4.6 2.4 -4.66 1.9 C-4.39 -0.73 -2.26 -0.07 0 0 Z " fill="#B8B8B8" transform="translate(464.5,342.625)"/>
<path d="M0 0 C-0.7 2.21 -2.17 2.65 -4.21 3.37 C-4.53 3.49 -4.86 3.61 -5.19 3.73 C-5.89 3.98 -6.59 4.24 -7.28 4.49 C-8.38 4.88 -9.48 5.28 -10.58 5.69 C-13.74 6.85 -16.91 7.99 -20.12 9 C-25.84 10.83 -30.29 13.37 -35.01 17 C-38.14 19.41 -41.32 21.46 -44.83 23.28 C-50.35 26.15 -55.04 29.71 -59.56 33.95 C-60.08 34.43 -60.59 34.91 -61.11 35.39 C-66.64 40.54 -72.06 45.8 -77.42 51.13 C-78.53 52.22 -79.64 53.31 -80.75 54.4 C-82.14 55.74 -83.51 57.1 -84.88 58.46 C-85.39 58.97 -85.9 59.47 -86.42 59.97 C-89.72 63.16 -91.78 66.1 -93.37 70.43 C-94.33 72.82 -95.77 74.76 -97.31 76.81 C-100.38 81.03 -103.11 85.37 -105.74 89.87 C-106.77 91.63 -107.85 93.32 -109 95 C-109.04 94.69 -109.07 94.38 -109.11 94.05 C-109.72 90.48 -109.72 90.48 -111.56 91.75 C-112.04 92.16 -112.52 92.58 -113 93 C-111.65 89.22 -109.87 85.93 -107.73 82.54 C-107.42 82.03 -107.1 81.52 -106.78 81.01 C-106.11 79.94 -105.44 78.87 -104.77 77.81 C-103.93 76.47 -103.09 75.13 -102.26 73.79 C-101.6 72.73 -100.94 71.67 -100.27 70.62 C-99.82 69.89 -99.37 69.16 -98.92 68.44 C-94.4 61.3 -89.25 54.93 -83.31 48.94 C-82.68 48.3 -82.04 47.65 -81.41 47.01 C-80.09 45.68 -78.77 44.35 -77.44 43.02 C-76.11 41.68 -74.79 40.34 -73.47 38.98 C-65.71 31.02 -58.23 24.17 -48.46 18.82 C-46.17 17.53 -43.96 16.12 -41.75 14.7 C-40.95 14.19 -40.15 13.68 -39.35 13.18 C-38.57 12.68 -37.78 12.18 -37 11.69 C-34.65 10.2 -32.3 8.71 -29.95 7.23 C-28.84 6.53 -27.74 5.82 -26.64 5.09 C-23.1 2.78 -19.2 1.52 -15.21 0.21 C-14 -0.19 -12.8 -0.6 -11.59 -1.01 C1.23 -5.33 1.23 -5.33 0 0 Z " fill="#A0A9B2" transform="translate(178,40)"/>
<path d="M0 0 C0.12 0.85 0.12 0.85 0.11 2.06 C0.11 2.52 0.11 2.98 0.11 3.45 C0.1 3.96 0.1 4.48 0.09 5 C0.09 5.54 0.09 6.08 0.09 6.64 C0.08 7.82 0.08 9.01 0.07 10.2 C0.05 12.13 0.04 14.07 0.03 16 C0.02 18.8 0 21.61 -0.02 24.42 C-0.04 28.85 -0.06 33.28 -0.08 37.71 C-0.08 39.23 -0.09 40.74 -0.09 42.25 C-0.09 42.63 -0.09 43.01 -0.1 43.4 C-0.11 47.72 -0.13 52.03 -0.14 56.34 C-0.15 56.74 -0.15 57.13 -0.15 57.54 C-0.18 63.93 -0.21 70.33 -0.25 76.72 C-0.3 83.28 -0.32 89.84 -0.34 96.39 C-0.34 100.44 -0.37 104.49 -0.4 108.54 C-0.43 111.31 -0.44 114.09 -0.43 116.86 C-0.43 118.46 -0.44 120.06 -0.46 121.67 C-0.49 123.4 -0.48 125.13 -0.47 126.87 C-0.49 127.38 -0.5 127.89 -0.51 128.42 C-0.46 131.95 0.45 132.84 4 133 C-2.59 134.41 -2.73 131.52 -1.98 125.73 C-2 125 -2 125 -3 125 C-3.17 123.93 -3.26 122.93 -3.31 121.86 C-3.33 121.5 -3.35 121.15 -3.37 120.79 C-3.44 119.55 -3.5 118.32 -3.55 117.08 C-3.57 116.63 -3.59 116.19 -3.61 115.73 C-4.35 99.48 -4.19 83.19 -4.19 66.92 C-4.19 63.19 -4.2 59.46 -4.21 55.73 C-4.22 52.08 -4.23 48.43 -4.23 44.78 C-4.23 42.63 -4.23 40.47 -4.24 38.31 C-4.32 21.25 -4.32 21.25 -2 14 C-2.66 14.99 -3.32 15.98 -4 17 C-4 12.05 -4 7.1 -4 2 C-3.34 3.32 -2.68 4.64 -2 6 C-1.94 5.57 -1.88 5.13 -1.82 4.69 C-1.73 4.12 -1.65 3.56 -1.56 3 C-1.52 2.71 -1.48 2.43 -1.44 2.13 C-1.11 0 -1.11 0 0 0 Z " fill="#87919C" transform="translate(463,210)"/>
<path d="M0 0 C1.33 0.67 2.67 1.33 4 2 C4.37 2.15 4.75 2.29 5.13 2.44 C6.34 3.22 6 3.65 6 5 C6.81 5.39 6.81 5.39 8 5.69 C13.8 7.78 18.8 13.23 22.37 18.13 C23.35 19.45 24.07 20.12 25.64 20.54 C27.36 21.12 27.3 21.3 27 23 C26.83 24.94 26.83 24.94 28.5 25.5 C30.4 26.13 30.16 26.18 30 28 C29.85 30.06 30.11 30.19 32.15 30.61 C35.39 32.1 37 38.15 38.06 41.31 C38.23 41.82 38.4 42.32 38.58 42.84 C40.48 48.91 41.07 55.17 41.7 61.49 C41.86 63.03 42.08 64.47 42.54 65.96 C43.45 69.24 43.2 72.81 43.19 76.19 C43.19 76.38 43.19 76.38 43.19 77.37 C43.17 83.43 42.81 89.41 42.12 95.44 C42.09 95.8 42.05 96.16 42.01 96.54 C41.89 97.57 41.76 98.59 41.63 99.62 C41.6 99.92 41.57 100.22 41.53 100.53 C41.21 102.82 40.35 104.18 39 106 C39.01 105.62 39.01 105.24 39.02 104.84 C39.08 101.17 39.13 97.49 39.16 93.82 C39.17 91.93 39.19 90.04 39.23 88.16 C39.41 78.01 38.64 68.81 36 59 C35.89 58.59 35.79 58.19 35.68 57.77 C35.12 55.62 34.52 53.5 33.88 51.38 C33.62 50.51 33.37 49.65 33.11 48.79 C32.88 48 32.64 47.21 32.4 46.42 C32.04 45.15 31.77 43.89 31.51 42.6 C31 41 31 41 30.03 41.05 C28.39 40.97 28.45 40.02 27.99 38.54 C27.81 38.01 27.64 37.48 27.45 36.94 C27.36 36.65 27.27 36.37 27.17 36.07 C24.86 29.15 21.47 23.78 16.91 18.12 C16.14 17.17 15.39 16.21 14.66 15.23 C12.09 11.9 9.09 9.2 5.85 6.53 C3.52 4.59 1.72 2.51 0 0 Z " fill="#444A52" transform="translate(305,250)"/>
<path d="M0 0 C0.16 -0 0.16 -0 0.95 -0.01 C6.44 -0.01 10.29 1.18 14.54 4.81 C15.32 5.45 16.13 5.92 17 6.42 C18.66 7.7 18.72 8.25 18.69 10.31 C18.7 10.8 18.7 11.3 18.71 11.8 C17.39 17.21 14.3 18.13 9.12 17.94 C8.84 17.93 8.55 17.93 8.25 17.92 C2.89 17.82 -1.32 16.59 -5.69 13.44 C-6.14 13.14 -6.59 12.84 -7.06 12.53 C-9.47 10.6 -10.04 8.79 -10.12 5.81 C-10.14 5.51 -10.15 5.21 -10.16 4.9 C-9.94 -0.51 -4.03 0 0 0 Z " fill="#515151" transform="translate(241.6875,377.5625)"/>
<path d="M0 0 C0.27 0.91 0.27 0.91 0.46 2.2 C0.54 2.66 0.62 3.13 0.7 3.61 C0.78 4.11 0.86 4.61 0.94 5.12 C1.12 6.13 1.3 7.14 1.48 8.15 C1.73 9.47 1.97 10.8 2.17 12.13 C3.21 18.7 8.21 18.11 12.84 14.76 C13.74 14.08 14.62 13.38 15.5 12.68 C17.93 10.82 20.26 10.1 23 12 C23.19 13.56 23.19 13.56 23 15 C23.31 14.99 23.62 14.99 23.94 14.98 C27.07 15.03 25.96 19.82 25.19 21.69 C23.14 24.85 20.12 24.47 16.7 24.62 C13.46 24.81 11.9 25.28 9.87 27.95 C8.32 29.83 6.12 30.85 4 32 C4.03 31.74 4.06 31.48 4.1 31.22 C4.89 23.86 4.89 23.86 2.7 24.21 C1.82 24.65 1.03 25.15 0.22 25.7 C-2.2 27.36 -2.2 27.36 -3 25 C-3.23 22.68 -3.19 20.33 -3.19 18 C-3.19 17.67 -3.19 17.33 -3.19 16.99 C-3.16 0 -3.16 0 0 0 Z " fill="#784F32" transform="translate(456,365)"/>
</svg>
