<?xml version="1.0" encoding="UTF-8"?>
<!-- Generator: visioncortex VTracer 0.6.5 -->
<svg version="1.1" xmlns="http://www.w3.org/2000/svg" width="579" height="603">
<rect width="579" height="603" fill="#63707C"/>
<path d="M213,8 C219.6,8 226.2,8 233,8 C233.32999999999998,13.61 233.66,19.22 234,25 C264.2208047757598,24.24317500993348 282.13256103707874,21.57645174301627 380.695,59.079 C388.60642641331566,64.68366449862032 390.6974444747697,65.453018976819 400,74 C400.33000000000004,72.68 400.65999999999997,71.36 401,70 C407.6,70 414.2,70 421,70 C421,76.6 421,83.2 421,90 C419.68,90.33 418.36,90.66 417,91 C418.32,91 419.64,91 421,91 C420.0019261203797,97.57426925054327 419.79727144781197,90.98485698063985 442,128 C442.33000000000004,122.72 442.65999999999997,117.44 443,112 C449.27,112 455.53999999999996,112 462,112 C462,118.6 462,125.2 462,132 C459.195,132.16500000000002 459.195,132.16500000000002 445,133 C465.73775137839147,191.12213311494804 464.24556470687816,172.87814187472858 464,342 C494.64730430100343,344.850912028 480,372 480,372 C497.4159872435069,381.3000432651431 503.63539966944495,384.40206676143583 547,406 C547,405.34 547,404.68 547,404 C553.6,404 560.2,404 567,404 C567,408.29 567,412.58 567,417 C567.6600000000001,417 568.3199999999999,417 569,417 C566.7054614680185,424.15131175801605 566.6844187703979,428.5604196672435 567,445 C511.2652217746977,444.7307498636523 524.1642376379517,441.5803627282805 480.74,463.314 C459.4093845648683,473.989877893698 462.49274499826606,449.80318954865584 462.829,537.902 C462.93715833856595,566.239484703331 463.63786951194095,561.8132899113286 462,570 C455.73,570 449.46000000000004,570 443,570 C443,568.35 443,566.7 443,565 C435.74,565 428.48,565 421,565 C421,566.65 421,568.3 421,570 C400.53999999999996,570 380.08000000000004,570 359,570 C358.66999999999996,568.68 358.34000000000003,567.36 358,566 C308.2927075751236,566.2000293457694 318.2946915302952,566.1473457651476 316,565 C316,566.65 316,568.3 316,570 C309.73,570 303.46,570 297,570 C297,568.68 297,567.36 297,566 C283.14,566 269.28,566 255,566 C254.67000000000002,567.32 254.34,568.64 254,570 C233.54,570 213.08,570 192,570 C191.67000000000002,568.68 191.34,567.36 191,566 C141.29270757582282,566.2000293457666 151.29469153035208,566.147345765176 149,565 C149,566.65 149,568.3 149,570 C142.73000000000002,570 136.45999999999998,570 130,570 C130,568.68 130,567.36 130,566 C116.14,566 102.28,566 88,566 C87.67,567.32 87.34,568.64 87,570 C73.47,570 59.94,570 46,570 C44.9546505907856,564.7732529539281 44.777585142011425,589.6727708079692 45,466 C38.400000000000006,466 31.80000000000001,466 25,466 C25,445.54 25,425.08 25,404 C31.599999999999994,404 38.19999999999999,404 45,404 C45,369.35 45,334.7 45,299 C38.400000000000006,299 31.80000000000001,299 25,299 C25,278.54 25,258.08000000000004 25,237 C31.599999999999994,237 38.19999999999999,237 45,237 C45,229.74 45,222.48 45,215 C38.400000000000006,215 31.80000000000001,215 25,215 C25,208.73 25,202.46 25,196 C31.930000000000007,196 38.860000000000014,196 46,196 C46,168.28 46,140.56 46,112 C52.93000000000001,112 59.860000000000014,112 67,112 C67,105.07 67,98.14 67,91 C90.25859131634553,91.28714310267094 91.32188857057004,92.09892481850409 101.557375,81.95387500000001 C106.27560802283455,77.27733037244454 108.08750581221274,75.91033427107918 108.58218749999999,73.44701562500002 C109.03689826887614,71.18273630518955 108.52297504165868,70.47806649755167 109.458,69.541 C126.7920035340879,63.166932144703004 160.02617055901385,31.44775291979274 213,27 C213,20.73 213,14.46 213,8 Z" fill="#63707c" stroke="#63707c" stroke-width="0.8" stroke-linejoin="round" stroke-linecap="round"/>
<path d="M275.0167694091797,237.45150756835938 C275.0167694091797,237.45150756835938 322.50059771505676,252.3465024908667 320.9997694091797,267.9995075683594 C325.10626703923083,267.4501433369141 347.2737067734501,301.1323078614902 344.9997694091797,342.9995075683594 C341.64133979396667,404.8341234249416 297.2350034915602,447.529488382797 245.9997694091797,440.9995075683594 C164.4167867749653,430.60167644828596 159.66368385129624,345.2131857344472 164.9997694091797,313.9995075683594 C165.6597694091797,313.9995075683594 166.31976940917968,313.9995075683594 166.9997694091797,313.9995075683594 C177.3061059402116,249.15547356061478 236.02794479868584,224.58150206783446 275.0167694091797,237.45150756835938 Z" fill="#bf7d50" stroke="#bf7d50" stroke-width="0.8" stroke-linejoin="round" stroke-linecap="round"/>
<path d="M249.328125,274.83203125 C264.1820184484838,274.6892053514576 263.5046418198325,275.25727318286135 276.252125,280.24503125 C295.46424207662676,287.7622321422391 265.95207440817524,303.0418240906025 286.580875,321.92253125 C287.5856567448794,322.84216735776744 291.99060482275786,328.7314462137366 308.000125,325.00003125 C308.0767507251709,329.1210532921207 315.25854430693823,378.9937170023232 270.34073828124997,398.1196171875 C262.4677111983475,401.47193430772336 250.8311518937259,400.4037206727345 250.2585,400.36271875 C222.805978453113,398.39711594720774 203.82367473910398,372.63631349916784 201.01887499999998,350.28590625000004 C194.11579287049346,295.27780898092044 234.47434553703874,274.89156543622414 249.328125,274.83203125 Z" fill="#121111" stroke="#121111" stroke-width="0.8" stroke-linejoin="round" stroke-linecap="round"/>
<path d="M479.7152404785156,373.20384216308594 C483.60155413568526,373.9455050747597 547.0002404785156,405.99984216308593 547.0002404785156,405.99984216308593 C547.0002404785156,405.33984216308596 547.0002404785156,404.67984216308594 547.0002404785156,403.99984216308593 C553.6002404785156,403.99984216308593 560.2002404785156,403.99984216308593 567.0002404785156,403.99984216308593 C567.0002404785156,408.28984216308595 567.0002404785156,412.5798421630859 567.0002404785156,416.99984216308593 C567.6602404785156,416.99984216308593 568.3202404785156,416.99984216308593 569.0002404785156,416.99984216308593 C566.7136629773246,424.1644516668237 566.6815751592223,428.4070130957004 567.0002404785156,444.99984216308593 C513.9584983618395,444.74360186301146 516.0771972639875,444.67395948229785 508.1772404785156,449.2388421630859 C478.57119199277616,466.34629498202554 465.26973296149515,474.8621087006219 461.00024047851565,439.99984216308593 C460.3402404785156,439.99984216308593 459.6802404785156,439.99984216308593 459.00024047851565,439.99984216308593 C459.13176074878794,423.1652475678387 459.2251154785156,397.3993421630859 459.2251154785156,397.3993421630859 C459.2556448603114,388.9732327874708 459.5246871797922,389.9583630425555 457.00024047851565,388.99984216308593 C457.9902404785156,388.99984216308593 458.9802404785156,388.99984216308593 460.00024047851565,388.99984216308593 C460.0291191033699,383.07972406782693 460.649746189274,383.2697908483821 461.53924047851564,382.58384216308593 C464.47844232382516,381.2887563499964 465.611161498936,382.1563461114162 470.3152404785156,378.9977171630859 C476.1464196678515,375.0822787807176 475.1095300659701,372.255187303093 479.7152404785156,373.20384216308594 Z" fill="#ab744f" stroke="#ab744f" stroke-width="0.8" stroke-linejoin="round" stroke-linecap="round"/>
<path d="M314,286 C328.4580435462403,299.8505627249634 317.1014322917347,326.03570644481573 299.728875,327.438125 C287.31766216082326,328.4400336358854 279.62468206216863,316.57515615371517 278.7937187499999,307.77356249999997 C276.28749979715997,281.2276001126035 297.96657250064817,270.3178064475404 314,286 Z" fill="#b9b9b8" stroke="#b9b9b8" stroke-width="0.8" stroke-linejoin="round" stroke-linecap="round"/>
<path d="M46,112 C52.6,112 59.2,112 66,112 C67.15356292357556,153.48606172712903 51.004691372660865,147.89999631550623 47.99999999999999,194 C47.34,194 46.68,194 46,194 C46,166.94 46,139.88 46,112 Z M547,571 C553.6,571 560.2,571 567,571 C567,577.6 567,584.2 567,591 C560.4,591 553.8,591 547,591 C547,584.4 547,577.8 547,571 Z M526,571 C532.6,571 539.2,571 546,571 C546,577.6 546,584.2 546,591 C539.4,591 532.8,591 526,591 C526,584.4 526,577.8 526,571 Z M401,571 C407.6,571 414.2,571 421,571 C421,577.6 421,584.2 421,591 C414.4,591 407.8,591 401,591 C401,584.4 401,577.8 401,571 Z M380,571 C386.6,571 393.2,571 400,571 C400,577.6 400,584.2 400,591 C393.4,591 386.8,591 380,591 C380,584.4 380,577.8 380,571 Z M359,571 C365.6,571 372.2,571 379,571 C379,577.6 379,584.2 379,591 C372.4,591 365.8,591 359,591 C359,584.4 359,577.8 359,571 Z M213,571 C219.6,571 226.2,571 233,571 C233,577.6 233,584.2 233,591 C226.4,591 219.8,591 213,591 C213,584.4 213,577.8 213,571 Z M192,571 C198.6,571 205.2,571 212,571 C212,577.6 212,584.2 212,591 C205.4,591 198.8,591 192,591 C192,584.4 192,577.8 192,571 Z M67,571 C73.6,571 80.2,571 87,571 C87,577.6 87,584.2 87,591 C80.4,591 73.8,591 67,591 C67,584.4 67,577.8 67,571 Z M46,571 C52.6,571 59.2,571 66,571 C66,577.6 66,584.2 66,591 C59.4,591 52.8,591 46,591 C46,584.4 46,577.8 46,571 Z M25,571 C31.6,571 38.2,571 45,571 C45,577.6 45,584.2 45,591 C38.4,591 31.8,591 25,591 C25,584.4 25,577.8 25,571 Z M547,446 C553.6,446 560.2,446 567,446 C567,452.6 567,459.2 567,466 C560.4,466 553.8,466 547,466 C547,459.4 547,452.8 547,446 Z M526,446 C532.6,446 539.2,446 546,446 C546,452.6 546,459.2 546,466 C539.4,466 532.8,466 526,466 C526,459.4 526,452.8 526,446 Z M25,446 C31.6,446 38.2,446 45,446 C45,452.6 45,459.2 45,466 C38.4,466 31.8,466 25,466 C25,459.4 25,452.8 25,446 Z M25,425 C31.6,425 38.2,425 45,425 C45,431.6 45,438.2 45,445 C38.4,445 31.8,445 25,445 C25,438.4 25,431.8 25,425 Z M25,404 C31.6,404 38.2,404 45,404 C45,410.6 45,417.2 45,424 C38.4,424 31.8,424 25,424 C25,417.4 25,410.8 25,404 Z M547,279 C553.6,279 560.2,279 567,279 C567,285.6 567,292.2 567,299 C560.4,299 553.8,299 547,299 C547,292.4 547,285.8 547,279 Z M526,279 C532.6,279 539.2,279 546,279 C546,285.6 546,292.2 546,299 C539.4,299 532.8,299 526,299 C526,292.4 526,285.8 526,279 Z M25,279 C31.6,279 38.2,279 45,279 C45,285.6 45,292.2 45,299 C38.4,299 31.8,299 25,299 C25,292.4 25,285.8 25,279 Z M547,258 C553.6,258 560.2,258 567,258 C567,264.6 567,271.2 567,278 C560.4,278 553.8,278 547,278 C547,271.4 547,264.8 547,258 Z M526,258 C532.6,258 539.2,258 546,258 C546,264.6 546,271.2 546,278 C539.4,278 532.8,278 526,278 C526,271.4 526,264.8 526,258 Z M25,258 C31.6,258 38.2,258 45,258 C45,264.6 45,271.2 45,278 C38.4,278 31.8,278 25,278 C25,271.4 25,264.8 25,258 Z M547,237 C553.6,237 560.2,237 567,237 C567,243.6 567,250.2 567,257 C560.4,257 553.8,257 547,257 C547,250.4 547,243.8 547,237 Z M526,237 C532.6,237 539.2,237 546,237 C546,243.6 546,250.2 546,257 C539.4,257 532.8,257 526,257 C526,250.4 526,243.8 526,237 Z M25,237 C31.6,237 38.2,237 45,237 C45,243.6 45,250.2 45,257 C38.4,257 31.8,257 25,257 C25,250.4 25,243.8 25,237 Z M547,112 C553.6,112 560.2,112 567,112 C567,118.6 567,125.2 567,132 C560.4,132 553.8,132 547,132 C547,125.4 547,118.8 547,112 Z M526,112 C532.6,112 539.2,112 546,112 C546,118.6 546,125.2 546,132 C539.4,132 532.8,132 526,132 C526,125.4 526,118.8 526,112 Z M25,112 C31.6,112 38.2,112 45,112 C45,118.6 45,125.2 45,132 C38.4,132 31.8,132 25,132 C25,125.4 25,118.8 25,112 Z M547,91 C553.6,91 560.2,91 567,91 C567,97.6 567,104.2 567,111 C560.4,111 553.8,111 547,111 C547,104.4 547,97.8 547,91 Z M526,91 C532.6,91 539.2,91 546,91 C546,97.6 546,104.2 546,111 C539.4,111 532.8,111 526,111 C526,104.4 526,97.8 526,91 Z M46,91 C52.6,91 59.2,91 66,91 C66,97.6 66,104.2 66,111 C59.4,111 52.8,111 46,111 C46,104.4 46,97.8 46,91 Z M25,91 C31.6,91 38.2,91 45,91 C45,97.6 45,104.2 45,111 C38.4,111 31.8,111 25,111 C25,104.4 25,97.8 25,91 Z M547,70 C553.6,70 560.2,70 567,70 C567,76.6 567,83.2 567,90 C560.4,90 553.8,90 547,90 C547,83.4 547,76.8 547,70 Z M526,70 C532.6,70 539.2,70 546,70 C546,76.6 546,83.2 546,90 C539.4,90 532.8,90 526,90 C526,83.4 526,76.8 526,70 Z M67,70 C73.6,70 80.2,70 87,70 C87,76.6 87,83.2 87,90 C80.4,90 73.8,90 67,90 C67,83.4 67,76.8 67,70 Z M46,70 C52.6,70 59.2,70 66,70 C66,76.6 66,83.2 66,90 C59.4,90 52.8,90 46,90 C46,83.4 46,76.8 46,70 Z M25,70 C31.6,70 38.2,70 45,70 C45,76.6 45,83.2 45,90 C38.4,90 31.8,90 25,90 C25,83.4 25,76.8 25,70 Z M443,571 C449.27,571 455.54,571 462,571 C462,577.6 462,584.2 462,591 C455.73,591 449.46,591 443,591 C443,584.4 443,577.8 443,571 Z M547,196 C553.6,196 560.2,196 567,196 C567,202.27 567,208.54 567,215 C560.4,215 553.8,215 547,215 C547,208.73 547,202.46 547,196 Z M25,196 C31.6,196 38.2,196 45,196 C45,202.27 45,208.54 45,215 C38.4,215 31.8,215 25,215 C25,208.73 25,202.46 25,196 Z M547,175 C553.6,175 560.2,175 567,175 C567,181.27 567,187.54 567,194 C560.4,194 553.8,194 547,194 C547,187.73 547,181.46 547,175 Z M443,112 C449.27,112 455.54,112 462,112 C462,118.6 462,125.2 462,132 C455.73,132 449.46,132 443,132 C443,125.4 443,118.8 443,112 Z M443,91 C449.27,91 455.54,91 462,91 C462,97.6 462,104.2 462,111 C455.73,111 449.46,111 443,111 C443,104.4 443,97.8 443,91 Z M213,8 C219.6,8 226.2,8 233,8 C233,13.940000000000001 233,19.880000000000003 233,26 C227.75170557748064,27.312640866159725 231.14488582380523,27.14460819821627 213,26.999999999999996 C213,20.73 213,14.46 213,8 Z M464,196 C470.27,196 476.54,196 483,196 C483,202.27 483,208.54 483,215 C476.73,215 470.46,215 464,215 C464,208.73 464,202.46 464,196 Z M67,91 C73.6,91 80.2,91 87,91 C88.33557503457828,99.01460455062838 88.27548957282303,97.565906835297 83.812,103.363 C76.30599481945949,113.11165306984819 79.82014237106162,113.19162367077914 67,111 C67,104.4 67,97.8 67,91 Z M401,70 C407.6,70 414.2,70 421,70 C421,76.6 421,83.2 421,90 C416.58259712659594,90 401,88.68502554863326 401,70 Z M548.949462890625,403.77294921875 C549.1244870058125,403.77294921875 560.8805913576232,403.8999979804603 567.000462890625,403.99994921875 C567.000462890625,408.28994921875 567.000462890625,412.57994921875 567.000462890625,416.99994921875 C543.673119384536,406.16189129635865 547.5286940179528,407.9417017099429 546.000462890625,405.99994921875 C546.585462890625,404.32494921875 547.098462890625,403.69994921875 548.949462890625,403.77294921875 Z M401,565 C407.6,565 414.2,565 421,565 C421,566.65 421,568.3 421,570 C414.4,570 407.8,570 401,570 C401,568.35 401,566.7 401,565 Z M380,565 C386.6,565 393.2,565 400,565 C400,566.65 400,568.3 400,570 C393.4,570 386.8,570 380,570 C380,568.35 380,566.7 380,565 Z M359,565 C365.6,565 372.2,565 379,565 C379,566.65 379,568.3 379,570 C372.4,570 365.8,570 359,570 C359,568.35 359,566.7 359,565 Z M234,565 C240.6,565 247.2,565 254,565 C254,566.65 254,568.3 254,570 C247.4,570 240.8,570 234,570 C234,568.35 234,566.7 234,565 Z M213,565 C219.6,565 226.2,565 233,565 C233,566.65 233,568.3 233,570 C226.4,570 219.8,570 213,570 C213,568.35 213,566.7 213,565 Z M192,565 C198.6,565 205.2,565 212,565 C212,566.65 212,568.3 212,570 C205.4,570 198.8,570 192,570 C192,568.35 192,566.7 192,565 Z M67,565 C73.6,565 80.2,565 87,565 C87,566.65 87,568.3 87,570 C80.4,570 73.8,570 67,570 C67,568.35 67,566.7 67,565 Z M46,565 C52.6,565 59.2,565 66,565 C66,566.65 66,568.3 66,570 C59.4,570 52.8,570 46,570 C46,568.35 46,566.7 46,565 Z M443,565 C449.27,565 455.54,565 462,565 C462,566.65 462,568.3 462,570 C455.73,570 449.46,570 443,570 C443,568.35 443,566.7 443,565 Z M131,565 C136.94,565 142.88,565 149,565 C149,566.65 149,568.3 149,570 C142.73,570 136.46,570 130,570 C130.33,568.35 130.66,566.7 131,565 Z M67,112 C70.3,112 73.6,112 77,112 C73.99430500289142,118.00886632083586 68.86676569875772,128 67,128 C67,122.72 67,117.44 67,112 Z M417,91 C418.32,91 419.64,91 421,91 C421,92.32 421,93.64 421,95 C420.01017957693193,94.58462892960539 417.4162257694613,93.43234065150055 417.367,93.411 C417,93 417,93 417,91 Z" fill="#3b3b3b" stroke="#3b3b3b" stroke-width="0.8" stroke-linejoin="round" stroke-linecap="round"/>
<path d="M316,570 L315.059405,569.1808127572017 L314.11824,568.3721193415639 L313.175935,567.5688271604938 L311.340714229428,567.5 C310.80086486048583,567.5 310.2610154915436,567.5 309.72116612260146,567.5 C309.30108982485274,567.5 308.881013527104,567.5 308.4609372293553,567.5 C307.50002897206093,567.5 306.53912071476657,567.5 305.5782124574722,567.5 C305.0368552732083,567.5 304.49549808894443,567.5 303.9541409046805,567.5 C303.53257870720535,567.5 303.1110165097302,567.5 302.689454312255,567.5 C301.72429972200774,567.5 300.75914513176053,567.5 299.79399054151327,567.5 L298.8301120957485,566.5074999999999 L297.8675850648406,565.5 C283.88503305124465,565.5 269.9024810376487,565.5 255.91992902405275,565.5 L255,565.2518749999999 L255,565" stroke="#3d3e40" stroke-width="3.16" fill="none" stroke-linecap="round" stroke-linejoin="round"/>
<path d="M456,365 C459.60386231275004,392.4293964915286 466.7308317191786,386.5725495675033 454,392 C452.1558718252661,389.04599734548754 451.97515832109,364.60626548793266 456,365 Z" fill="#31353a" stroke="#31353a" stroke-width="0.8" stroke-linejoin="round" stroke-linecap="round"/>
<path d="M187.03076171875,265.9541015625 C187.35376171875,265.96943489583333 187.67676171875,265.98476822916666 187.99976171875,266.0001015625 C185.56411467748654,273.1691358416196 175.1604671637727,282.85103083709333 167.99976171875,310.0001015625 C167.66976171875,310.0001015625 167.33976171875,310.0001015625 166.99976171875,310.0001015625 C166.87874444647733,289.6124729743119 185.56984059647533,265.88479274646653 187.03076171875,265.9541015625 Z" fill="#5d4840" stroke="#5d4840" stroke-width="0.8" stroke-linejoin="round" stroke-linecap="round"/>
<path d="M238.3046875,413.05078125 C246.40107581418815,414.2668395738706 245.599694002254,415.1722916859055 245.9996875,415.99978125 C246.0526875,418.03678125 245.5246875,420.04578125 244.9996875,421.99978125 C237.2986875,421.08078125 237.2986875,421.08078125 235.9996875,418.99978125 C235.6086875,417.32378125 235.3536875,414.85978125 236.4306875,413.42678125 C237.1486875,412.88778125 237.4296875,412.91778125 238.3046875,413.05078125 Z" fill="#e1d5d0" stroke="#e1d5d0" stroke-width="0.8" stroke-linejoin="round" stroke-linecap="round"/>
<path d="M527,440 C526.34,440 525.68,440 525,440 C525,441.65 525,443.3 525,445 C521.7,445 518.4,445 515,445 C520.02091180224,439.9790881977599 522.9098385237892,438.0488989961132 527,440 Z" fill="#4a3c34" stroke="#4a3c34" stroke-width="0.8" stroke-linejoin="round" stroke-linecap="round"/>
<path d="M569,417 C568.34,419.31 567.68,421.62 567,424 C564.03,424 561.06,424 558,424 C567.1050628050834,414.89493719491657 565.1817219346634,422.8811702824117 566.669,417.405 C567,417 567,417 569,417 Z" fill="#473f3b" stroke="#473f3b" stroke-width="0.8" stroke-linejoin="round" stroke-linecap="round"/>
<path d="M329,282 C330.69968219559223,281.63588518587227 334.4586945456564,282.45875260627656 332,289 C328.418,284.844 328.418,284.844 329,282 Z" fill="#d4cecc" stroke="#d4cecc" stroke-width="0.8" stroke-linejoin="round" stroke-linecap="round"/>
<path d="M88,91 C89.65,91 91.3,91 93,91 C91.35,92.65 89.7,94.3 88,96 C88,94.35 88,92.7 88,91 Z M109,70 C110.65,70 112.3,70 114,70 C112.35,71.65 110.7,73.3 109,75 C109,73.35 109,71.7 109,70 Z" fill="#474a4c" stroke="#474a4c" stroke-width="0.8" stroke-linejoin="round" stroke-linecap="round"/>
<path d="M186,266 C186.66,266 187.32,266 188,266 C187.67,266.99 187.34,267.98 187,269 C186.34,269 185.68,269 185,269 C185.33,268.01 185.66,267.02 186,266 Z" fill="#5b4b47" stroke="#5b4b47" stroke-width="0.8" stroke-linejoin="round" stroke-linecap="round"/>
</svg>