<?xml version="1.0" encoding="UTF-8"?>
<!-- Generator: visioncortex VTracer 0.6.5 -->
<svg version="1.1" xmlns="http://www.w3.org/2000/svg" width="579" height="603">
<rect width="579" height="603" fill="#6B6D72"/>
<path d="M0 0 C0.426 0.022 0.853 0.045 1.292 0.068 C26.576 1.418 50.336 5.58 73.918 15.023 C86.003 19.995 97.045 26.543 107.693 34.077 C109.042 35.03 110.4 35.97 111.76 36.907 C112.651 37.524 113.543 38.141 114.434 38.758 C114.833 39.034 115.232 39.31 115.643 39.594 C121.53 43.71 126.643 48.383 131.271 53.861 C134.92 58.158 138.976 62.058 143 66 C144.65 66 146.3 66 148 66 C148 67.65 148 69.3 148 71 C148.519 71.607 149.039 72.214 149.574 72.84 C152.67 76.714 155.253 80.931 157.899 85.117 C158.796 86.537 159.7 87.953 160.604 89.369 C162.121 91.753 163.617 94.15 165.102 96.554 C165.693 97.505 166.289 98.454 166.89 99.398 C172.446 108.144 176.229 117.314 179.688 127.062 C179.829 127.457 179.97 127.851 180.116 128.257 C186.01 144.705 188.568 160.892 189.726 178.353 C189.896 180.9 190.18 183.41 190.51 185.941 C191.168 191.823 191.133 197.676 191.114 203.588 C191.113 204.831 191.113 206.074 191.114 207.316 C191.114 210.663 191.108 214.009 191.101 217.356 C191.095 220.863 191.095 224.37 191.093 227.878 C191.09 234.507 191.082 241.137 191.072 247.766 C191.061 255.319 191.055 262.872 191.05 270.424 C191.04 285.95 191.022 301.475 191 317 C192.32 317.33 193.64 317.66 195 318 C192.36 318.33 189.72 318.66 187 319 C186.884 319.717 186.768 320.433 186.649 321.171 C186.218 323.829 185.782 326.487 185.346 329.144 C185.158 330.294 184.97 331.445 184.784 332.595 C184.517 334.249 184.245 335.902 183.973 337.555 C183.89 338.069 183.808 338.584 183.723 339.114 C183.362 341.285 182.991 343.018 182 345 C181.857 347.527 181.714 350.054 181.573 352.581 C181.524 353.44 181.476 354.299 181.427 355.159 C181.357 356.395 181.288 357.631 181.219 358.867 C181.177 359.611 181.135 360.354 181.092 361.121 C181.029 362.413 181 363.707 181 365 C182.65 364.34 184.3 363.68 186 363 C186.33 361.68 186.66 360.36 187 359 C186.34 358.01 185.68 357.02 185 356 C185 355.01 185 354.02 185 353 C185.66 353 186.32 353 187 353 C187.33 354.32 187.66 355.64 188 357 C189.65 356.67 191.3 356.34 193 356 C193.519 355.518 194.039 355.036 194.574 354.539 C195.278 353.901 195.983 353.263 196.688 352.625 C197.027 352.308 197.367 351.991 197.717 351.664 C198.062 351.355 198.406 351.045 198.762 350.727 C199.071 350.444 199.38 350.161 199.698 349.87 C200.978 349.015 202.152 348.505 203.581 347.946 C203.808 347.857 203.808 347.857 204.952 347.407 C205.298 347.273 205.644 347.138 206 347 C214.296 351.113 222.589 355.233 230.878 359.361 C234.727 361.278 238.577 363.193 242.43 365.102 C246.148 366.944 249.863 368.793 253.576 370.646 C254.993 371.351 256.411 372.055 257.83 372.757 C259.818 373.739 261.801 374.73 263.784 375.722 C264.372 376.01 264.96 376.299 265.565 376.596 C267.933 377.789 269.823 378.836 271.782 380.646 C272.184 381.093 272.586 381.54 273 382 C274.698 382.936 274.698 382.936 276.547 383.719 C276.887 383.865 276.887 383.865 278.609 384.605 C279.316 384.901 280.022 385.196 280.75 385.5 C281.441 385.795 282.132 386.09 282.844 386.395 C284.218 386.981 285.594 387.564 286.971 388.145 C289.986 389.416 292.993 390.708 296 392 C295.67 392.99 295.34 393.98 295 395 C289.42 397.143 284.565 398.242 278.574 398.684 C274.236 399.111 270.109 400.61 266 402 C265.34 403.65 264.68 405.3 264 407 C262.185 408.32 262.185 408.32 253 415 C252.67 416.65 252.34 418.3 252 420 C251.384 420.019 250.768 420.039 250.133 420.058 C246.47 420.251 243.101 420.582 239.651 421.891 C237.346 423.046 235.109 424.276 232.875 425.562 C232.062 426.014 231.248 426.463 230.432 426.91 C229.187 427.593 227.941 428.277 226.7 428.968 C222.468 431.319 218.152 433.481 213.812 435.625 C213.123 435.967 212.434 436.31 211.724 436.662 C210.15 437.444 208.575 438.222 207 439 C204.36 439 201.72 439 199 439 C198.054 437.966 197.119 436.922 196.188 435.875 C195.665 435.295 195.143 434.715 194.605 434.117 C193 432 193 432 190 426 C189.01 421.38 188.02 416.76 187 412 C186.34 446.65 185.68 481.3 185 517 C186.32 500.5 187.64 484 189 467 C189.33 467 189.66 467 190 467 C190 491.09 190 515.18 190 540 C167.35 540.263 167.35 540.263 157.835 540.356 C157.245 540.362 156.654 540.367 156.045 540.373 C93.425 540.979 30.805 541.1 -53 541.123 C-62.137 541.124 -71.274 541.127 -80.412 541.132 C-93.33 541.138 -106.248 541.14 -119.166 541.136 C-120.471 541.135 -121.776 541.135 -123.081 541.134 C-123.401 541.134 -123.401 541.134 -125.022 541.134 C-129.407 541.133 -133.793 541.134 -138.178 541.136 C-179.178 541.156 -179.178 541.156 -197.922 540.768 C-198.159 540.764 -198.159 540.764 -199.361 540.739 C-208.909 540.537 -218.454 540.259 -228 540 C-228 525.81 -228 511.62 -228 497 C-227.34 497 -226.68 497 -226 497 C-225.979 496.612 -225.959 496.224 -225.938 495.824 C-223.715 454.179 -223.715 454.179 -221 441 C-220.629 438.961 -220.281 436.919 -219.938 434.875 C-219.892 434.613 -219.892 434.613 -219.662 433.285 C-218.999 429.347 -218.999 429.347 -219.004 427.469 C-218.996 424.675 -218.266 421.933 -217.711 419.203 C-217.266 416.9 -216.95 414.748 -217 412.398 C-217 410.019 -216.6 408.291 -216 406 C-215.585 403.466 -215.259 400.922 -214.938 398.375 C-214.892 398.018 -214.892 398.018 -214.662 396.211 C-214.093 391.481 -213.936 386.975 -214.062 382.215 C-213.997 379.876 -213.581 377.888 -213 375.625 C-211.593 370.106 -211.828 364.65 -212 359 C-211.67 358.67 -211.34 358.34 -211 358 C-210.97 357.668 -210.97 357.668 -210.816 355.988 C-210.732 355.096 -210.647 354.204 -210.562 353.312 C-210.523 352.877 -210.484 352.442 -210.443 351.994 C-210.23 349.781 -209.934 347.693 -209.465 345.512 C-208.898 342.818 -208.93 340.241 -209 337.5 C-209.057 332.958 -208.906 328.467 -208.562 323.938 C-208.523 323.39 -208.484 322.842 -208.443 322.277 C-208.235 319.713 -207.99 317.405 -207 315 C-207.495 314.34 -207.495 314.34 -210 311 C-209.34 309.02 -208.68 307.04 -208 305 C-207.34 305 -206.68 305 -206 305 C-205.374 299.972 -204.87 295.069 -205 290 C-204.34 289.01 -203.68 288.02 -203 287 C-204.32 286.67 -205.64 286.34 -207 286 C-207.451 277.054 -207.451 277.054 -206.706 273.66 C-206.127 271.719 -205.414 269.85 -204.656 267.973 C-204 266 -204 266 -203.906 263.746 C-203.937 263.17 -203.968 262.594 -204 262 C-203.01 261.01 -202.02 260.02 -201 259 C-201.99 258.34 -202.98 257.68 -204 257 C-203.34 251.72 -202.68 246.44 -202 241 C-201.67 240.67 -201.67 240.67 -200 239 C-199.71 236.014 -199.426 233.027 -199.146 230.04 C-199.05 229.028 -198.953 228.015 -198.854 227.003 C-198.27 220.984 -197.842 215.056 -198 209 C-198.165 208.67 -198.165 208.67 -199 207 C-198.34 207 -197.68 207 -197 207 C-197.095 206.599 -197.191 206.198 -197.289 205.785 C-197.67 203.83 -197.917 201.993 -198 200 C-197.619 197.623 -197.087 195.342 -196.473 193.016 C-196 191 -196 191 -196.052 189.611 C-195.987 187.597 -195.4 186.096 -194.695 184.207 C-192.454 177.859 -191.233 171.268 -189.875 164.688 C-189.479 162.792 -189.081 160.896 -188.682 159.001 C-188.437 157.831 -188.193 156.661 -187.951 155.491 C-187.12 151.491 -186.267 147.562 -184.844 143.723 C-184.735 143.425 -184.735 143.425 -184.184 141.916 C-183.729 140.684 -183.273 139.452 -182.816 138.221 C-181.855 135.585 -180.947 133.047 -180.469 130.277 C-180 128 -180 128 -179.062 126.156 C-178.712 125.61 -178.361 125.063 -178 124.5 C-177.307 123.349 -176.637 122.183 -176 121 C-175.5 118.563 -175.5 118.563 -175.34 117.379 C-174.694 114.757 -173.293 112.435 -172.035 110.062 C-171.11 108.218 -170.337 106.362 -169.587 104.441 C-168.354 101.413 -166.944 98.463 -165.562 95.5 C-165.263 94.849 -164.963 94.198 -164.654 93.527 C-162.954 89.876 -161.129 86.415 -159 83 C-157.865 81.089 -156.746 79.169 -155.625 77.25 C-155.316 76.724 -155.007 76.198 -154.689 75.656 C-153.328 73.329 -151.981 71.005 -150.75 68.605 C-145.445 58.383 -137.343 50.16 -129.562 41.781 C-127.448 39.5 -125.399 37.174 -123.375 34.812 C-113.577 23.611 -113.577 23.611 -108.895 20.684 C-106.952 19.726 -104.985 18.864 -103 18 C-100.64 16.712 -98.318 15.362 -96 14 C-96.33 13.505 -96.33 13.505 -98 11 C-86.306 6.271 -75.248 3.62 -62.7 2.268 C-61.345 2.122 -59.991 1.97 -58.637 1.817 C-39.089 -0.368 -19.661 -1.039 0 0 Z M-37.701 253.778 C-43.029 256.077 -47.562 258.857 -51.875 262.75 C-56.656 267.287 -60.844 272.194 -64 278 C-65.668 281.362 -67.125 284.812 -68.398 288.343 C-68.836 289.549 -69.304 290.745 -69.789 291.933 C-71.473 296.352 -72.296 300.297 -72.469 305.004 C-72.517 307.191 -72.517 309.375 -72.5 311.562 C-72.499 312.133 -72.498 312.704 -72.497 313.292 C-72.457 320.461 -72.06 327.14 -69.812 334 C-68.96 336.376 -68.015 338.69 -67 341 C-66.797 341.488 -66.594 341.977 -66.385 342.48 C-64.066 347.999 -61.015 353.195 -57.137 357.77 C-52.697 362.621 -47.187 366.653 -41.463 369.861 C-37.3 372.015 -33.067 374.004 -28.418 374.817 C-21.655 375.69 -14.523 375.932 -7.824 374.552 C-1.779 372.903 3.934 370.509 9.129 366.984 C15.286 362.417 20.627 356.638 25.07 350.407 C28.747 344.842 30.974 338.643 32.75 332.25 C33.197 330.505 33.603 328.758 34 327 C34.133 326.421 34.266 325.842 34.402 325.246 C35.146 321.182 35.098 317.057 35.125 312.938 C35.13 312.347 35.135 311.757 35.139 311.149 C35.125 307.323 34.721 303.758 34 300 C35.155 299.175 35.155 299.175 41 295 C42.98 291.04 44.96 287.08 47 283 C47 279.37 47 275.74 47 272 C45.68 269.03 44.36 266.06 43 263 C35.316 255.869 35.316 255.869 32.5 254.562 C30.265 253.848 28.019 253.895 25.688 253.875 C24.458 253.907 23.229 253.945 22 254 C20.728 254.622 19.457 255.248 18.188 255.875 C17.48 256.223 16.772 256.571 16.043 256.93 C14.269 257.859 12.639 258.852 11 260 C10.706 259.769 10.412 259.539 10.109 259.301 C6.62 256.764 2.956 254.983 -1 253.312 C-1.498 253.098 -1.996 252.884 -2.509 252.663 C-6.404 251.063 -10.162 250.221 -14.358 249.894 C-22.628 249.504 -30.017 250.68 -37.701 253.778 Z M-39 387 C-39.33 387.33 -39.66 387.66 -40 388 C-39.67 390.31 -39.34 392.62 -39 395 C-37.68 395.66 -36.36 396.32 -35 397 C-32.03 397 -29.06 397 -26 397 C-25.01 396.34 -24.02 395.68 -23 395 C-23.144 394.216 -23.289 393.433 -23.438 392.625 C-23.478 392.405 -23.478 392.405 -23.684 391.289 C-24 390 -24 390 -25 388 C-28.175 387.058 -30.979 386.876 -34.25 386.938 C-34.709 386.942 -35.168 386.947 -35.641 386.951 C-36.76 386.963 -37.88 386.981 -39 387 Z " fill="#6B6D72" transform="translate(273,25)"/>
<path d="M0 0 C0 0.99 0 1.98 0 3 C-0.237 3.115 -0.237 3.115 -1.434 3.699 C-3.246 4.593 -5.046 5.508 -6.846 6.428 C-7.909 6.955 -8.993 7.441 -10.078 7.922 C-14.659 10.128 -18.15 12.894 -21.809 16.434 C-26.754 21.377 -31.416 26.486 -35.751 31.971 C-38.416 35.339 -41.256 38.487 -44.188 41.625 C-49.989 47.897 -54.329 54.34 -58.02 62.066 C-58.988 63.976 -60.073 65.713 -61.25 67.5 C-65.086 73.476 -68.057 79.948 -71.173 86.318 C-71.808 87.609 -72.457 88.892 -73.113 90.172 C-74.197 92.406 -75.103 94.686 -76 97 C-76.943 99.431 -77.891 101.788 -79.086 104.109 C-79.95 105.897 -80.359 107.297 -80.625 109.25 C-80.7 109.771 -80.775 110.292 -80.852 110.828 C-80.901 111.215 -80.95 111.602 -81 112 C-81.99 113.32 -82.98 114.64 -84 116 C-84.113 116.679 -84.227 117.359 -84.344 118.059 C-85.036 121.519 -86.275 124.761 -87.5 128.062 C-87.95 129.282 -88.398 130.502 -88.844 131.723 C-89.042 132.256 -89.239 132.79 -89.443 133.34 C-90.739 137.205 -91.48 141.214 -92.305 145.199 C-92.561 146.421 -92.817 147.643 -93.074 148.865 C-93.474 150.769 -93.872 152.673 -94.265 154.578 C-95.65 161.277 -97.061 167.822 -99.454 174.241 C-100 176 -100 176 -100.054 177.579 C-100.036 178.048 -100.018 178.517 -100 179 C-100.122 179.845 -100.268 180.687 -100.438 181.523 C-100.528 181.988 -100.618 182.452 -100.711 182.93 C-100.902 183.886 -101.095 184.841 -101.289 185.797 C-101.894 188.924 -102.093 191.814 -102 195 C-102.33 195.33 -102.66 195.66 -103 196 C-102.67 196 -102.34 196 -102 196 C-101.844 202.926 -102.325 209.678 -103 216.562 C-103.097 217.581 -103.193 218.6 -103.289 219.619 C-103.522 222.08 -103.759 224.54 -104 227 C-104.33 227.33 -104.33 227.33 -106 229 C-106.66 234.28 -107.32 239.56 -108 245 C-107.01 245.33 -106.02 245.66 -105 246 C-105.33 246.66 -105.33 246.66 -107 250 C-107.66 250 -108.32 250 -109 250 C-108.67 251.98 -108.34 253.96 -108 256 C-108.99 258.31 -109.98 260.62 -111 263 C-111 266.63 -111 270.26 -111 274 C-110.01 274.33 -109.02 274.66 -108 275 C-108.072 275.58 -108.144 276.16 -108.219 276.758 C-108.747 281.208 -109.115 285.52 -109 290 C-110.32 291.65 -111.64 293.3 -113 295 C-113.33 296.65 -113.66 298.3 -114 300 C-113.34 300 -112.68 300 -112 300 C-111.438 301.562 -111.438 301.562 -111 304 C-111.138 305.674 -111.404 307.304 -111.676 308.961 C-112.612 314.847 -113.061 320.614 -112.938 326.562 C-112.851 330.989 -113.463 334.766 -114.559 339.07 C-114.937 340.723 -115.109 342.069 -115.062 343.75 C-115.005 345.832 -115.324 347.483 -115.785 349.496 C-116.065 351.453 -115.988 353.337 -115.938 355.312 C-115.87 359.801 -116.695 363.724 -118 368 C-117.67 369.98 -117.34 371.96 -117 374 C-117.66 374 -118.32 374 -119 374 C-118.818 374.683 -118.636 375.366 -118.449 376.07 C-118.022 378.224 -118.012 380.064 -118.27 382.242 C-118.442 383.454 -118.624 384.665 -118.812 385.875 C-119.006 387.202 -119.198 388.529 -119.391 389.855 C-119.441 390.195 -119.441 390.195 -119.697 391.916 C-120 394 -120.278 396.087 -120.547 398.176 C-120.633 398.848 -120.72 399.521 -120.809 400.213 C-120.974 401.501 -121.139 402.788 -121.302 404.076 C-121.7 407.113 -122.171 410.043 -123 413 C-122.67 413.66 -122.34 414.32 -122 415 C-122.133 415.461 -122.266 415.923 -122.402 416.398 C-123.898 421.923 -124.557 427.317 -125 433 C-125.33 433.33 -125.66 433.66 -126 434 C-127.916 450.962 -128.977 467.965 -130 485 C-130.66 485.33 -131.32 485.66 -132 486 C-132.034 454.91 -132.066 423.819 -132.085 392.729 C-132.085 392.268 -132.085 391.808 -132.086 391.334 C-132.092 381.334 -132.097 371.333 -132.102 361.333 C-132.105 356.429 -132.107 351.524 -132.11 346.62 C-132.11 346.132 -132.11 345.644 -132.111 345.141 C-132.119 329.323 -132.134 313.505 -132.153 297.687 C-132.171 281.431 -132.184 265.176 -132.188 248.921 C-132.188 246.625 -132.189 244.329 -132.19 242.033 C-132.19 241.581 -132.19 241.129 -132.19 240.663 C-132.193 233.39 -132.202 226.116 -132.214 218.842 C-132.225 211.529 -132.23 204.216 -132.227 196.903 C-132.226 192.941 -132.228 188.979 -132.238 185.017 C-132.248 181.39 -132.249 177.763 -132.242 174.136 C-132.241 172.823 -132.243 171.511 -132.25 170.199 C-132.258 168.414 -132.253 166.63 -132.246 164.845 C-132.251 164.336 -132.257 163.827 -132.262 163.303 C-132.237 160.588 -131.873 158.333 -131.002 155.752 C-130.912 155.511 -130.912 155.511 -130.457 154.29 C-129.888 152.684 -129.72 151.203 -129.648 149.504 C-128.87 137.907 -125.596 127.974 -121.548 117.177 C-120.413 114.146 -119.342 111.104 -118.316 108.035 C-115.869 100.72 -113.507 94.299 -109 88 C-107.773 86.116 -106.575 84.214 -105.375 82.312 C-104.799 81.413 -104.224 80.513 -103.648 79.613 C-102.581 77.933 -101.538 76.242 -100.52 74.531 C-98.841 71.714 -97.08 68.951 -95.312 66.188 C-94.992 65.685 -94.672 65.183 -94.342 64.666 C-93.562 63.444 -92.781 62.222 -92 61 C-91.34 61 -90.68 61 -90 61 C-90 58.69 -90 56.38 -90 54 C-88.02 53.34 -86.04 52.68 -84 52 C-79.38 47.38 -74.76 42.76 -70 38 C-69.67 36.35 -69.34 34.7 -69 33 C-68.216 32.814 -67.433 32.629 -66.625 32.438 C-63.491 31.397 -61.136 29.787 -58.504 27.859 C-52.946 23.882 -47.164 20.336 -41.312 16.812 C-40.309 16.204 -39.306 15.595 -38.303 14.986 C-35.946 13.557 -33.583 12.139 -31.216 10.728 C-30.152 10.091 -29.094 9.446 -28.037 8.799 C-23.692 6.2 -19.212 4.414 -14.438 2.75 C-13.709 2.482 -12.98 2.214 -12.229 1.938 C-7.963 0.432 -4.522 -0.314 0 0 Z " fill="#949DA6" transform="translate(178,37)"/>
<path d="M0 0 C3.51 1.025 6.916 2.339 10.312 3.688 C10.566 3.786 10.566 3.786 11.851 4.284 C13.882 5.129 15.623 5.94 17.311 7.368 C18.262 8.317 19.167 9.311 20.062 10.312 C18.743 13.283 17.423 16.252 16.062 19.312 C16.062 24.592 16.062 29.873 16.062 35.312 C20.137 43.342 20.137 43.342 22.66 45.988 C24.722 47.705 26.66 49.111 29.062 50.312 C33.683 50.312 38.303 50.312 43.062 50.312 C44.447 57.235 44.694 64.09 43.844 71.118 C42.482 79.773 40.027 88.479 36.062 96.312 C32.301 102.975 27.201 108.733 21.568 113.875 C17.401 117.397 12.863 119.563 7.833 121.601 C3.617 123.216 -0.194 124.334 -4.73 124.516 C-17.775 124.749 -17.775 124.749 -22.875 123.125 C-24.244 122.556 -25.599 121.951 -26.938 121.312 C-27.739 120.968 -28.541 120.624 -29.344 120.281 C-35.5 117.538 -40.862 113.86 -45.859 109.343 C-50.252 105.144 -53.28 100.042 -56.062 94.688 C-57.077 92.585 -58.021 90.459 -58.938 88.312 C-59.152 87.821 -59.367 87.33 -59.588 86.824 C-61.873 81.325 -62.904 75.782 -63.303 69.859 C-63.784 60.99 -64.045 51.858 -61.797 43.207 C-60.506 39.081 -58.862 35.18 -56.938 31.312 C-56.692 30.808 -56.446 30.304 -56.193 29.785 C-52.84 23.116 -48.13 17.621 -42.938 12.312 C-42.418 11.757 -41.899 11.201 -41.363 10.629 C-38.667 8.014 -35.995 6.278 -32.633 4.648 C-31.405 4.09 -30.173 3.54 -28.938 3 C-28.356 2.745 -27.774 2.49 -27.175 2.228 C-18.877 -1.191 -8.8 -1.943 0 0 Z M-29.938 99.312 C-31.257 100.632 -32.577 101.952 -33.938 103.312 C-33.608 106.283 -33.278 109.252 -32.938 112.312 C-31.865 113.261 -30.792 114.21 -29.688 115.188 C-29.084 115.721 -28.481 116.255 -27.859 116.805 C-25.938 118.312 -25.938 118.312 -21.938 120.312 C-17.317 120.312 -12.697 120.312 -7.938 120.312 C-5.957 118.993 -3.978 117.673 -1.938 116.312 C-1.608 114.663 -1.278 113.012 -0.938 111.312 C-1.597 111.312 -2.257 111.312 -2.938 111.312 C-3.928 109.002 -4.918 106.692 -5.938 104.312 C-6.597 104.312 -7.257 104.312 -7.938 104.312 C-7.938 103.653 -7.938 102.993 -7.938 102.312 C-16.556 99.29 -16.556 99.29 -20.605 99.113 C-22.724 99.123 -24.824 99.175 -26.938 99.312 C-27.267 99.642 -27.597 99.972 -27.938 100.312 C-28.597 99.983 -29.257 99.653 -29.938 99.312 Z " fill="#0F0E0E" transform="translate(263.9375,275.6875)"/>
<path d="M0 0 C0.715 0.009 1.431 0.018 2.168 0.027 C2.439 0.033 2.439 0.033 3.812 0.062 C7.028 1.332 10.195 2.688 12.846 4.94 C15.501 7.52 17.784 10.349 19.691 13.527 C20.34 15.091 20.624 16.373 20.812 18.062 C20.99 21.741 20.902 25.377 20.812 29.062 C18.832 33.022 16.853 36.983 14.812 41.062 C11.512 43.373 8.212 45.683 4.812 48.062 C1.183 48.062 -2.447 48.062 -6.188 48.062 C-9.515 46.051 -12.326 44.14 -14.875 41.188 C-17.291 38.282 -18.39 35.658 -20.188 32.062 C-20.188 26.783 -20.188 21.502 -20.188 16.062 C-18.868 13.092 -17.548 10.123 -16.188 7.062 C-14.753 6.079 -13.315 5.101 -11.875 4.125 C-11.471 3.847 -11.067 3.569 -10.65 3.283 C-9.02 2.183 -7.453 1.182 -5.656 0.375 C-3.743 -0.032 -1.954 -0.032 0 0 Z " fill="#B9B8B8" transform="translate(299.1875,278.9375)"/>
<path d="M0 0 C6.6 0 13.2 0 20 0 C20.33 6.27 20.66 12.54 21 19 C20.01 20.65 19.02 22.3 18 24 C17.28 25.648 17.28 25.648 16.789 27.103 C16.599 27.657 16.408 28.212 16.212 28.783 C16.019 29.366 15.825 29.95 15.625 30.551 C15.414 31.168 15.204 31.786 14.987 32.422 C14.319 34.384 13.659 36.348 13 38.312 C12.341 40.261 11.68 42.208 11.018 44.156 C10.591 45.414 10.166 46.674 9.742 47.934 C8.684 51.068 7.556 54.14 6.293 57.199 C4.409 62.123 3.936 67.299 3.312 72.5 C3.183 73.524 3.052 74.547 2.92 75.57 C2.603 78.046 2.298 80.522 2 83 C1.34 82.67 0.68 82.34 0 82 C0 54.94 0 27.88 0 0 Z " fill="#3D3D3D" transform="translate(46,112)"/>
<path d="M0 0 C4.29 0 8.58 0 13 0 C18 3 18 3 19.328 4.281 C19.632 4.683 19.937 5.086 20.25 5.5 C20.565 5.902 20.879 6.304 21.203 6.719 C22 8 22 8 22.605 9.27 C23.206 11.904 23.104 14.496 23.062 17.188 C23.058 17.746 23.053 18.305 23.049 18.881 C23.037 20.254 23.019 21.627 23 23 C22.01 24.98 21.02 26.96 20 29 C19.515 29.291 19.031 29.583 18.531 29.883 C13.459 32.985 8.701 36.362 4 40 C2.68 39.67 1.36 39.34 0 39 C0 37.68 0 36.36 0 35 C-0.66 35 -1.32 35 -2 35 C-2.345 33.67 -2.675 32.335 -3 31 C-3.186 30.257 -3.371 29.515 -3.562 28.75 C-4.382 24.449 -4.267 20.094 -3.715 15.766 C-3.344 13.503 -2.933 11.252 -2.5 9 C-2.357 8.225 -2.214 7.451 -2.066 6.652 C-1.717 4.767 -1.362 2.883 -1 1 C-0.67 0.67 -0.34 0.34 0 0 Z " fill="#B9B9B9" transform="translate(460,343)"/>
<path d="M0 0 C0.66 0 1.32 0 2 0 C2 8.25 2 16.5 2 25 C-11.53 25 -25.06 25 -39 25 C-39 23.02 -39 21.04 -39 19 C-35.37 16.36 -31.74 13.72 -28 11 C-27.34 9.35 -26.68 7.7 -26 6 C-20.283 4.028 -14.911 2.643 -8.844 2.379 C-7.002 2.279 -5.388 2.134 -3.635 1.528 C-2.422 1.023 -1.211 0.512 0 0 Z " fill="#3D3835" transform="translate(565,420)"/>
<path d="M0 0 C0.33 0 0.66 0 1 0 C1.095 0.559 1.19 1.117 1.288 1.693 C4.407 19.629 4.407 19.629 6.923 24.479 C8.631 27.374 10.569 29.682 13 32 C14.65 32.33 16.3 32.66 18 33 C15.406 34.844 12.661 36.227 9.812 37.625 C9.349 37.854 8.886 38.084 8.408 38.32 C7.273 38.882 6.137 39.441 5 40 C4.967 40.558 4.934 41.117 4.9 41.692 C4.479 48.774 4.054 55.856 3.625 62.938 C3.591 63.498 3.557 64.059 3.522 64.636 C2.524 81.106 1.473 97.565 0 114 C-0.66 113.01 -1.32 112.02 -2 111 C-1.34 74.37 -0.68 37.74 0 0 Z " fill="#3B2F29" transform="translate(459,431)"/>
<path d="M0 0 C6.6 0 13.2 0 20 0 C20.33 2.31 20.66 4.62 21 7 C20.557 7.415 20.113 7.83 19.656 8.258 C17.968 10.034 16.77 11.783 15.5 13.875 C15.098 14.532 14.696 15.19 14.281 15.867 C13.632 16.948 12.983 18.029 12.341 19.115 C10.09 22.907 7.704 26.608 5.312 30.312 C4.897 30.958 4.481 31.603 4.053 32.268 C3.036 33.846 2.018 35.423 1 37 C0.67 37 0.34 37 0 37 C0 24.79 0 12.58 0 0 Z " fill="#3B3B3C" transform="translate(67,91)"/>
<path d="M0 0 C6.6 0 13.2 0 20 0 C20 6.6 20 13.2 20 20 C13.4 20 6.8 20 0 20 C0 13.4 0 6.8 0 0 Z " fill="#393939" transform="translate(547,571)"/>
<path d="M0 0 C6.6 0 13.2 0 20 0 C20 6.6 20 13.2 20 20 C13.4 20 6.8 20 0 20 C0 13.4 0 6.8 0 0 Z " fill="#393939" transform="translate(526,571)"/>
<path d="M0 0 C6.6 0 13.2 0 20 0 C20 6.6 20 13.2 20 20 C13.4 20 6.8 20 0 20 C0 13.4 0 6.8 0 0 Z " fill="#393939" transform="translate(401,571)"/>
<path d="M0 0 C6.6 0 13.2 0 20 0 C20 6.6 20 13.2 20 20 C13.4 20 6.8 20 0 20 C0 13.4 0 6.8 0 0 Z " fill="#393939" transform="translate(380,571)"/>
<path d="M0 0 C6.6 0 13.2 0 20 0 C20 6.6 20 13.2 20 20 C13.4 20 6.8 20 0 20 C0 13.4 0 6.8 0 0 Z " fill="#393939" transform="translate(359,571)"/>
<path d="M0 0 C6.6 0 13.2 0 20 0 C20 6.6 20 13.2 20 20 C13.4 20 6.8 20 0 20 C0 13.4 0 6.8 0 0 Z " fill="#393939" transform="translate(213,571)"/>
<path d="M0 0 C6.6 0 13.2 0 20 0 C20 6.6 20 13.2 20 20 C13.4 20 6.8 20 0 20 C0 13.4 0 6.8 0 0 Z " fill="#393939" transform="translate(192,571)"/>
<path d="M0 0 C6.6 0 13.2 0 20 0 C20 6.6 20 13.2 20 20 C13.4 20 6.8 20 0 20 C0 13.4 0 6.8 0 0 Z " fill="#393939" transform="translate(67,571)"/>
<path d="M0 0 C6.6 0 13.2 0 20 0 C20 6.6 20 13.2 20 20 C13.4 20 6.8 20 0 20 C0 13.4 0 6.8 0 0 Z " fill="#393939" transform="translate(46,571)"/>
<path d="M0 0 C6.6 0 13.2 0 20 0 C20 6.6 20 13.2 20 20 C13.4 20 6.8 20 0 20 C0 13.4 0 6.8 0 0 Z " fill="#393939" transform="translate(25,571)"/>
<path d="M0 0 C6.6 0 13.2 0 20 0 C20 6.6 20 13.2 20 20 C13.4 20 6.8 20 0 20 C0 13.4 0 6.8 0 0 Z " fill="#393939" transform="translate(547,446)"/>
<path d="M0 0 C6.6 0 13.2 0 20 0 C20 6.6 20 13.2 20 20 C13.4 20 6.8 20 0 20 C0 13.4 0 6.8 0 0 Z " fill="#393939" transform="translate(526,446)"/>
<path d="M0 0 C6.6 0 13.2 0 20 0 C20 6.6 20 13.2 20 20 C13.4 20 6.8 20 0 20 C0 13.4 0 6.8 0 0 Z " fill="#393939" transform="translate(25,446)"/>
<path d="M0 0 C6.6 0 13.2 0 20 0 C20 6.6 20 13.2 20 20 C13.4 20 6.8 20 0 20 C0 13.4 0 6.8 0 0 Z " fill="#393939" transform="translate(25,425)"/>
<path d="M0 0 C6.6 0 13.2 0 20 0 C20 6.6 20 13.2 20 20 C13.4 20 6.8 20 0 20 C0 13.4 0 6.8 0 0 Z " fill="#3A3A3A" transform="translate(25,404)"/>
<path d="M0 0 C6.6 0 13.2 0 20 0 C20 6.6 20 13.2 20 20 C13.4 20 6.8 20 0 20 C0 13.4 0 6.8 0 0 Z " fill="#393939" transform="translate(547,279)"/>
<path d="M0 0 C6.6 0 13.2 0 20 0 C20 6.6 20 13.2 20 20 C13.4 20 6.8 20 0 20 C0 13.4 0 6.8 0 0 Z " fill="#393939" transform="translate(526,279)"/>
<path d="M0 0 C6.6 0 13.2 0 20 0 C20 6.6 20 13.2 20 20 C13.4 20 6.8 20 0 20 C0 13.4 0 6.8 0 0 Z " fill="#393939" transform="translate(25,279)"/>
<path d="M0 0 C6.6 0 13.2 0 20 0 C20 6.6 20 13.2 20 20 C13.4 20 6.8 20 0 20 C0 13.4 0 6.8 0 0 Z " fill="#393939" transform="translate(547,258)"/>
<path d="M0 0 C6.6 0 13.2 0 20 0 C20 6.6 20 13.2 20 20 C13.4 20 6.8 20 0 20 C0 13.4 0 6.8 0 0 Z " fill="#393939" transform="translate(526,258)"/>
<path d="M0 0 C6.6 0 13.2 0 20 0 C20 6.6 20 13.2 20 20 C13.4 20 6.8 20 0 20 C0 13.4 0 6.8 0 0 Z " fill="#393939" transform="translate(25,258)"/>
<path d="M0 0 C6.6 0 13.2 0 20 0 C20 6.6 20 13.2 20 20 C13.4 20 6.8 20 0 20 C0 13.4 0 6.8 0 0 Z " fill="#393939" transform="translate(547,237)"/>
<path d="M0 0 C6.6 0 13.2 0 20 0 C20 6.6 20 13.2 20 20 C13.4 20 6.8 20 0 20 C0 13.4 0 6.8 0 0 Z " fill="#393939" transform="translate(526,237)"/>
<path d="M0 0 C6.6 0 13.2 0 20 0 C20 6.6 20 13.2 20 20 C13.4 20 6.8 20 0 20 C0 13.4 0 6.8 0 0 Z " fill="#393939" transform="translate(25,237)"/>
<path d="M0 0 C6.6 0 13.2 0 20 0 C20 6.6 20 13.2 20 20 C13.4 20 6.8 20 0 20 C0 13.4 0 6.8 0 0 Z " fill="#393939" transform="translate(547,112)"/>
<path d="M0 0 C6.6 0 13.2 0 20 0 C20 6.6 20 13.2 20 20 C13.4 20 6.8 20 0 20 C0 13.4 0 6.8 0 0 Z " fill="#393939" transform="translate(526,112)"/>
<path d="M0 0 C6.6 0 13.2 0 20 0 C20 6.6 20 13.2 20 20 C13.4 20 6.8 20 0 20 C0 13.4 0 6.8 0 0 Z " fill="#393939" transform="translate(25,112)"/>
<path d="M0 0 C6.6 0 13.2 0 20 0 C20 6.6 20 13.2 20 20 C13.4 20 6.8 20 0 20 C0 13.4 0 6.8 0 0 Z " fill="#393939" transform="translate(547,91)"/>
<path d="M0 0 C6.6 0 13.2 0 20 0 C20 6.6 20 13.2 20 20 C13.4 20 6.8 20 0 20 C0 13.4 0 6.8 0 0 Z " fill="#393939" transform="translate(526,91)"/>
<path d="M0 0 C6.6 0 13.2 0 20 0 C20 6.6 20 13.2 20 20 C13.4 20 6.8 20 0 20 C0 13.4 0 6.8 0 0 Z " fill="#393939" transform="translate(46,91)"/>
<path d="M0 0 C6.6 0 13.2 0 20 0 C20 6.6 20 13.2 20 20 C13.4 20 6.8 20 0 20 C0 13.4 0 6.8 0 0 Z " fill="#393939" transform="translate(25,91)"/>
<path d="M0 0 C6.6 0 13.2 0 20 0 C20 6.6 20 13.2 20 20 C13.4 20 6.8 20 0 20 C0 13.4 0 6.8 0 0 Z " fill="#393939" transform="translate(547,70)"/>
<path d="M0 0 C6.6 0 13.2 0 20 0 C20 6.6 20 13.2 20 20 C13.4 20 6.8 20 0 20 C0 13.4 0 6.8 0 0 Z " fill="#393939" transform="translate(526,70)"/>
<path d="M0 0 C6.6 0 13.2 0 20 0 C20 6.6 20 13.2 20 20 C13.4 20 6.8 20 0 20 C0 13.4 0 6.8 0 0 Z " fill="#393939" transform="translate(67,70)"/>
<path d="M0 0 C6.6 0 13.2 0 20 0 C20 6.6 20 13.2 20 20 C13.4 20 6.8 20 0 20 C0 13.4 0 6.8 0 0 Z " fill="#393939" transform="translate(46,70)"/>
<path d="M0 0 C6.6 0 13.2 0 20 0 C20 6.6 20 13.2 20 20 C13.4 20 6.8 20 0 20 C0 13.4 0 6.8 0 0 Z " fill="#393939" transform="translate(25,70)"/>
<path d="M0 0 C6.27 0 12.54 0 19 0 C19 6.6 19 13.2 19 20 C12.73 20 6.46 20 0 20 C0 13.4 0 6.8 0 0 Z " fill="#393939" transform="translate(443,571)"/>
<path d="M0 0 C6.6 0 13.2 0 20 0 C20 6.27 20 12.54 20 19 C13.4 19 6.8 19 0 19 C0 12.73 0 6.46 0 0 Z " fill="#393939" transform="translate(547,196)"/>
<path d="M0 0 C6.6 0 13.2 0 20 0 C20 6.27 20 12.54 20 19 C13.4 19 6.8 19 0 19 C0 12.73 0 6.46 0 0 Z " fill="#393939" transform="translate(25,196)"/>
<path d="M0 0 C6.6 0 13.2 0 20 0 C20 6.27 20 12.54 20 19 C13.4 19 6.8 19 0 19 C0 12.73 0 6.46 0 0 Z " fill="#393939" transform="translate(547,175)"/>
<path d="M0 0 C6.27 0 12.54 0 19 0 C19 6.6 19 13.2 19 20 C12.73 20 6.46 20 0 20 C0 13.4 0 6.8 0 0 Z " fill="#393939" transform="translate(443,91)"/>
<path d="M0 0 C6.27 0 12.54 0 19 0 C19 6.6 19 13.2 19 20 C13.06 20 7.12 20 1 20 C0.67 19.67 0.34 19.34 0 19 C0 12.73 0 6.46 0 0 Z " fill="#393939" transform="translate(443,112)"/>
<path d="M0 0 C6.6 0 13.2 0 20 0 C20 5.94 20 11.88 20 18 C13.232 18.888 6.821 19.086 0 19 C0 12.73 0 6.46 0 0 Z " fill="#393939" transform="translate(213,8)"/>
<path d="M0 0 C6.27 0 12.54 0 19 0 C19 6.27 19 12.54 19 19 C12.73 19 6.46 19 0 19 C0 12.73 0 6.46 0 0 Z " fill="#393939" transform="translate(464,196)"/>
<path d="M0 0 C0.66 0.33 1.32 0.66 2 1 C2.33 0.67 2.66 0.34 3 0 C10.938 -0.447 10.938 -0.447 14.357 0.294 C16.965 1.037 19.487 1.98 22 3 C22 3.66 22 4.32 22 5 C22.66 5 23.32 5 24 5 C24.99 7.31 25.98 9.62 27 12 C27.66 12 28.32 12 29 12 C28.67 13.65 28.34 15.3 28 17 C26.02 18.32 24.04 19.64 22 21 C17.38 21 12.76 21 8 21 C5.03 19.02 2.06 17.04 -1 15 C-1.99 13.35 -2.98 11.7 -4 10 C-4 8.02 -4 6.04 -4 4 C-2.68 2.68 -1.36 1.36 0 0 Z M4 7 C3.67 7.33 3.34 7.66 3 8 C3 9.98 3 11.96 3 14 C3.766 14.651 4.538 15.296 5.312 15.938 C5.742 16.297 6.171 16.657 6.613 17.027 C8 18 8 18 9.438 18.625 C11.239 19.057 12.837 19.097 14.688 19.062 C14.999 19.058 14.999 19.058 16.574 19.035 C16.809 19.029 16.809 19.029 18 19 C19.32 18.01 20.64 17.02 22 16 C21.67 14.35 21.34 12.7 21 11 C19.02 9.68 17.04 8.36 15 7 C11.37 7 7.74 7 4 7 Z " fill="#232323" transform="translate(234,375)"/>
<path d="M0 0 C0.33 0 0.66 0 1 0 C1 102.3 1 204.6 1 310 C0.67 310 0.34 310 0 310 C0 207.7 0 105.4 0 0 Z " fill="#6B6D72" transform="translate(45,212)"/>
<path d="M0 0 C6.6 0 13.2 0 20 0 C20 6.6 20 13.2 20 20 C17.69 20 15.38 20 13 20 C8.71 15.71 4.42 11.42 0 7 C0 4.69 0 2.38 0 0 Z " fill="#3A3A3A" transform="translate(401,70)"/>
<path d="M0 0 C3.63 0 7.26 0 11 0 C13.31 1.65 15.62 3.3 18 5 C17.67 6.65 17.34 8.3 17 10 C16.01 10.66 15.02 11.32 14 12 C11.69 12 9.38 12 7 12 C2.508 9.852 2.508 9.852 1 9 C0.34 8.34 -0.32 7.68 -1 7 C-1 5.02 -1 3.04 -1 1 C-0.67 0.67 -0.34 0.34 0 0 Z " fill="#7D7D7D" transform="translate(238,382)"/>
<path d="M0 0 C6.6 0 13.2 0 20 0 C20 4.29 20 8.58 20 13 C18.061 12.092 16.122 11.185 14.125 10.25 C8.49 7.631 2.801 5.226 -3 3 C-3.33 2.34 -3.66 1.68 -4 1 C-2.68 1.33 -1.36 1.66 0 2 C0 1.34 0 0.68 0 0 Z " fill="#403E3C" transform="translate(547,404)"/>
<path d="M0 0 C20.13 0 40.26 0 61 0 C61 1.65 61 3.3 61 5 C54.73 5 48.46 5 42 5 C42 3.68 42 2.36 42 1 C28.14 1 14.28 1 0 1 C0 0.67 0 0.34 0 0 Z " fill="#404143" transform="translate(255,565)"/>
<path d="M0 0 C6.6 0 13.2 0 20 0 C20 1.65 20 3.3 20 5 C13.4 5 6.8 5 0 5 C0 3.35 0 1.7 0 0 Z " fill="#3A3B3B" transform="translate(401,565)"/>
<path d="M0 0 C6.6 0 13.2 0 20 0 C20 1.65 20 3.3 20 5 C13.4 5 6.8 5 0 5 C0 3.35 0 1.7 0 0 Z " fill="#3A3B3B" transform="translate(380,565)"/>
<path d="M0 0 C6.6 0 13.2 0 20 0 C20 1.65 20 3.3 20 5 C13.4 5 6.8 5 0 5 C0 3.35 0 1.7 0 0 Z " fill="#3B3B3C" transform="translate(359,565)"/>
<path d="M0 0 C6.6 0 13.2 0 20 0 C20 1.65 20 3.3 20 5 C13.4 5 6.8 5 0 5 C0 3.35 0 1.7 0 0 Z " fill="#3D3D3E" transform="translate(234,565)"/>
<path d="M0 0 C6.6 0 13.2 0 20 0 C20 1.65 20 3.3 20 5 C13.4 5 6.8 5 0 5 C0 3.35 0 1.7 0 0 Z " fill="#3C3D3D" transform="translate(213,565)"/>
<path d="M0 0 C6.6 0 13.2 0 20 0 C20 1.65 20 3.3 20 5 C13.4 5 6.8 5 0 5 C0 3.35 0 1.7 0 0 Z " fill="#3C3D3D" transform="translate(192,565)"/>
<path d="M0 0 C6.6 0 13.2 0 20 0 C20 1.65 20 3.3 20 5 C13.4 5 6.8 5 0 5 C0 3.35 0 1.7 0 0 Z " fill="#3C3D3D" transform="translate(67,565)"/>
<path d="M0 0 C6.6 0 13.2 0 20 0 C20 1.65 20 3.3 20 5 C13.4 5 6.8 5 0 5 C0 3.35 0 1.7 0 0 Z " fill="#3E3E3F" transform="translate(46,565)"/>
<path d="M0 0 C0.66 0.33 1.32 0.66 2 1 C2.121 1.82 2.242 2.64 2.367 3.484 C2.536 4.573 2.705 5.662 2.875 6.75 C2.954 7.289 3.032 7.828 3.113 8.383 C3.51 10.883 3.932 13.115 5.07 15.391 C5.377 15.922 5.684 16.453 6 17 C5.34 18.32 4.68 19.64 4 21 C2.35 21.33 0.7 21.66 -1 22 C-1.992 17.475 -2.015 13.351 -1.625 8.75 C-1.581 8.126 -1.537 7.502 -1.492 6.859 C-1.229 3.467 -1.229 3.467 -1 2 C-0.67 1.34 -0.34 0.68 0 0 Z " fill="#2F3439" transform="translate(455,368)"/>
<path d="M0 0 C6.27 0 12.54 0 19 0 C19 1.65 19 3.3 19 5 C12.73 5 6.46 5 0 5 C0 3.35 0 1.7 0 0 Z " fill="#3A3B3B" transform="translate(443,565)"/>
<path d="M0 0 C5.94 0 11.88 0 18 0 C18 1.65 18 3.3 18 5 C11.73 5 5.46 5 -1 5 C-0.67 3.35 -0.34 1.7 0 0 Z " fill="#3B3C3C" transform="translate(131,565)"/>
<path d="M0 0 C1.583 -0.027 3.166 -0.047 4.75 -0.062 C5.193 -0.071 5.637 -0.079 6.094 -0.088 C8.888 -0.108 11.295 0.197 14 1 C14.66 1.99 15.32 2.98 16 4 C15.67 5.65 15.34 7.3 15 9 C14.67 9.165 14.67 9.165 13 10 C10.03 10 7.06 10 4 10 C2.68 9.34 1.36 8.68 0 8 C-0.33 5.69 -0.66 3.38 -1 1 C-0.67 0.67 -0.34 0.34 0 0 Z M1 2 C1.33 3.65 1.66 5.3 2 7 C2.66 7.66 3.32 8.32 4 9 C6.64 9 9.28 9 12 9 C12.33 7.35 12.66 5.7 13 4 C11.302 3.177 9.807 2.51 8 2 C5.655 1.835 3.346 1.878 1 2 Z " fill="#CBA18B" transform="translate(234,412)"/>
<path d="M0 0 C5.913 -0.307 5.913 -0.307 8.578 0.445 C9.738 0.919 10.873 1.453 12 2 C11.67 3.65 11.34 5.3 11 7 C8.36 7 5.72 7 3 7 C2.01 6.01 1.02 5.02 0 4 C0 2.68 0 1.36 0 0 Z " fill="#DFD4CF" transform="translate(235,414)"/>
</svg>
