<?xml version="1.0" encoding="UTF-8"?>
<!-- Generator: visioncortex VTracer 0.6.5 -->
<svg version="1.1" xmlns="http://www.w3.org/2000/svg" width="579" height="603">
<rect width="579" height="603" fill="#6A7077"/>
<path d="M0 0 C19.439 4.809 38.209 12.296 55.082 23.117 C57.876 24.944 60.623 26.833 63.348 28.762 C64.698 29.714 66.055 30.654 67.415 31.591 C68.307 32.208 69.198 32.825 70.089 33.442 C70.488 33.718 70.887 33.994 71.299 34.278 C77.185 38.394 82.298 43.067 86.926 48.545 C90.575 52.842 94.632 56.743 98.655 60.684 C100.305 60.684 101.955 60.684 103.655 60.684 C103.655 62.334 103.655 63.984 103.655 65.684 C104.175 66.291 104.694 66.899 105.23 67.524 C108.325 71.398 110.908 75.615 113.554 79.802 C114.452 81.221 115.355 82.638 116.259 84.053 C117.777 86.437 119.272 88.834 120.758 91.239 C121.348 92.19 121.944 93.138 122.545 94.082 C128.101 102.828 131.885 111.998 135.343 121.747 C135.484 122.141 135.626 122.535 135.771 122.941 C141.665 139.389 144.223 155.576 145.381 173.037 C145.551 175.584 145.835 178.094 146.165 180.625 C146.823 186.507 146.788 192.36 146.769 198.272 C146.769 199.515 146.769 200.758 146.769 202 C146.77 205.347 146.764 208.693 146.757 212.04 C146.75 215.547 146.75 219.055 146.749 222.562 C146.746 229.191 146.737 235.821 146.727 242.451 C146.716 250.003 146.711 257.556 146.706 265.109 C146.695 280.634 146.678 296.159 146.655 311.684 C149.625 312.014 152.595 312.344 155.655 312.684 C157.978 313.91 159.995 315.013 161.843 316.891 C163.182 318.521 164.35 320.044 165.261 321.954 C165.861 324.588 165.759 327.18 165.718 329.872 C165.716 330.151 165.716 330.151 165.704 331.565 C165.692 332.938 165.674 334.311 165.655 335.684 C164.665 337.664 163.675 339.644 162.655 341.684 C160.886 343.144 159.115 344.602 157.343 346.059 C156.843 346.472 156.344 346.884 155.829 347.309 C155.343 347.709 154.856 348.108 154.355 348.52 C153.909 348.887 153.464 349.253 153.006 349.631 C151.6 350.727 150.15 351.714 148.655 352.684 C146.675 352.684 144.695 352.684 142.655 352.684 C140.75 349.394 139.49 346.395 138.729 342.686 C138.35 340.688 137.992 338.689 137.655 336.684 C136.903 344.377 136.518 351.955 136.655 359.684 C137.645 359.684 138.635 359.684 139.655 359.684 C140.315 359.354 140.975 359.024 141.655 358.684 C141.985 374.854 142.315 391.024 142.655 407.684 C143.315 408.344 143.975 409.004 144.655 409.684 C144.693 410.023 144.693 410.023 144.882 411.739 C145.356 415.304 145.84 418.844 147.307 422.154 C149.131 425.614 151.173 429.09 153.843 431.962 C153.977 432.081 153.977 432.081 154.655 432.684 C156.305 433.014 157.955 433.344 159.655 433.684 C155.56 436.414 151.057 438.483 146.655 440.684 C146.325 471.704 145.995 502.724 145.655 534.684 C123.006 534.948 123.006 534.948 113.491 535.04 C112.9 535.046 112.309 535.052 111.701 535.058 C49.08 535.663 -13.54 535.785 -97.345 535.807 C-106.482 535.808 -115.619 535.811 -124.756 535.816 C-137.674 535.822 -150.592 535.824 -163.51 535.82 C-164.815 535.819 -166.121 535.819 -167.426 535.819 C-167.746 535.818 -167.746 535.818 -169.367 535.818 C-173.752 535.817 -178.137 535.818 -182.523 535.82 C-212.478 535.835 -242.401 535.56 -272.345 534.684 C-272.362 501.256 -272.378 467.828 -272.387 434.4 C-272.387 433.904 -272.387 433.409 -272.387 432.899 C-272.39 422.129 -272.393 411.36 -272.396 400.591 C-272.397 395.309 -272.398 390.027 -272.4 384.745 C-272.4 384.22 -272.4 383.694 -272.4 383.153 C-272.404 366.143 -272.412 349.134 -272.421 332.125 C-272.43 314.633 -272.437 297.141 -272.439 279.649 C-272.439 277.174 -272.439 274.698 -272.44 272.222 C-272.44 271.735 -272.44 271.248 -272.44 270.746 C-272.441 262.931 -272.446 255.116 -272.452 247.302 C-272.457 239.428 -272.46 231.555 -272.458 223.682 C-272.457 219.423 -272.458 215.164 -272.464 210.905 C-272.469 206.995 -272.469 203.085 -272.466 199.175 C-272.465 197.77 -272.466 196.366 -272.47 194.962 C-272.485 187.577 -272.333 180.226 -271.9 172.851 C-271.861 172.164 -271.822 171.477 -271.782 170.769 C-271.741 170.132 -271.699 169.496 -271.657 168.841 C-271.621 168.278 -271.585 167.716 -271.548 167.137 C-271.345 165.684 -271.345 165.684 -270.345 163.684 C-270.196 162.529 -270.093 161.367 -270.016 160.204 C-269.083 148.454 -266.39 138.246 -262.47 127.122 C-261.933 125.546 -261.398 123.97 -260.864 122.393 C-257.349 112.087 -253.706 102.379 -247.782 93.184 C-247.357 92.512 -246.933 91.84 -246.495 91.147 C-244.391 87.83 -242.254 84.536 -240.079 81.264 C-239.074 79.752 -238.074 78.235 -237.074 76.719 C-236.365 75.652 -235.645 74.592 -234.925 73.532 C-232.798 70.321 -231.1 67.407 -230.032 63.688 C-229.805 62.697 -229.578 61.706 -229.345 60.684 C-228.355 60.354 -228.355 60.354 -223.345 58.684 C-218.725 54.064 -214.105 49.444 -209.345 44.684 C-209.015 43.034 -208.685 41.384 -208.345 39.684 C-207.561 39.499 -206.777 39.313 -205.97 39.122 C-202.835 38.081 -200.481 36.471 -197.849 34.544 C-192.291 30.567 -186.509 27.02 -180.657 23.497 C-179.654 22.888 -178.65 22.28 -177.647 21.671 C-176.668 21.077 -175.688 20.484 -174.708 19.891 C-174.272 19.628 -173.837 19.364 -173.388 19.092 C-172.044 18.283 -170.694 17.484 -169.345 16.684 C-168.812 16.361 -168.279 16.038 -167.73 15.705 C-163.459 13.172 -159.136 11.269 -154.481 9.555 C-153.74 9.28 -152.999 9.005 -152.235 8.721 C-149.839 7.842 -147.437 6.978 -145.032 6.122 C-144.622 5.975 -144.213 5.829 -143.79 5.678 C-130.617 0.977 -117.907 -2.236 -103.882 -2.998 C-100.472 -3.193 -97.12 -3.592 -93.738 -4.062 C-63.862 -8.185 -29.501 -6.928 0 0 Z M-78.239 246.715 C-78.934 247.035 -79.629 247.355 -80.345 247.684 C-80.753 247.856 -80.753 247.856 -82.794 248.715 C-88.148 251.084 -92.363 254.119 -96.653 258.093 C-97.558 258.949 -98.452 259.816 -99.345 260.684 C-99.345 261.344 -99.345 262.004 -99.345 262.684 C-100.005 262.684 -100.665 262.684 -101.345 262.684 C-103.699 266.338 -106.032 270.004 -108.345 273.684 C-108.769 274.358 -109.193 275.033 -109.63 275.727 C-111.602 279.004 -112.943 282.093 -113.852 285.813 C-114.345 287.684 -114.345 287.684 -114.818 288.957 C-115.995 292.136 -116.591 294.964 -116.674 298.351 C-116.676 298.898 -116.678 299.445 -116.681 300.008 C-116.687 300.595 -116.694 301.182 -116.701 301.787 C-116.711 303.023 -116.716 304.259 -116.715 305.495 C-116.72 307.35 -116.756 309.203 -116.794 311.057 C-116.838 315.766 -116.861 320.337 -115.483 324.877 C-114.564 327.538 -113.468 330.104 -112.345 332.684 C-111.814 334.139 -111.291 335.597 -110.782 337.059 C-109.602 340.158 -108.379 343.047 -106.345 345.684 C-105.111 346.963 -103.839 348.19 -102.552 349.415 C-100.744 351.316 -99.593 353.385 -98.345 355.684 C-97.025 356.014 -95.705 356.344 -94.345 356.684 C-93.685 358.004 -93.025 359.324 -92.345 360.684 C-90.659 361.626 -88.972 362.563 -87.282 363.497 C-87.049 363.627 -87.049 363.627 -85.87 364.288 C-82.131 366.348 -78.292 368.06 -74.345 369.684 C-56.514 370.088 -56.514 370.088 -49.692 368.45 C-45.127 366.961 -40.456 365.198 -36.345 362.684 C-34.634 361.098 -34.634 361.098 -33.345 359.684 C-32.362 358.993 -31.367 358.317 -30.345 357.684 C-30.345 357.024 -30.345 356.364 -30.345 355.684 C-29.025 355.354 -27.705 355.024 -26.345 354.684 C-25.355 353.034 -24.365 351.384 -23.345 349.684 C-23.345 349.024 -23.345 348.364 -23.345 347.684 C-22.025 347.024 -20.705 346.364 -19.345 345.684 C-18.355 343.374 -17.365 341.064 -16.345 338.684 C-16.345 337.694 -16.345 336.704 -16.345 335.684 C-15.685 335.684 -15.025 335.684 -14.345 335.684 C-9.365 323.328 -9.365 323.328 -8.977 316.735 C-8.91 313.04 -9.076 309.368 -9.345 305.684 C-9.365 305.4 -9.365 305.4 -9.465 303.96 C-9.692 300.859 -9.985 297.772 -10.345 294.684 C-8.365 293.364 -6.385 292.044 -4.345 290.684 C-3.548 289.458 -2.757 288.228 -1.97 286.997 C-1.749 286.654 -1.749 286.654 -0.634 284.922 C0.75 282.605 1.943 280.298 2.655 277.684 C2.867 275.735 2.848 273.829 2.78 271.872 C2.771 271.37 2.762 270.868 2.753 270.35 C2.73 269.128 2.694 267.906 2.655 266.684 C1.335 263.714 0.015 260.744 -1.345 257.684 C-8.059 251.311 -8.059 251.311 -11.212 249.774 C-12.845 249.247 -12.845 249.247 -15.345 248.684 C-18.645 249.014 -21.945 249.344 -25.345 249.684 C-26.665 250.509 -26.665 250.509 -33.345 254.684 C-34.047 254.08 -34.75 253.475 -35.474 252.852 C-38.227 250.654 -41.025 249.294 -44.282 247.997 C-44.782 247.785 -45.281 247.573 -45.796 247.354 C-49.848 245.697 -53.716 244.869 -58.077 244.562 C-65.023 244.252 -71.715 244.072 -78.239 246.715 Z M-80.345 382.684 C-80.675 383.014 -81.005 383.344 -81.345 383.684 C-81.345 385.334 -81.345 386.984 -81.345 388.684 C-80.52 389.179 -80.52 389.179 -76.345 391.684 C-75.025 391.354 -73.705 391.024 -72.345 390.684 C-72.015 389.034 -71.685 387.384 -71.345 385.684 C-72.995 384.694 -74.645 383.704 -76.345 382.684 C-77.665 382.684 -78.985 382.684 -80.345 382.684 Z " fill="#6A7077" transform="translate(317.3446807861328,30.31578826904297)"/>
<path d="M0 0 C3.169 0.347 6.039 0.891 8.947 2.23 C9.993 2.745 11.034 3.269 12.071 3.801 C12.646 4.087 13.221 4.373 13.814 4.669 C15.707 5.614 17.593 6.57 19.48 7.527 C20.816 8.198 22.152 8.867 23.488 9.536 C26.294 10.943 29.097 12.355 31.898 13.771 C35.429 15.556 38.964 17.332 42.501 19.106 C68.585 32.186 68.585 32.186 81.425 39.086 C84.895 40.942 88.307 42.636 92 44 C91.857 44.456 91.714 44.911 91.567 45.381 C89.923 51.154 89.761 56.567 89.875 62.5 C89.885 63.427 89.894 64.354 89.902 65.281 C89.924 67.521 89.958 69.76 90 72 C89.496 71.998 88.992 71.996 88.473 71.993 C83.678 71.973 78.884 71.958 74.09 71.948 C71.626 71.943 69.162 71.936 66.699 71.925 C64.313 71.914 61.927 71.908 59.54 71.905 C58.639 71.903 57.737 71.9 56.836 71.894 C50.566 71.858 44.189 71.883 38 73 C35.622 73.858 33.358 74.965 31.175 76.239 C30.799 76.455 30.424 76.671 30.037 76.894 C29.845 77.004 29.845 77.004 28.875 77.562 C28.062 78.014 27.248 78.463 26.432 78.91 C25.187 79.593 23.941 80.277 22.7 80.968 C18.468 83.319 14.152 85.481 9.812 87.625 C9.123 87.967 8.434 88.31 7.724 88.662 C6.15 89.444 4.575 90.222 3 91 C0.36 91 -2.28 91 -5 91 C-11.563 83.821 -11.563 83.821 -13.41 79.82 C-14.756 75.666 -15.348 71.308 -16 67 C-16.66 67 -17.32 67 -18 67 C-18.046 60.454 -18.082 53.908 -18.104 47.362 C-18.114 44.322 -18.128 41.282 -18.151 38.242 C-18.173 35.305 -18.185 32.368 -18.19 29.431 C-18.193 28.313 -18.201 27.196 -18.211 26.079 C-18.303 16.242 -18.303 16.242 -16.988 12.266 C-16.825 11.892 -16.825 11.892 -16 10 C-15.601 9.888 -15.202 9.775 -14.791 9.66 C-11.263 8.639 -8.395 7.189 -5.391 5.086 C-3.407 3.537 -1.712 1.844 0 0 Z " fill="#A9734E" transform="translate(477,373)"/>
<path d="M0 0 C0.66 0.33 1.32 0.66 2 1 C1.758 1.268 1.515 1.536 1.266 1.812 C-1.329 4.846 -3.386 8.027 -5.117 11.625 C-6.843 16.267 -7.47 21.096 -8 26 C-8.073 26.663 -8.147 27.325 -8.223 28.008 C-8.357 30.527 -8.074 32.683 -7.5 35.141 C-6.115 39.767 -4.248 43.983 -1.586 48.016 C2.049 52.564 6.569 56.508 11.465 59.66 C13.134 60.625 14.656 61.264 16.535 61.695 C17.376 61.849 18.218 61.992 19.062 62.125 C23.857 62.962 23.857 62.962 26.027 63.539 C29.964 64.459 33.993 64.367 38 64 C42.641 63.363 47.275 62.323 51.506 60.269 C54.445 58.671 57.24 56.887 60 55 C60.66 55 61.32 55 62 55 C62 54.34 62 53.68 62 53 C62.151 52.866 62.151 52.866 62.918 52.188 C66.839 48.52 69.275 44.593 72 40 C76.29 39.67 80.58 39.34 85 39 C85.411 42.339 85.752 45.648 86 49 C86.042 49.562 86.084 50.125 86.128 50.704 C86.462 55.886 86.683 61.049 85.505 66.139 C84.244 70.514 82.701 74.778 81 79 C80.34 79 79.68 79 79 79 C78.34 81.97 77.68 84.94 77 88 C76.01 88.99 75.02 89.98 74 91 C73.34 91 72.68 91 72 91 C70.811 93.298 69.744 95.519 69 98 C67.68 98.33 66.36 98.66 65 99 C64.835 99.495 64.835 99.495 64 102 C63.34 102.33 63.34 102.33 60 104 C59.34 104.99 58.68 105.98 58 107 C52.061 109.603 46.112 112.055 39.625 112.868 C33.446 113.369 27.192 113.14 21 113 C18.413 111.736 15.831 110.463 13.25 109.188 C12.52 108.831 11.791 108.475 11.039 108.107 C7.433 106.321 4.096 104.583 1 102 C1 101.34 1 100.68 1 100 C-0.65 99.34 -2.3 98.68 -4 98 C-5.65 95.36 -7.3 92.72 -9 90 C-9.99 89.34 -10.98 88.68 -12 88 C-14.975 82.459 -17.123 77.003 -19 71 C-19.165 70.571 -19.33 70.143 -19.5 69.701 C-20.5 67.024 -21.138 64.614 -21.227 61.749 C-21.227 60.595 -21.216 59.442 -21.195 58.289 C-21.192 57.676 -21.19 57.063 -21.187 56.431 C-21.176 54.496 -21.151 52.561 -21.125 50.625 C-21.115 49.303 -21.106 47.982 -21.098 46.66 C-21.076 43.44 -21.041 40.22 -21 37 C-20.791 36.537 -20.583 36.073 -20.368 35.596 C-20.096 34.979 -19.823 34.362 -19.543 33.727 C-19.273 33.119 -19.002 32.511 -18.723 31.885 C-18.014 30.036 -17.628 28.325 -17.312 26.375 C-16.51 22.822 -14.972 20.033 -13.102 16.95 C-10.794 13.26 -8.418 9.619 -6 6 C-5.34 6 -4.68 6 -4 6 C-3.711 5.381 -3.423 4.762 -3.125 4.125 C-2 2 -2 2 -0.875 0.75 C-0.586 0.502 -0.298 0.255 0 0 Z M10 88 C9.01 88.99 8.02 89.98 7 91 C7.33 93.64 7.66 96.28 8 99 C9.65 100.98 11.3 102.96 13 105 C14.485 105.66 14.485 105.66 22 109 C25.63 109 29.26 109 33 109 C35.31 108.01 37.62 107.02 40 106 C40.66 104.68 41.32 103.36 42 102 C41.835 101.01 41.835 101.01 41 96 C39.35 94.35 37.7 92.7 36 91 C25.491 86.454 25.491 86.454 20.805 85.949 C17.105 86.053 13.553 87.025 10 88 Z " fill="#020100" transform="translate(222,287)"/>
<path d="M0 0 C5.392 1.655 11.285 3.953 15.967 7.141 C16.909 7.846 17.832 8.577 18.75 9.312 C18.462 10.23 18.17 11.147 17.875 12.062 C17.713 12.573 17.55 13.083 17.383 13.609 C16.654 15.572 15.686 17.44 14.75 19.312 C14.75 24.592 14.75 29.873 14.75 35.312 C16.07 37.952 17.39 40.592 18.75 43.312 C25.036 48.741 25.036 48.741 28.75 50.312 C28.473 51.984 28.473 51.984 27.75 54.312 C26.679 56.149 25.445 57.85 24.188 59.562 C23.858 60.021 23.529 60.48 23.189 60.953 C22.382 62.077 21.567 63.195 20.75 64.312 C20.09 64.312 19.43 64.312 18.75 64.312 C18.75 64.972 18.75 65.632 18.75 66.312 C13.088 70.009 7.421 73.571 0.812 75.25 C-5.447 76.689 -11.865 76.912 -18.25 76.312 C-20.732 75.903 -22.922 75.254 -25.25 74.312 C-25.808 74.118 -26.366 73.923 -26.941 73.723 C-31.149 72.132 -34.768 69.858 -38.266 67.043 C-42.286 63.634 -45.658 59.749 -48.539 55.34 C-50.016 52.667 -51.06 50.139 -51.746 47.16 C-52.553 41.493 -52.244 35.937 -51.25 30.312 C-50.072 25.388 -48.314 21.196 -45.625 16.938 C-45.412 16.624 -45.412 16.624 -44.336 15.039 C-43.335 13.447 -42.802 12.092 -42.25 10.312 C-38.692 7.175 -35.07 5.054 -30.75 3.125 C-30.194 2.865 -29.639 2.606 -29.066 2.338 C-20.318 -1.645 -9.376 -2.066 0 0 Z " fill="#3A3A39" transform="translate(265.25,275.6875)"/>
<path d="M0 0 C3.3 0.33 6.6 0.66 10 1 C18.833 7.33 18.833 7.33 21.258 10.742 C22.295 12.5 23.107 14.15 23.695 16.109 C24.382 20.373 24.105 24.698 24 29 C22.02 32.96 20.04 36.92 18 41 C14.022 44.183 11.4 45.953 7 48 C4.03 48 1.06 48 -2 48 C-8.951 43.994 -8.951 43.994 -11.574 41.508 C-13.422 39.365 -14.818 37.352 -16.125 34.832 C-16.745 33.203 -17.013 31.845 -17.157 30.099 C-17.196 27.958 -17.175 25.828 -17.125 23.688 C-17.116 22.947 -17.107 22.206 -17.098 21.443 C-17.074 19.629 -17.041 17.814 -17 16 C-15.857 13.203 -14.581 10.578 -13 8 C-10.885 5.644 -8.65 3.732 -6 2 C-3.979 1.08 -2.169 0.529 0 0 Z " fill="#B9B9B9" transform="translate(296,279)"/>
<path d="M0 0 C6.6 0 13.2 0 20 0 C20 6.27 20 12.54 20 19 C19.466 20.125 18.933 21.251 18.383 22.41 C15.345 29.113 13.038 36.107 10.681 43.071 C10.148 44.635 9.607 46.197 9.058 47.756 C5.011 59.244 2.807 69.879 2 82 C1.34 82 0.68 82 0 82 C0 54.94 0 27.88 0 0 Z " fill="#3B3B3B" transform="translate(46,112)"/>
<path d="M0 0 C4.287 1.197 8.019 3.446 11.73 5.848 C12.72 7.498 13.71 9.148 14.73 10.848 C14.4 13.158 14.07 15.468 13.73 17.848 C10.996 20.094 10.996 20.094 9.73 20.848 C6.937 21.779 4.38 21.955 1.469 21.936 C0.978 21.927 0.486 21.919 -0.02 21.91 C-0.526 21.906 -1.033 21.901 -1.555 21.896 C-2.793 21.885 -4.031 21.867 -5.27 21.848 C-6.755 21.188 -6.755 21.188 -14.27 17.848 C-15.92 15.868 -17.57 13.888 -19.27 11.848 C-19.6 9.208 -19.93 6.568 -20.27 3.848 C-19.28 2.858 -18.29 1.868 -17.27 0.848 C-11.149 -1.117 -6.213 -1.444 0 0 Z " fill="#4D4D4D" transform="translate(249.26953125,374.15234375)"/>
<path d="M0 0 C6.6 0 13.2 0 20 0 C20 6.6 20 13.2 20 20 C13.4 20 6.8 20 0 20 C0 13.4 0 6.8 0 0 Z " fill="#3A3A3A" transform="translate(547,571)"/>
<path d="M0 0 C6.6 0 13.2 0 20 0 C20 6.6 20 13.2 20 20 C13.4 20 6.8 20 0 20 C0 13.4 0 6.8 0 0 Z " fill="#3A3A3A" transform="translate(526,571)"/>
<path d="M0 0 C6.6 0 13.2 0 20 0 C20 6.6 20 13.2 20 20 C13.4 20 6.8 20 0 20 C0 13.4 0 6.8 0 0 Z " fill="#3A3A3A" transform="translate(401,571)"/>
<path d="M0 0 C6.6 0 13.2 0 20 0 C20 6.6 20 13.2 20 20 C13.4 20 6.8 20 0 20 C0 13.4 0 6.8 0 0 Z " fill="#3A3A3A" transform="translate(380,571)"/>
<path d="M0 0 C6.6 0 13.2 0 20 0 C20 6.6 20 13.2 20 20 C13.4 20 6.8 20 0 20 C0 13.4 0 6.8 0 0 Z " fill="#3A3A3A" transform="translate(359,571)"/>
<path d="M0 0 C6.6 0 13.2 0 20 0 C20 6.6 20 13.2 20 20 C13.4 20 6.8 20 0 20 C0 13.4 0 6.8 0 0 Z " fill="#3A3A3A" transform="translate(213,571)"/>
<path d="M0 0 C6.6 0 13.2 0 20 0 C20 6.6 20 13.2 20 20 C13.4 20 6.8 20 0 20 C0 13.4 0 6.8 0 0 Z " fill="#3A3A3A" transform="translate(192,571)"/>
<path d="M0 0 C6.6 0 13.2 0 20 0 C20 6.6 20 13.2 20 20 C13.4 20 6.8 20 0 20 C0 13.4 0 6.8 0 0 Z " fill="#3A3A3A" transform="translate(67,571)"/>
<path d="M0 0 C6.6 0 13.2 0 20 0 C20 6.6 20 13.2 20 20 C13.4 20 6.8 20 0 20 C0 13.4 0 6.8 0 0 Z " fill="#3A3A3A" transform="translate(46,571)"/>
<path d="M0 0 C6.6 0 13.2 0 20 0 C20 6.6 20 13.2 20 20 C13.4 20 6.8 20 0 20 C0 13.4 0 6.8 0 0 Z " fill="#3A3A3A" transform="translate(25,571)"/>
<path d="M0 0 C6.6 0 13.2 0 20 0 C20 6.6 20 13.2 20 20 C13.4 20 6.8 20 0 20 C0 13.4 0 6.8 0 0 Z " fill="#3A3A3A" transform="translate(547,446)"/>
<path d="M0 0 C6.6 0 13.2 0 20 0 C20 6.6 20 13.2 20 20 C13.4 20 6.8 20 0 20 C0 13.4 0 6.8 0 0 Z " fill="#3A3A3A" transform="translate(526,446)"/>
<path d="M0 0 C6.6 0 13.2 0 20 0 C20 6.6 20 13.2 20 20 C13.4 20 6.8 20 0 20 C0 13.4 0 6.8 0 0 Z " fill="#3A3A3A" transform="translate(25,446)"/>
<path d="M0 0 C6.6 0 13.2 0 20 0 C20 6.6 20 13.2 20 20 C13.4 20 6.8 20 0 20 C0 13.4 0 6.8 0 0 Z " fill="#3A3A3A" transform="translate(25,425)"/>
<path d="M0 0 C6.6 0 13.2 0 20 0 C20 6.6 20 13.2 20 20 C13.4 20 6.8 20 0 20 C0 13.4 0 6.8 0 0 Z " fill="#3B3B3B" transform="translate(25,404)"/>
<path d="M0 0 C6.6 0 13.2 0 20 0 C20 6.6 20 13.2 20 20 C13.4 20 6.8 20 0 20 C0 13.4 0 6.8 0 0 Z " fill="#3A3A3A" transform="translate(547,279)"/>
<path d="M0 0 C6.6 0 13.2 0 20 0 C20 6.6 20 13.2 20 20 C13.4 20 6.8 20 0 20 C0 13.4 0 6.8 0 0 Z " fill="#3A3A3A" transform="translate(526,279)"/>
<path d="M0 0 C6.6 0 13.2 0 20 0 C20 6.6 20 13.2 20 20 C13.4 20 6.8 20 0 20 C0 13.4 0 6.8 0 0 Z " fill="#3A3A3A" transform="translate(25,279)"/>
<path d="M0 0 C6.6 0 13.2 0 20 0 C20 6.6 20 13.2 20 20 C13.4 20 6.8 20 0 20 C0 13.4 0 6.8 0 0 Z " fill="#3A3A3A" transform="translate(547,258)"/>
<path d="M0 0 C6.6 0 13.2 0 20 0 C20 6.6 20 13.2 20 20 C13.4 20 6.8 20 0 20 C0 13.4 0 6.8 0 0 Z " fill="#3A3A3A" transform="translate(526,258)"/>
<path d="M0 0 C6.6 0 13.2 0 20 0 C20 6.6 20 13.2 20 20 C13.4 20 6.8 20 0 20 C0 13.4 0 6.8 0 0 Z " fill="#3A3A3A" transform="translate(25,258)"/>
<path d="M0 0 C6.6 0 13.2 0 20 0 C20 6.6 20 13.2 20 20 C13.4 20 6.8 20 0 20 C0 13.4 0 6.8 0 0 Z " fill="#3A3A3A" transform="translate(547,237)"/>
<path d="M0 0 C6.6 0 13.2 0 20 0 C20 6.6 20 13.2 20 20 C13.4 20 6.8 20 0 20 C0 13.4 0 6.8 0 0 Z " fill="#3A3A3A" transform="translate(526,237)"/>
<path d="M0 0 C6.6 0 13.2 0 20 0 C20 6.6 20 13.2 20 20 C13.4 20 6.8 20 0 20 C0 13.4 0 6.8 0 0 Z " fill="#3A3A3B" transform="translate(25,237)"/>
<path d="M0 0 C6.6 0 13.2 0 20 0 C20 6.6 20 13.2 20 20 C13.4 20 6.8 20 0 20 C0 13.4 0 6.8 0 0 Z " fill="#3A3A3A" transform="translate(547,112)"/>
<path d="M0 0 C6.6 0 13.2 0 20 0 C20 6.6 20 13.2 20 20 C13.4 20 6.8 20 0 20 C0 13.4 0 6.8 0 0 Z " fill="#3A3A3A" transform="translate(526,112)"/>
<path d="M0 0 C6.6 0 13.2 0 20 0 C20 6.6 20 13.2 20 20 C13.4 20 6.8 20 0 20 C0 13.4 0 6.8 0 0 Z " fill="#3A3A3A" transform="translate(25,112)"/>
<path d="M0 0 C6.6 0 13.2 0 20 0 C20 6.6 20 13.2 20 20 C13.4 20 6.8 20 0 20 C0 13.4 0 6.8 0 0 Z " fill="#3A3A3A" transform="translate(547,91)"/>
<path d="M0 0 C6.6 0 13.2 0 20 0 C20 6.6 20 13.2 20 20 C13.4 20 6.8 20 0 20 C0 13.4 0 6.8 0 0 Z " fill="#3A3A3A" transform="translate(526,91)"/>
<path d="M0 0 C6.6 0 13.2 0 20 0 C20 6.6 20 13.2 20 20 C13.4 20 6.8 20 0 20 C0 13.4 0 6.8 0 0 Z " fill="#3A3A3A" transform="translate(46,91)"/>
<path d="M0 0 C6.6 0 13.2 0 20 0 C20 6.6 20 13.2 20 20 C13.4 20 6.8 20 0 20 C0 13.4 0 6.8 0 0 Z " fill="#3A3A3A" transform="translate(25,91)"/>
<path d="M0 0 C6.6 0 13.2 0 20 0 C20 6.6 20 13.2 20 20 C13.4 20 6.8 20 0 20 C0 13.4 0 6.8 0 0 Z " fill="#3A3A3A" transform="translate(547,70)"/>
<path d="M0 0 C6.6 0 13.2 0 20 0 C20 6.6 20 13.2 20 20 C13.4 20 6.8 20 0 20 C0 13.4 0 6.8 0 0 Z " fill="#3A3A3A" transform="translate(526,70)"/>
<path d="M0 0 C6.6 0 13.2 0 20 0 C20 6.6 20 13.2 20 20 C13.4 20 6.8 20 0 20 C0 13.4 0 6.8 0 0 Z " fill="#3A3A3A" transform="translate(67,70)"/>
<path d="M0 0 C6.6 0 13.2 0 20 0 C20 6.6 20 13.2 20 20 C13.4 20 6.8 20 0 20 C0 13.4 0 6.8 0 0 Z " fill="#3A3A3A" transform="translate(46,70)"/>
<path d="M0 0 C6.6 0 13.2 0 20 0 C20 6.6 20 13.2 20 20 C13.4 20 6.8 20 0 20 C0 13.4 0 6.8 0 0 Z " fill="#3A3A3A" transform="translate(25,70)"/>
<path d="M0 0 C6.27 0 12.54 0 19 0 C19 6.6 19 13.2 19 20 C12.73 20 6.46 20 0 20 C0 13.4 0 6.8 0 0 Z " fill="#3A3A3A" transform="translate(443,571)"/>
<path d="M0 0 C6.6 0 13.2 0 20 0 C20 6.27 20 12.54 20 19 C13.4 19 6.8 19 0 19 C0 12.73 0 6.46 0 0 Z " fill="#3A3A3A" transform="translate(547,196)"/>
<path d="M0 0 C6.6 0 13.2 0 20 0 C20 6.27 20 12.54 20 19 C13.4 19 6.8 19 0 19 C0 12.73 0 6.46 0 0 Z " fill="#3A3A3A" transform="translate(25,196)"/>
<path d="M0 0 C6.6 0 13.2 0 20 0 C20 6.27 20 12.54 20 19 C13.4 19 6.8 19 0 19 C0 12.73 0 6.46 0 0 Z " fill="#3A3A3A" transform="translate(547,175)"/>
<path d="M0 0 C6.27 0 12.54 0 19 0 C19 6.6 19 13.2 19 20 C12.73 20 6.46 20 0 20 C0 13.4 0 6.8 0 0 Z " fill="#3A3A3A" transform="translate(443,112)"/>
<path d="M0 0 C6.27 0 12.54 0 19 0 C19 6.6 19 13.2 19 20 C12.73 20 6.46 20 0 20 C0 13.4 0 6.8 0 0 Z " fill="#3A3A3A" transform="translate(443,91)"/>
<path d="M0 0 C6.6 0 13.2 0 20 0 C20 5.94 20 11.88 20 18 C16.981 18.755 15.088 19.122 12.109 19.098 C11.47 19.095 10.83 19.093 10.171 19.09 C9.372 19.081 8.573 19.072 7.75 19.062 C5.192 19.042 2.635 19.021 0 19 C0 12.73 0 6.46 0 0 Z " fill="#3A3A3A" transform="translate(213,8)"/>
<path d="M0 0 C6.27 0 12.54 0 19 0 C19 6.27 19 12.54 19 19 C12.73 19 6.46 19 0 19 C0 12.73 0 6.46 0 0 Z " fill="#3A3A3A" transform="translate(464,196)"/>
<path d="M0 0 C6.6 0 13.2 0 20 0 C20.33 1.98 20.66 3.96 21 6 C13.702 16.558 13.702 16.558 10 21 C6.7 20.67 3.4 20.34 0 20 C0 13.4 0 6.8 0 0 Z " fill="#3B3B3B" transform="translate(67,91)"/>
<path d="M0 0 C6.6 0 13.2 0 20 0 C20 6.6 20 13.2 20 20 C17.69 20 15.38 20 13 20 C8.71 15.71 4.42 11.42 0 7 C0 4.69 0 2.38 0 0 Z " fill="#3B3B3B" transform="translate(401,70)"/>
<path d="M0 0 C6.6 0 13.2 0 20 0 C20 4.29 20 8.58 20 13 C17.329 11.759 14.659 10.515 11.992 9.265 C11.085 8.84 10.177 8.417 9.269 7.996 C7.961 7.389 6.656 6.777 5.352 6.164 C4.946 5.978 4.541 5.791 4.123 5.599 C2.483 4.822 1.087 4.077 -0.272 2.865 C-0.512 2.579 -0.752 2.294 -1 2 C-0.67 1.34 -0.34 0.68 0 0 Z " fill="#3C3B3B" transform="translate(547,404)"/>
<path d="M0 0 C20.13 0 40.26 0 61 0 C61 1.65 61 3.3 61 5 C54.73 5 48.46 5 42 5 C42 3.68 42 2.36 42 1 C28.14 1 14.28 1 0 1 C0 0.67 0 0.34 0 0 Z " fill="#3D3E40" transform="translate(255,565)"/>
<path d="M0 0 C0.33 0 0.66 0 1 0 C1.11 0.797 1.219 1.593 1.332 2.414 C2.746 12.062 2.746 12.062 4.625 15.75 C5.066 16.51 5.517 17.266 6 18 C6.062 19.312 6.062 19.312 6 21 C5.67 21.99 5.34 22.98 5 24 C3.02 24.99 1.04 25.98 -1 27 C-1.33 26.34 -1.66 25.68 -2 25 C-2.104 19.123 -2.035 13.299 -1.562 7.438 C-1.523 6.925 -1.484 6.413 -1.444 5.886 C-1.33 4.587 -1.168 3.293 -1 2 C-0.67 1.34 -0.34 0.68 0 0 Z " fill="#3A3E43" transform="translate(455,365)"/>
<path d="M0 0 C6.6 0 13.2 0 20 0 C20 1.65 20 3.3 20 5 C13.4 5 6.8 5 0 5 C0 3.35 0 1.7 0 0 Z " fill="#3B3B3C" transform="translate(401,565)"/>
<path d="M0 0 C6.6 0 13.2 0 20 0 C20 1.65 20 3.3 20 5 C13.4 5 6.8 5 0 5 C0 3.35 0 1.7 0 0 Z " fill="#3B3B3C" transform="translate(380,565)"/>
<path d="M0 0 C6.6 0 13.2 0 20 0 C20 1.65 20 3.3 20 5 C13.4 5 6.8 5 0 5 C0 3.35 0 1.7 0 0 Z " fill="#3B3C3C" transform="translate(359,565)"/>
<path d="M0 0 C6.6 0 13.2 0 20 0 C20 1.65 20 3.3 20 5 C13.4 5 6.8 5 0 5 C0 3.35 0 1.7 0 0 Z " fill="#3C3C3D" transform="translate(234,565)"/>
<path d="M0 0 C6.6 0 13.2 0 20 0 C20 1.65 20 3.3 20 5 C13.4 5 6.8 5 0 5 C0 3.35 0 1.7 0 0 Z " fill="#3B3C3D" transform="translate(213,565)"/>
<path d="M0 0 C6.6 0 13.2 0 20 0 C20 1.65 20 3.3 20 5 C13.4 5 6.8 5 0 5 C0 3.35 0 1.7 0 0 Z " fill="#3C3C3D" transform="translate(192,565)"/>
<path d="M0 0 C6.6 0 13.2 0 20 0 C20 1.65 20 3.3 20 5 C13.4 5 6.8 5 0 5 C0 3.35 0 1.7 0 0 Z " fill="#3B3C3D" transform="translate(67,565)"/>
<path d="M0 0 C6.6 0 13.2 0 20 0 C20 1.65 20 3.3 20 5 C13.4 5 6.8 5 0 5 C0 3.35 0 1.7 0 0 Z " fill="#3C3D3D" transform="translate(46,565)"/>
<path d="M0 0 C6.27 0 12.54 0 19 0 C19 1.65 19 3.3 19 5 C12.73 5 6.46 5 0 5 C0 3.35 0 1.7 0 0 Z " fill="#3B3B3C" transform="translate(443,565)"/>
<path d="M0 0 C5.94 0 11.88 0 18 0 C18 1.65 18 3.3 18 5 C11.73 5 5.46 5 -1 5 C-0.67 3.35 -0.34 1.7 0 0 Z " fill="#3B3C3C" transform="translate(131,565)"/>
<path d="M0 0 C3.3 0 6.6 0 10 0 C8.796 2.408 7.628 4.708 6.273 7.016 C6.119 7.28 6.119 7.28 5.336 8.617 C5.177 8.887 5.177 8.887 4.375 10.25 C4.213 10.527 4.213 10.527 3.391 11.93 C2.595 13.287 1.798 14.644 1 16 C0.67 16 0.34 16 0 16 C0 10.72 0 5.44 0 0 Z " fill="#3B3B3C" transform="translate(67,112)"/>
<path d="M0 0 C0.99 0.165 0.99 0.165 6 1 C6.99 1.66 7.98 2.32 9 3 C8.67 4.98 8.34 6.96 8 9 C7.01 8.835 7.01 8.835 2 8 C1.01 7.34 0.02 6.68 -1 6 C-1 4.35 -1 2.7 -1 1 C-0.67 0.67 -0.34 0.34 0 0 Z " fill="#E1D5D0" transform="translate(237,413)"/>
</svg>
